SplineFontDB: 3.2
FontName: OverusedGrotesk-Black
FullName: Overused Grotesk Black
FamilyName: Overused Grotesk
Weight: Black
Copyright: Copyright (c) 2023, Bao Nguyen (RandomMaerks) (rmforbusiness@gmail.com)
UComments: "2023-7-28: Created with FontForge (http://fontforge.org)"
Version: 0.1
ItalicAngle: 0
UnderlinePosition: -100
UnderlineWidth: 50
Ascent: 800
Descent: 200
InvalidEm: 0
UFOAscent: 800
UFODescent: -200
LayerCount: 2
Layer: 0 0 "Back" 1
Layer: 1 0 "public.default" 0 "glyphs"
StyleMap: 0x0000
FSType: 0
OS2Version: 0
OS2_WeightWidthSlopeOnly: 0
OS2_UseTypoMetrics: 1
CreationTime: 1691315371
ModificationTime: 1692012239
PfmFamily: 17
TTFWeight: 900
TTFWidth: 5
LineGap: 90
VLineGap: 0
OS2TypoAscent: 0
OS2TypoAOffset: 1
OS2TypoDescent: 0
OS2TypoDOffset: 1
OS2TypoLinegap: 90
OS2WinAscent: 0
OS2WinAOffset: 1
OS2WinDescent: 0
OS2WinDOffset: 1
HheadAscent: 0
HheadAOffset: 1
HheadDescent: 0
HheadDOffset: 1
OS2Vendor: 'Rand'
Lookup: 1 0 0 "'dnom' Denominators in Latin lookup 12" { "'dnom' Denominators in Latin lookup 12-1" ("dnom") } ['dnom' ('DFLT' <'dflt' > 'latn' <'dflt' > ) ]
Lookup: 1 0 0 "'numr' Numerators in Latin lookup 13" { "'numr' Numerators in Latin lookup 13-1" ("numr") } ['numr' ('DFLT' <'dflt' > 'latn' <'dflt' > ) ]
Lookup: 1 0 0 "'subs' Subscript in Latin lookup 14" { "'subs' Subscript in Latin lookup 14-1" ("inferior") } ['subs' ('DFLT' <'dflt' > 'latn' <'dflt' > ) ]
Lookup: 1 0 0 "'sups' Superscript in Latin lookup 15" { "'sups' Superscript in Latin lookup 15-1" ("superior") } ['sups' ('DFLT' <'dflt' > 'latn' <'dflt' > ) ]
Lookup: 1 0 0 "'tnum' Tabular Numbers in Latin lookup 11" { "'tnum' Tabular Numbers in Latin lookup 11-1" ("tabl") } ['tnum' ('DFLT' <'dflt' > 'latn' <'dflt' > ) ]
Lookup: 1 0 0 "'zero' Slashed Zero in Latin lookup 10" { "'zero' Slashed Zero in Latin lookup 10-1" ("slsh.tabl") } ['zero' ('DFLT' <'dflt' > 'latn' <'dflt' > ) ]

StartChar: A
Encoding: 65 65 0
GlifName: A_
Width: 677
VWidth: 0
GlyphClass: 2
Flags: W
AnchorPoint: "bottom2" 662 0 basechar 0
AnchorPoint: "bottom1" 340 0 basechar 0
AnchorPoint: "top1" 336 700 basechar 0
LayerCount: 2
Fore
SplineSet
173 250 m 257
 505 250 l 257
 505 102 l 257
 173 102 l 257
 173 250 l 257
662 0 m 257
 465 0 l 257
 337 454 l 257
 213 0 l 257
 15 0 l 257
 230 650 l 257
 447 650 l 257
 662 0 l 257
EndSplineSet
EndChar

StartChar: AE
Encoding: 198 198 1
GlifName: A_E_
Width: 962
VWidth: 0
GlyphClass: 2
Flags: W
LayerCount: 2
Fore
SplineSet
917 650 m 257
 917 472 l 257
 627 472 l 257
 627 417 l 257
 889 417 l 257
 889 239 l 257
 627 239 l 257
 627 178 l 257
 917 178 l 257
 917 0 l 257
 437 0 l 257
 437 102 l 257
 250 102 l 257
 213 0 l 257
 15 0 l 257
 273 650 l 257
 917 650 l 257
304 250 m 257
 437 250 l 257
 437 480 l 257
 387 480 l 257
 304 250 l 257
EndSplineSet
EndChar

StartChar: B
Encoding: 66 66 12
GlifName: B_
Width: 648
VWidth: 0
GlyphClass: 2
Flags: W
LayerCount: 2
Fore
SplineSet
376 650 m 258
 499 650 583 583 583 486 c 256
 583 425 549 371 494 345 c 257
 567 317 613 250 613 171 c 256
 613 69 537 0 426 0 c 258
 45 0 l 257
 45 650 l 257
 376 650 l 258
352 492 m 258
 235 492 l 257
 235 407 l 257
 352 407 l 258
 372 407 390 427 390 450 c 256
 390 472 372 492 352 492 c 258
376 249 m 258
 235 249 l 257
 235 158 l 257
 372 158 l 258
 398 158 420 180 420 205 c 256
 420 229 400 249 376 249 c 258
EndSplineSet
EndChar

StartChar: C
Encoding: 67 67 13
GlifName: C_
Width: 657
VWidth: 0
GlyphClass: 2
Flags: W
AnchorPoint: "bottom1" 332 0 basechar 0
AnchorPoint: "top1" 331 700 basechar 0
LayerCount: 2
Fore
SplineSet
35 327 m 256
 35 527 153 660 332 660 c 256
 493 660 610 575 622 399 c 257
 429 399 l 257
 427 455 390 490 335 490 c 256
 267 490 228 431 228 327 c 256
 228 222 267 162 335 162 c 256
 390 162 426 198 429 254 c 257
 622 254 l 257
 618 75 492 -8 332 -8 c 256
 154 -8 35 126 35 327 c 256
EndSplineSet
EndChar

StartChar: D
Encoding: 68 68 20
GlifName: D_
Width: 679
VWidth: 0
GlyphClass: 2
Flags: W
AnchorPoint: "top1" 311 700 basechar 0
LayerCount: 2
Fore
SplineSet
235 482 m 257
 235 168 l 257
 347 168 l 258
 413 168 451 221 451 313 c 256
 451 420 405 482 327 482 c 258
 235 482 l 257
337 650 m 258
 521 650 644 515 644 313 c 256
 644 125 529 0 357 0 c 258
 45 0 l 257
 45 650 l 257
 337 650 l 258
EndSplineSet
EndChar

StartChar: Dcroat
Encoding: 272 272 22
GlifName: D_croat
Width: 745
VWidth: 0
GlyphClass: 2
Flags: W
LayerCount: 2
Fore
SplineSet
30 404 m 257
 422 404 l 257
 422 246 l 257
 30 246 l 257
 30 404 l 257
301 482 m 257
 301 168 l 257
 413 168 l 258
 479 168 517 221 517 313 c 256
 517 420 471 482 393 482 c 258
 301 482 l 257
403 650 m 258
 587 650 710 515 710 313 c 256
 710 125 595 0 423 0 c 258
 111 0 l 257
 111 650 l 257
 403 650 l 258
EndSplineSet
EndChar

StartChar: E
Encoding: 69 69 23
GlifName: E_
Width: 560
VWidth: 0
GlyphClass: 2
Flags: W
AnchorPoint: "bottom2" 511 0 basechar 0
AnchorPoint: "bottom1" 296 0 basechar 0
AnchorPoint: "top1" 298 700 basechar 0
LayerCount: 2
Fore
SplineSet
525 650 m 257
 525 472 l 257
 235 472 l 257
 235 417 l 257
 497 417 l 257
 497 239 l 257
 235 239 l 257
 235 178 l 257
 525 178 l 257
 525 0 l 257
 45 0 l 257
 45 650 l 257
 525 650 l 257
EndSplineSet
EndChar

StartChar: Eng
Encoding: 330 330 34
GlifName: E_ng
Width: 680
VWidth: 0
GlyphClass: 2
Flags: W
LayerCount: 2
Fore
SplineSet
445 650 m 257
 635 650 l 257
 635 8 l 258
 635 -122.458 553.357 -200 416 -200 c 258
 354 -200 l 257
 354 -32 l 257
 385 -32 l 258
 426.834 -32 445 -18.0724 445 14 c 258
 445 30 l 257
 235 361 l 257
 235 0 l 257
 45 0 l 257
 45 650 l 257
 275 650 l 257
 445 328 l 257
 445 650 l 257
EndSplineSet
EndChar

StartChar: Eth
Encoding: 208 208 36
GlifName: E_th
Width: 745
VWidth: 0
GlyphClass: 2
Flags: W
LayerCount: 2
Fore
SplineSet
30 404 m 257
 422 404 l 257
 422 246 l 257
 30 246 l 257
 30 404 l 257
301 482 m 257
 301 168 l 257
 413 168 l 258
 479 168 517 221 517 313 c 256
 517 420 471 482 393 482 c 258
 301 482 l 257
403 650 m 258
 587 650 710 515 710 313 c 256
 710 125 595 0 423 0 c 258
 111 0 l 257
 111 650 l 257
 403 650 l 258
EndSplineSet
EndChar

StartChar: F
Encoding: 70 70 37
GlifName: F_
Width: 560
VWidth: 0
GlyphClass: 2
Flags: W
LayerCount: 2
Fore
SplineSet
525 650 m 257
 525 472 l 257
 235 472 l 257
 235 387 l 257
 497 387 l 257
 497 209 l 257
 235 209 l 257
 235 0 l 257
 45 0 l 257
 45 650 l 257
 525 650 l 257
EndSplineSet
EndChar

StartChar: G
Encoding: 71 71 38
GlifName: G_
Width: 667
VWidth: 0
GlyphClass: 2
Flags: W
AnchorPoint: "bottom1" 356 0 basechar 0
AnchorPoint: "top1" 331 700 basechar 0
LayerCount: 2
Fore
SplineSet
450 272 m 257
 622 282 l 257
 622 0 l 257
 500 0 l 257
 450 272 l 257
310 382 m 257
 622 382 l 257
 622 251 l 257
 310 251 l 257
 310 382 l 257
35 327 m 256
 35 527 153 660 332 660 c 256
 493 660 611 572 622 419 c 257
 429 419 l 257
 427 463 390 491 334 491 c 256
 267 491 228 431 228 327 c 256
 228 222 266 162 332 162 c 256
 390 162 427 202 427 264 c 257
 507 264 l 257
 507 106 422 -8 303 -8 c 256
 142 -8 35 126 35 327 c 256
EndSplineSet
Substitution2: "ss04StyleSet4inLatinlookup3 subtable" G.ss04
EndChar

StartChar: G.ss04
Encoding: 1114116 -1 39
GlifName: G_.ss04
Width: 667
VWidth: 0
GlyphClass: 2
Flags: W
HStem: -8 170<280.034 407.637> 251 131<310 438> 491 169<276.333 406.714>
VStem: 35 193<221.881 432.965>
AnchorPoint: "top1" 331 700 basechar 0
AnchorPoint: "bottom1" 356 0 basechar 0
LayerCount: 2
Fore
SplineSet
35 327 m 256
 35 527 153 660 332 660 c 256
 499 660 611 568 622 423 c 257
 429 423 l 257
 427 465 392 491 339 491 c 256
 268 491 228 431 228 327 c 256
 228 222 271 162 345 162 c 256
 401 162 438 197 438 251 c 257
 310 251 l 257
 310 382 l 257
 622 382 l 257
 622 311 l 258
 622 108 511 -8 347 -8 c 256
 160 -8 35 126 35 327 c 256
EndSplineSet
EndChar

StartChar: H
Encoding: 72 72 44
GlifName: H_
Width: 660
VWidth: 0
GlyphClass: 2
Flags: W
HStem: 0 21G<45 235 425 615> 247 178<235 425> 630 20G<45 235 425 615>
VStem: 45 190<0 247 425 650> 425 190<0 247 425 650>
AnchorPoint: "top1" 331 700 basechar 0
LayerCount: 2
Fore
SplineSet
45 650 m 257
 235 650 l 257
 235 425 l 257
 425 425 l 257
 425 650 l 257
 615 650 l 257
 615 0 l 257
 425 0 l 257
 425 247 l 257
 235 247 l 257
 235 0 l 257
 45 0 l 257
 45 650 l 257
EndSplineSet
EndChar

StartChar: Hbar
Encoding: 294 294 45
GlifName: H_bar
Width: 680
VWidth: 0
GlyphClass: 2
Flags: W
LayerCount: 2
Fore
SplineSet
10 590 m 257
 670 590 l 257
 670 472 l 257
 10 472 l 257
 10 590 l 257
55 650 m 257
 245 650 l 257
 245 405 l 257
 435 405 l 257
 435 650 l 257
 625 650 l 257
 625 0 l 257
 435 0 l 257
 435 247 l 257
 245 247 l 257
 245 0 l 257
 55 0 l 257
 55 650 l 257
EndSplineSet
EndChar

StartChar: I
Encoding: 73 73 47
GlifName: I_
Width: 276
VWidth: 0
GlyphClass: 2
Flags: W
HStem: 0 21G<43 233> 630 20G<43 233>
VStem: 43 190<0 650>
AnchorPoint: "bottom2" 233 0 basechar 0
AnchorPoint: "bottom1" 140 0 basechar 0
AnchorPoint: "top1" 141 700 basechar 0
LayerCount: 2
Fore
SplineSet
43 650 m 257
 233 650 l 257
 233 0 l 257
 43 0 l 257
 43 650 l 257
EndSplineSet
EndChar

StartChar: J
Encoding: 74 74 60
GlifName: J_
Width: 392
VWidth: 0
GlyphClass: 2
Flags: W
AnchorPoint: "top1" 253 700 basechar 0
LayerCount: 2
Fore
SplineSet
16 168 m 257
 97 168 l 258
 138 168 157 191 157 244 c 258
 157 650 l 257
 347 650 l 257
 347 218 l 258
 347 81 273 0 148 0 c 258
 16 0 l 257
 16 168 l 257
EndSplineSet
Substitution2: "ss06StyleSet6inLatinlookup5 subtable" J.ss06
EndChar

StartChar: J.ss06
Encoding: 1114120 -1 61
GlifName: J_.ss06
Width: 599
VWidth: 0
GlyphClass: 2
Flags: HW
AnchorPoint: "top1" 458 700 basechar 0
LayerCount: 2
Fore
SplineSet
221 269 m 257
 223 208 251 172 296 172 c 256
 336 172 359 198 359 242 c 258
 359 650 l 257
 559 650 l 257
 559 242 l 258
 559 92 454 -8 298 -8 c 256
 145 -8 42 103 40 269 c 257
 221 269 l 257
EndSplineSet
EndChar

StartChar: K
Encoding: 75 75 63
GlifName: K_
Width: 679
VWidth: 0
GlyphClass: 2
Flags: W
AnchorPoint: "bottom1" 341 0 basechar 0
AnchorPoint: "top1" 341 700 basechar 0
LayerCount: 2
Fore
SplineSet
45 650 m 257
 235 650 l 257
 235 0 l 257
 45 0 l 257
 45 650 l 257
427 650 m 257
 662 650 l 257
 424 334 l 257
 674 0 l 257
 454 0 l 257
 292 233 l 257
 226 138 l 257
 156 276 l 257
 427 650 l 257
EndSplineSet
EndChar

StartChar: L
Encoding: 76 76 64
GlifName: L_
Width: 500
VWidth: 0
GlyphClass: 2
Flags: W
HStem: 0 178<235 475> 630 20G<45 235>
VStem: 45 190<178 650>
AnchorPoint: "top2" 282 450 basechar 0
AnchorPoint: "bottom1" 276 0 basechar 0
AnchorPoint: "top1" 143 700 basechar 0
LayerCount: 2
Fore
SplineSet
475 0 m 257
 45 0 l 257
 45 650 l 257
 235 650 l 257
 235 178 l 257
 475 178 l 257
 475 0 l 257
EndSplineSet
EndChar

StartChar: Lslash
Encoding: 321 321 69
GlifName: L_slash
Width: 530
VWidth: 0
GlyphClass: 2
Flags: W
LayerCount: 2
Fore
SplineSet
0 401 m 257
 378 475 l 257
 378 327 l 257
 0 253 l 257
 0 401 l 257
505 0 m 257
 75 0 l 257
 75 650 l 257
 265 650 l 257
 265 178 l 257
 505 178 l 257
 505 0 l 257
EndSplineSet
EndChar

StartChar: M
Encoding: 77 77 70
GlifName: M_
Width: 866
VWidth: 0
GlyphClass: 2
Flags: W
LayerCount: 2
Fore
SplineSet
518 0 m 257
 348 0 l 257
 235 381 l 257
 235 0 l 257
 45 0 l 257
 45 650 l 257
 326 650 l 257
 433 262 l 257
 536 650 l 257
 821 650 l 257
 821 0 l 257
 631 0 l 257
 631 381 l 257
 518 0 l 257
EndSplineSet
EndChar

StartChar: N
Encoding: 78 78 71
GlifName: N_
Width: 680
VWidth: 0
GlyphClass: 2
Flags: W
AnchorPoint: "bottom1" 345 0 basechar 0
AnchorPoint: "top1" 341 700 basechar 0
LayerCount: 2
Fore
SplineSet
445 650 m 257
 635 650 l 257
 635 0 l 257
 438 0 l 257
 235 361 l 257
 235 0 l 257
 45 0 l 257
 45 650 l 257
 275 650 l 257
 445 318 l 257
 445 650 l 257
EndSplineSet
EndChar

StartChar: O
Encoding: 79 79 75
GlifName: O_
Width: 685
VWidth: 0
GlyphClass: 2
Flags: W
AnchorPoint: "top3" 420 650 basechar 0
AnchorPoint: "bottom1" 341 0 basechar 0
AnchorPoint: "top1" 343 700 basechar 0
LayerCount: 2
Fore
SplineSet
35 317 m 256
 35 523 158 660 343 660 c 256
 527 660 650 523 650 317 c 256
 650 122 527 -8 343 -8 c 256
 158 -8 35 122 35 317 c 256
457 317 m 256
 457 426 415 490 343 490 c 256
 270 490 228 426 228 317 c 256
 228 219 270 162 343 162 c 256
 415 162 457 219 457 317 c 256
EndSplineSet
EndChar

StartChar: OE
Encoding: 338 338 76
GlifName: O_E_
Width: 972
VWidth: 0
GlyphClass: 2
Flags: W
LayerCount: 2
Fore
SplineSet
937 650 m 257
 937 472 l 257
 647 472 l 257
 647 417 l 257
 909 417 l 257
 909 239 l 257
 647 239 l 257
 647 178 l 257
 937 178 l 257
 937 0 l 257
 457 0 l 257
 457 650 l 257
 937 650 l 257
35 322.5 m 256
 35 522.379 137.569 660 286.539 660 c 256
 433.115 660 530 525.692 530 322.5 c 256
 530 121.45 434.641 -8 286.539 -8 c 256
 135.981 -8 35 124.68 35 322.5 c 256
457 322.5 m 256
 457 427.283 414.128 490 342.5 490 c 256
 270.872 490 228 427.283 228 322.5 c 256
 228 219.935 269.33 162 342.5 162 c 256
 415.67 162 457 219.935 457 322.5 c 256
EndSplineSet
EndChar

StartChar: Ohorn
Encoding: 416 416 83
GlifName: O_horn
Width: 685
VWidth: 0
GlyphClass: 2
Flags: W
AnchorPoint: "top1" 343 700 basechar 0
AnchorPoint: "bottom1" 341 0 basechar 0
LayerCount: 2
Fore
SplineSet
35 317 m 256
 35 523 158 660 343 660 c 256
 527 660 650 523 650 317 c 256
 650 122 527 -8 343 -8 c 256
 158 -8 35 122 35 317 c 256
457 317 m 256
 457 426 415 490 343 490 c 256
 270 490 228 426 228 317 c 256
 228 219 270 162 343 162 c 256
 415 162 457 219 457 317 c 256
420 650 m 257
 521 650 l 258
 549.333 650 571 660.315 571 706 c 258
 571 772 l 257
 711 772 l 257
 711 700 l 258
 711 587.118 617.395 552 532 552 c 258
 420 552 l 257
 420 650 l 257
EndSplineSet
EndChar

StartChar: Oslash
Encoding: 216 216 86
GlifName: O_slash
Width: 685
VWidth: 0
GlyphClass: 2
Flags: W
LayerCount: 2
Fore
SplineSet
554 700 m 257
 650 620 l 257
 131 -50 l 257
 35 30 l 257
 554 700 l 257
35 317 m 256
 35 523 158 660 343 660 c 256
 527 660 650 523 650 317 c 256
 650 122 527 -8 343 -8 c 256
 158 -8 35 122 35 317 c 256
457 317 m 256
 457 426 415 490 343 490 c 256
 270 490 228 426 228 317 c 256
 228 219 270 162 343 162 c 256
 415 162 457 219 457 317 c 256
EndSplineSet
EndChar

StartChar: P
Encoding: 80 80 88
GlifName: P_
Width: 626
VWidth: 0
GlyphClass: 2
Flags: W
LayerCount: 2
Fore
SplineSet
328 489 m 258
 235 489 l 257
 235 364 l 257
 328 364 l 258
 374 364 401 388 401 428 c 256
 401 467 374 489 328 489 c 258
363 196 m 258
 235 196 l 257
 235 0 l 257
 45 0 l 257
 45 650 l 257
 345 650 l 258
 496 650 596 561 596 428 c 256
 596 290 502 196 363 196 c 258
EndSplineSet
EndChar

StartChar: Q
Encoding: 81 81 89
GlifName: Q_
Width: 685
VWidth: 0
GlyphClass: 2
Flags: W
LayerCount: 2
Fore
SplineSet
679 103 m 257
 593 -17 l 257
 283 237 l 257
 369 357 l 257
 679 103 l 257
35 317 m 256
 35 523 158 660 343 660 c 256
 527 660 650 523 650 317 c 256
 650 122 527 -8 343 -8 c 256
 158 -8 35 122 35 317 c 256
457 317 m 256
 457 426 415 490 343 490 c 256
 270 490 228 426 228 317 c 256
 228 219 270 162 343 162 c 256
 415 162 457 219 457 317 c 256
EndSplineSet
EndChar

StartChar: R
Encoding: 82 82 90
GlifName: R_
Width: 626
VWidth: 0
GlyphClass: 2
Flags: W
AnchorPoint: "bottom1" 323 0 basechar 0
AnchorPoint: "top1" 311 700 basechar 0
LayerCount: 2
Fore
SplineSet
323 209 m 261
 379 309 l 261
 514 309 566 275 580 153 c 262
 598 0 l 261
 411 0 l 261
 394 136 l 262
 388 185 369 209 323 209 c 261
334 492 m 262
 235 492 l 261
 235 367 l 261
 334 367 l 262
 378 367 403 390 403 431 c 260
 403 470 378 492 334 492 c 262
379 279 m 261
 371 209 l 261
 235 209 l 261
 235 0 l 261
 45 0 l 261
 45 650 l 261
 364 650 l 262
 500 650 591 575 591 461 c 260
 591 352 506 279 379 279 c 261
EndSplineSet
Substitution2: "ss05StyleSet5inLatinlookup4 subtable" R.ss05
EndChar

StartChar: R.ss05
Encoding: 1114123 -1 91
GlifName: R_.ss05
Width: 626
VWidth: 0
GlyphClass: 2
Flags: HW
AnchorPoint: "top1" 311 700 basechar 0
AnchorPoint: "bottom1" 323 0 basechar 0
LayerCount: 2
Fore
SplineSet
474 263 m 257
 614 0 l 257
 402 0 l 257
 290 263 l 257
 474 263 l 257
334 492 m 258
 235 492 l 257
 235 367 l 257
 334 367 l 258
 378 367 403 390 403 431 c 256
 403 470 378 492 334 492 c 258
384 209 m 258
 235 209 l 257
 235 0 l 257
 45 0 l 257
 45 650 l 257
 364 650 l 258
 500 650 591 559 591 421 c 256
 591 294 508 209 384 209 c 258
EndSplineSet
EndChar

StartChar: S
Encoding: 83 83 94
GlifName: S_
Width: 630
VWidth: 0
GlyphClass: 2
Flags: W
AnchorPoint: "bottom1" 328 0 basechar 0
AnchorPoint: "top1" 306 700 basechar 0
LayerCount: 2
Fore
SplineSet
350 229 m 258
 235 239 l 258
 109 251 40 327 40 453 c 256
 40 580 143 659 307 659 c 256
 465 659 569 580 583 451 c 257
 391 451 l 257
 383 494 356 514 305 514 c 256
 261 514 232 494 232 464 c 256
 232 442 245 430 272 427 c 258
 374 417 l 258
 523 402 595 331 595 199 c 256
 595 74 490 -8 330 -8 c 256
 162 -8 51 73 35 206 c 257
 229 206 l 257
 237 161 270 140 331 140 c 256
 375 140 403 161 403 193 c 256
 403 214 385 226 350 229 c 258
EndSplineSet
EndChar

StartChar: T
Encoding: 84 84 99
GlifName: T_
Width: 580
VWidth: 0
GlyphClass: 2
Flags: W
HStem: 0 21G<195 385> 472 178<25 195 385 555>
VStem: 195 190<0 472>
AnchorPoint: "bottom1" 294 0 basechar 0
AnchorPoint: "top1" 287 700 basechar 0
LayerCount: 2
Fore
SplineSet
555 650 m 257
 555 472 l 257
 385 472 l 257
 385 0 l 257
 195 0 l 257
 195 472 l 257
 25 472 l 257
 25 650 l 257
 555 650 l 257
EndSplineSet
EndChar

StartChar: Tbar
Encoding: 358 358 100
GlifName: T_bar
Width: 580
VWidth: 0
GlyphClass: 2
Flags: W
LayerCount: 2
Fore
SplineSet
85 360 m 257
 507 360 l 257
 507 192 l 257
 85 192 l 257
 85 360 l 257
555 650 m 257
 555 472 l 257
 385 472 l 257
 385 0 l 257
 195 0 l 257
 195 472 l 257
 25 472 l 257
 25 650 l 257
 555 650 l 257
EndSplineSet
EndChar

StartChar: Thorn
Encoding: 222 222 102
GlifName: T_horn
Width: 626
VWidth: 0
GlyphClass: 2
Flags: W
LayerCount: 2
Fore
SplineSet
43 650 m 257
 233 650 l 257
 233 560 l 257
 345 560 l 258
 496 560 596 471 596 338 c 256
 596 200 502 106 363 106 c 258
 235 106 l 257
 235 0 l 257
 43 0 l 257
 43 650 l 257
235 399 m 257
 235 274 l 257
 328 274 l 258
 374 274 401 298 401 338 c 256
 401 377 374 399 328 399 c 258
 235 399 l 257
EndSplineSet
EndChar

StartChar: U
Encoding: 85 85 103
GlifName: U_
Width: 639
VWidth: 0
GlyphClass: 2
Flags: W
AnchorPoint: "top3" 409 650 basechar 0
AnchorPoint: "bottom2" 396 0 basechar 0
AnchorPoint: "bottom1" 326 0 basechar 0
AnchorPoint: "top1" 314 700 basechar 0
LayerCount: 2
Fore
SplineSet
40 650 m 257
 230 650 l 257
 230 257 l 258
 230 203 265 172 326 172 c 256
 379 172 409 203 409 257 c 258
 409 650 l 257
 599 650 l 257
 599 257 l 258
 599 98 489 -8 326 -8 c 256
 154 -8 40 98 40 257 c 258
 40 650 l 257
EndSplineSet
EndChar

StartChar: V
Encoding: 86 86 116
GlifName: V_
Width: 677
VWidth: 0
GlyphClass: 2
Flags: W
LayerCount: 2
Fore
SplineSet
15 650 m 257
 212 650 l 257
 340 196 l 257
 464 650 l 257
 662 650 l 257
 447 0 l 257
 230 0 l 257
 15 650 l 257
EndSplineSet
EndChar

StartChar: W
Encoding: 87 87 117
GlifName: W_
Width: 1045
VWidth: 0
GlyphClass: 2
Flags: W
AnchorPoint: "top1" 515 700 basechar 0
LayerCount: 2
Fore
SplineSet
15 650 m 257
 212 650 l 257
 304 201 l 257
 403 650 l 257
 640 650 l 257
 743 201 l 257
 833 650 l 257
 1030 650 l 257
 855 0 l 257
 617 0 l 257
 517 443 l 257
 431 0 l 257
 183 0 l 257
 15 650 l 257
EndSplineSet
EndChar

StartChar: X
Encoding: 88 88 119
GlifName: X_
Width: 657
VWidth: 0
GlyphClass: 2
Flags: W
LayerCount: 2
Fore
SplineSet
15 650 m 257
 212 650 l 257
 330 436 l 257
 444 650 l 257
 642 650 l 257
 465 325 l 257
 642 0 l 257
 445 0 l 257
 327 214 l 257
 213 0 l 257
 15 0 l 257
 192 325 l 257
 15 650 l 257
EndSplineSet
EndChar

StartChar: Y
Encoding: 89 89 120
GlifName: Y_
Width: 657
VWidth: 0
GlyphClass: 2
Flags: W
AnchorPoint: "bottom1" 331 0 basechar 0
AnchorPoint: "top1" 327 700 basechar 0
LayerCount: 2
Fore
SplineSet
232 217 m 261
 15 650 l 261
 222 650 l 261
 330 411 l 261
 434 650 l 261
 642 650 l 261
 422 216 l 261
 422 0 l 261
 232 0 l 261
 232 217 l 261
EndSplineSet
EndChar

StartChar: Z
Encoding: 90 90 126
GlifName: Z_
Width: 562
VWidth: 0
GlyphClass: 2
Flags: W
AnchorPoint: "top1" 282 700 basechar 0
LayerCount: 2
Fore
SplineSet
45 650 m 257
 517 650 l 257
 517 462 l 257
 252 158 l 257
 517 158 l 257
 517 0 l 257
 45 0 l 257
 45 188 l 257
 309 492 l 257
 45 492 l 257
 45 650 l 257
EndSplineSet
EndChar

StartChar: a
Encoding: 97 97 131
GlifName: a
Width: 576
VWidth: 0
GlyphClass: 2
Flags: HW
AnchorPoint: "bottom1" 306 0 basechar 0
AnchorPoint: "bottom2" 558 0 basechar 0
AnchorPoint: "top1" 288 560 basechar 0
LayerCount: 2
Fore
SplineSet
533 168 m 258
 533 99 543 31 558 0 c 257
 366 0 l 257
 352 28 343 78 343 120 c 258
 343 343 l 258
 343 365 317 384 288 384 c 256
 255 384 235 368 231 339 c 257
 37 339 l 257
 45 447 145 517 290 517 c 256
 437 517 533 437 533 315 c 258
 533 168 l 258
368 180 m 257
 368 59 305 -14 200 -14 c 256
 104 -14 33 55 33 150 c 256
 33 249 87 302 193 307 c 258
 309 313 l 258
 334 315 343 323 343 341 c 257
 344 211 l 257
 266 208 l 258
 240 207 225 193 225 171 c 256
 225 148 247 132 277 132 c 256
 313 132 343 158 343 190 c 257
 368 180 l 257
EndSplineSet
Substitution2: "ss01StyleSet1inLatinlookup0 subtable" a.ss01
EndChar

StartChar: a.ss01
Encoding: 1114127 -1 132
GlifName: a.ss01
Width: 608
VWidth: 0
GlyphClass: 2
Flags: W
AnchorPoint: "bottom2" 565 0 basechar 0
AnchorPoint: "top1" 308 560 basechar 0
AnchorPoint: "bottom1" 326 0 basechar 0
LayerCount: 2
Fore
SplineSet
565 500 m 257
 375 500 l 257
 375 0 l 257
 565 0 l 257
 565 500 l 257
418 252 m 256
 418 413 343 520 230 520 c 256
 112 520 33 413 33 252 c 256
 33 90 112 -18 230 -18 c 256
 343 -18 418 90 418 252 c 256
226 252 m 256
 226 320 254 360 300 360 c 256
 347 360 375 320 375 252 c 256
 375 182 347 142 300 142 c 256
 254 142 226 182 226 252 c 256
EndSplineSet
EndChar

StartChar: acutecomb
Encoding: 769 769 139
GlifName: acutecomb
Width: 300
VWidth: 0
GlyphClass: 4
Flags: W
AnchorPoint: "top1" 156 500 mark 0
LayerCount: 2
Fore
SplineSet
369 700 m 257
 209 500 l 257
 59 500 l 257
 159 700 l 257
 369 700 l 257
EndSplineSet
EndChar

StartChar: adieresis.ss01.ss03
Encoding: 1114132 -1 142
GlifName: adieresis.ss01.ss03
Width: 608
VWidth: 0
GlyphClass: 2
Flags: W
LayerCount: 2
Fore
SplineSet
60 651 m 256
 60 711 108 759 168 759 c 256
 228 759 276 711 276 651 c 256
 276 591 228 543 168 543 c 256
 108 543 60 591 60 651 c 256
350 651 m 256
 350 711 398 759 458 759 c 256
 518 759 566 711 566 651 c 256
 566 591 518 543 458 543 c 256
 398 543 350 591 350 651 c 256
EndSplineSet
Refer: 132 -1 N 1 0 0 1 0 0 2
EndChar

StartChar: ae
Encoding: 230 230 144
GlifName: ae
Width: 911
VWidth: 0
GlyphClass: 2
Flags: HW
LayerCount: 2
Fore
SplineSet
393 252 m 256
 393 411 483.31 510 626 510 c 256
 771.455 510 876 397 876 239 c 258
 876 206 l 257
 527 206 l 257
 527 324 l 257
 672 324 l 257
 668 358 642 380 603 380 c 256
 560 380 536 346 536 252 c 256
 536 175 561 135 609 135 c 256
 642 135 662 148 667 175 c 257
 870 175 l 257
 853.711 49 767.741 -8 632 -8 c 256
 485.341 -8 393 92 393 252 c 256
483 168 m 257
 343 150 l 257
 343 343 l 258
 343 365 317 384 288 384 c 256
 255 384 235 368 231 339 c 257
 37 339 l 257
 43.8617 447 129.632 517 254 517 c 256
 392.531 517 483 452 483 315 c 258
 483 168 l 257
418 180 m 257
 418 59 340 -14 210 -14 c 256
 108.251 -14 33 55 33 150 c 256
 33 249 87.0249 301.519 193 307 c 258
 309 313 l 258
 334.036 314.295 343 323 343 341 c 257
 353 211 l 257
 266 208 l 258
 240.001 206.987 225 193 225 171 c 256
 225 148 247 132 277 132 c 256
 313 132 343 158 343 190 c 257
 418 180 l 257
EndSplineSet
EndChar

StartChar: ampersand
Encoding: 38 38 149
GlifName: ampersand
Width: 711
VWidth: 0
GlyphClass: 2
Flags: W
LayerCount: 2
Fore
SplineSet
311 658 m 256
 448 658 542 586 542 481 c 256
 542 386 479 328 338 294 c 256
 257 275 228 251 228 206 c 256
 228 162 263 137 324 137 c 256
 413 137 478 208 490 318 c 257
 662 318 l 257
 651 128 507 -8 317 -8 c 256
 149 -8 35 71 35 188 c 256
 35 292 106 344 262 386 c 257
 338 413 379 436 379 477 c 256
 379 506 361 523 330 523 c 256
 299 523 279 506 279 478 c 256
 279 439 349 402 384 360 c 258
 706 0 l 257
 497 0 l 257
 178 326 l 258
 120 385 95 424 95 485 c 256
 95 587 183 658 311 658 c 256
EndSplineSet
EndChar

StartChar: asciicircum
Encoding: 94 94 154
GlifName: asciicircum
Width: 470
VWidth: 0
GlyphClass: 2
Flags: W
LayerCount: 2
Fore
SplineSet
145 720 m 257
 325 720 l 257
 435 500 l 257
 285 500 l 257
 235 636 l 257
 185 500 l 257
 35 500 l 257
 145 720 l 257
EndSplineSet
EndChar

StartChar: asciitilde
Encoding: 126 126 155
GlifName: asciitilde
Width: 507
VWidth: 0
GlyphClass: 2
Flags: W
LayerCount: 2
Fore
SplineSet
149 505 m 256
 204 505 234 486 263 470 c 256
 282 460 299 451 322 451 c 256
 358 451 379 469 379 499 c 257
 482 499 l 257
 482 379 429 311 335 311 c 256
 291 311 264 326 241 340 c 256
 220 353 202 365 178 365 c 256
 149 365 130 345 130 315 c 257
 25 315 l 257
 25 440 68 505 149 505 c 256
EndSplineSet
EndChar

StartChar: asterisk
Encoding: 42 42 156
GlifName: asterisk
Width: 566
VWidth: 0
GlyphClass: 2
Flags: W
LayerCount: 2
Fore
SplineSet
218 650 m 257
 348 650 l 257
 332 467 l 257
 501 539 l 257
 541 415 l 257
 362 374 l 257
 483 236 l 257
 377 160 l 257
 283 317 l 257
 189 160 l 257
 83 236 l 257
 204 374 l 257
 25 415 l 257
 65 539 l 257
 234 467 l 257
 218 650 l 257
EndSplineSet
Substitution2: "ss09StyleSet9inLatinlookup8 subtable" asterisk.ss09
EndChar

StartChar: asterisk.ss09
Encoding: 1114138 -1 157
GlifName: asterisk.ss09
Width: 698
VWidth: 0
GlyphClass: 2
Flags: W
LayerCount: 2
Fore
SplineSet
264 650 m 257
 434 650 l 257
 425 457 l 257
 588 561 l 257
 673 414 l 257
 502 325 l 257
 673 236 l 257
 588 89 l 257
 425 193 l 257
 434 0 l 257
 264 0 l 257
 273 193 l 257
 110 89 l 257
 25 236 l 257
 196 325 l 257
 25 414 l 257
 110 561 l 257
 273 457 l 257
 264 650 l 257
EndSplineSet
EndChar

StartChar: at
Encoding: 64 64 158
GlifName: at
Width: 946
VWidth: 0
GlyphClass: 2
Flags: W
LayerCount: 2
Fore
SplineSet
426 264 m 256
 426 307 442 332 470 332 c 256
 498 332 515 307 515 264 c 256
 515 220 499 194 470 194 c 256
 442 194 426 220 426 264 c 256
551 264 m 256
 551 383 495 462 411 462 c 256
 322 462 263 383 263 264 c 256
 263 144 322 64 411 64 c 256
 495 64 551 144 551 264 c 256
675 442 m 257
 515 442 l 257
 515 201 l 258
 515 106 582 56 709 56 c 256
 839 56 911 135 911 275 c 256
 911 524 740 690 483 690 c 256
 214 690 35 517 35 257 c 256
 35 8 221 -158 501 -158 c 256
 571 -158 636 -147 696 -124 c 257
 696 26 l 257
 643 4 574 -8 493 -8 c 256
 306 -8 198 89 198 257 c 256
 198 436 303 540 483 540 c 256
 650 540 747 438 747 264 c 256
 747 212 736 192 709 192 c 256
 687 192 675 205 675 231 c 258
 675 442 l 257
EndSplineSet
EndChar

StartChar: b
Encoding: 98 98 161
GlifName: b
Width: 608
VWidth: 0
GlyphClass: 2
Flags: W
LayerCount: 2
Fore
SplineSet
43 700 m 257
 233 700 l 257
 233 0 l 257
 43 0 l 257
 43 700 l 257
190 252 m 256
 190 413 265 520 378 520 c 256
 496 520 575 413 575 252 c 256
 575 90 496 -18 378 -18 c 256
 265 -18 190 90 190 252 c 256
382 252 m 256
 382 320 354 360 308 360 c 256
 261 360 233 320 233 252 c 256
 233 182 261 142 308 142 c 256
 354 142 382 182 382 252 c 256
EndSplineSet
EndChar

StartChar: backslash
Encoding: 92 92 162
GlifName: backslash
Width: 500
VWidth: 0
GlyphClass: 2
Flags: W
LayerCount: 2
Fore
SplineSet
243 650 m 257
 467 0 l 257
 257 0 l 257
 33 650 l 257
 243 650 l 257
EndSplineSet
EndChar

StartChar: bar
Encoding: 124 124 163
GlifName: bar
Width: 276
VWidth: 0
GlyphClass: 2
Flags: W
LayerCount: 2
Fore
SplineSet
43 800 m 257
 233 800 l 257
 233 -200 l 257
 43 -200 l 257
 43 800 l 257
EndSplineSet
EndChar

StartChar: braceleft
Encoding: 123 123 164
GlifName: braceleft
Width: 360
VWidth: 0
GlyphClass: 2
Flags: W
LayerCount: 2
Fore
SplineSet
335 522 m 257
 305 522 l 258
 277 522 265 511 265 486 c 258
 265 382 l 258
 265 330 234 294 179 280 c 257
 234 266 265 230 265 178 c 258
 265 74 l 258
 265 49 277 38 305 38 c 258
 335 38 l 257
 335 -130 l 257
 274 -130 l 258
 155 -130 85 -60 85 58 c 258
 85 162 l 258
 85 187 73 198 45 198 c 258
 25 198 l 257
 25 362 l 257
 45 362 l 258
 73 362 85 373 85 398 c 258
 85 502 l 258
 85 620 155 690 274 690 c 258
 335 690 l 257
 335 522 l 257
EndSplineSet
EndChar

StartChar: braceright
Encoding: 125 125 165
GlifName: braceright
Width: 360
VWidth: 0
GlyphClass: 2
Flags: W
LayerCount: 2
Fore
SplineSet
25 38 m 257
 55 38 l 258
 83 38 95 49 95 74 c 258
 95 178 l 258
 95 230 126 266 181 280 c 257
 126 294 95 330 95 382 c 258
 95 486 l 258
 95 511 83 522 55 522 c 258
 25 522 l 257
 25 690 l 257
 86 690 l 258
 205 690 275 620 275 502 c 258
 275 398 l 258
 275 373 287 362 315 362 c 258
 335 362 l 257
 335 198 l 257
 315 198 l 258
 287 198 275 187 275 162 c 258
 275 58 l 258
 275 -60 205 -130 86 -130 c 258
 25 -130 l 257
 25 38 l 257
EndSplineSet
EndChar

StartChar: bracketleft
Encoding: 91 91 166
GlifName: bracketleft
Width: 360
VWidth: 0
GlyphClass: 2
Flags: W
LayerCount: 2
Fore
SplineSet
225 512 m 257
 335 512 l 257
 335 690 l 257
 35 690 l 257
 35 -130 l 257
 335 -130 l 257
 335 48 l 257
 225 48 l 257
 225 512 l 257
EndSplineSet
EndChar

StartChar: bracketright
Encoding: 93 93 167
GlifName: bracketright
Width: 360
VWidth: 0
GlyphClass: 2
Flags: W
LayerCount: 2
Fore
SplineSet
135 48 m 257
 25 48 l 257
 25 -130 l 257
 325 -130 l 257
 325 690 l 257
 25 690 l 257
 25 512 l 257
 135 512 l 257
 135 48 l 257
EndSplineSet
EndChar

StartChar: bullet
Encoding: 8226 8226 168
GlifName: bullet
Width: 336
VWidth: 0
GlyphClass: 2
Flags: HWO
LayerCount: 2
Fore
SplineSet
30 324 m 260
 30 400.666666667 91.3333333333 462 168 462 c 260
 244.666666667 462 306 400.666666667 306 324 c 260
 306 247.333333333 244.666666667 186 168 186 c 260
 91.3333333333 186 30 247.333333333 30 324 c 260
EndSplineSet
EndChar

StartChar: c
Encoding: 99 99 169
GlifName: c
Width: 593
VWidth: 0
GlyphClass: 2
Flags: W
AnchorPoint: "bottom1" 306 0 basechar 0
AnchorPoint: "top1" 298 560 basechar 0
LayerCount: 2
Fore
SplineSet
33 252 m 260
 33 413 139 520 300 520 c 260
 445 520 550 436 560 289 c 261
 367 289 l 261
 366 342 340 360 300 360 c 260
 253 360 226 321 226 252 c 260
 226 182 253 142 300 142 c 260
 339 142 365 156 367 204 c 261
 560 204 l 261
 546 60 444 -18 300 -18 c 260
 140 -18 33 90 33 252 c 260
EndSplineSet
EndChar

StartChar: colon
Encoding: 58 58 176
GlifName: colon
Width: 276
VWidth: 0
GlyphClass: 2
Flags: W
LayerCount: 2
Fore
SplineSet
36 499 m 257
 240 499 l 257
 240 302 l 257
 36 302 l 257
 36 499 l 257
36 197 m 257
 240 197 l 257
 240 0 l 257
 36 0 l 257
 36 197 l 257
EndSplineSet
Substitution2: "'tnum' Tabular Numbers in Latin lookup 11-1" colon.tabl
Substitution2: "ss03StyleSet3inLatinlookup2 subtable" colon.ss03
EndChar

StartChar: colon.ss03
Encoding: 1114141 -1 177
GlifName: colon.ss03
Width: 276
VWidth: 0
GlyphClass: 2
Flags: W
LayerCount: 2
Fore
SplineSet
30 404 m 256
 30 464 78 512 138 512 c 256
 198 512 246 464 246 404 c 256
 246 344 198 296 138 296 c 256
 78 296 30 344 30 404 c 256
30 97 m 256
 30 157 78 205 138 205 c 256
 198 205 246 157 246 97 c 256
 246 37 198 -11 138 -11 c 256
 78 -11 30 37 30 97 c 256
EndSplineSet
Substitution2: "'tnum' Tabular Numbers in Latin lookup 11-1" colon.ss03.tabl
EndChar

StartChar: comma
Encoding: 44 44 178
GlifName: comma
Width: 276
VWidth: 0
GlyphClass: 2
Flags: W
LayerCount: 2
Fore
SplineSet
36 197 m 257
 240 197 l 257
 240 0 l 257
 162 -185 l 257
 31 -185 l 257
 156 0 l 257
 36 0 l 257
 36 197 l 257
EndSplineSet
Substitution2: "ss03StyleSet3inLatinlookup2 subtable" comma.ss03
EndChar

StartChar: comma.ss03
Encoding: 1114142 -1 179
GlifName: comma.ss03
Width: 276
VWidth: 0
GlyphClass: 2
Flags: W
LayerCount: 2
Fore
SplineSet
30 97 m 256
 30 157 78 205 138 205 c 256
 198 205 246 157 246 97 c 258
 246 -25 l 258
 246 -112 191 -163 97 -163 c 258
 45 -163 l 257
 45 -75 l 257
 66 -75 l 258
 128 -75 156 -58 156 -19 c 258
 156 -10 l 257
 150 -11 144 -11 138 -11 c 256
 78 -11 30 37 30 97 c 256
EndSplineSet
EndChar

StartChar: d
Encoding: 100 100 180
GlifName: d
Width: 608
VWidth: 0
GlyphClass: 2
Flags: W
AnchorPoint: "top2" 608 500 basechar 0
LayerCount: 2
Fore
SplineSet
565 700 m 257
 375 700 l 257
 375 0 l 257
 565 0 l 257
 565 700 l 257
418 252 m 256
 418 413 343 520 230 520 c 256
 112 520 33 413 33 252 c 256
 33 90 112 -18 230 -18 c 256
 343 -18 418 90 418 252 c 256
226 252 m 256
 226 320 254 360 300 360 c 256
 347 360 375 320 375 252 c 256
 375 182 347 142 300 142 c 256
 254 142 226 182 226 252 c 256
EndSplineSet
EndChar

StartChar: dagger
Encoding: 8224 8224 181
GlifName: dagger
Width: 418
VWidth: 0
GlyphClass: 2
Flags: W
LayerCount: 2
Fore
SplineSet
114 352 m 257
 23 352 l 257
 23 500 l 257
 114 500 l 257
 114 630 l 257
 304 630 l 257
 304 500 l 257
 395 500 l 257
 395 352 l 257
 304 352 l 257
 304 0 l 257
 114 0 l 257
 114 352 l 257
EndSplineSet
EndChar

StartChar: daggerdbl
Encoding: 8225 8225 182
GlifName: daggerdbl
Width: 418
VWidth: 0
GlyphClass: 2
Flags: W
LayerCount: 2
Fore
SplineSet
304 500 m 257
 395 500 l 257
 395 352 l 257
 304 352 l 257
 304 278 l 257
 395 278 l 257
 395 130 l 257
 304 130 l 257
 304 0 l 257
 114 0 l 257
 114 130 l 257
 23 130 l 257
 23 278 l 257
 114 278 l 257
 114 352 l 257
 23 352 l 257
 23 500 l 257
 114 500 l 257
 114 630 l 257
 304 630 l 257
 304 500 l 257
EndSplineSet
EndChar

StartChar: dcroat
Encoding: 273 273 184
GlifName: dcroat
Width: 650
VWidth: 0
GlyphClass: 2
Flags: W
LayerCount: 2
Fore
SplineSet
250 650 m 257
 250 534 l 257
 642 534 l 257
 642 650 l 257
 250 650 l 257
565 700 m 257
 375 700 l 257
 375 0 l 257
 565 0 l 257
 565 700 l 257
418 242 m 256
 418 396.993 343 500 230 500 c 256
 112 500 33 396.993 33 242 c 256
 33 86 112 -18 230 -18 c 256
 343 -18 418 86 418 242 c 256
226 242 m 256
 226 303.704 254 340 300 340 c 256
 347 340 375 303.704 375 242 c 256
 375 178.364 347 142 300 142 c 256
 254 142 226 178.364 226 242 c 256
EndSplineSet
EndChar

StartChar: divide
Encoding: 247 247 185
GlifName: divide
Width: 512
VWidth: 0
GlyphClass: 2
Flags: W
LayerCount: 2
Fore
SplineSet
176 555 m 257
 340 555 l 257
 340 388 l 257
 176 388 l 257
 176 555 l 257
176 163 m 257
 340 163 l 257
 340 -4 l 257
 176 -4 l 257
 176 163 l 257
25 350 m 257
 487 350 l 257
 487 202 l 257
 25 202 l 257
 25 350 l 257
EndSplineSet
Substitution2: "'tnum' Tabular Numbers in Latin lookup 11-1" divide.tabl
Substitution2: "ss03StyleSet3inLatinlookup2 subtable" divide.ss03
EndChar

StartChar: divide.ss03
Encoding: 1114143 -1 186
GlifName: divide.ss03
Width: 512
VWidth: 0
GlyphClass: 2
Flags: W
LayerCount: 2
Fore
SplineSet
149 478 m 256
 149 535.222 197 581 257 581 c 256
 317 581 365 535.222 365 478 c 256
 365 420.778 317 375 257 375 c 256
 197 375 149 420.778 149 478 c 256
149 73 m 256
 149 130.222 197 176 257 176 c 256
 317 176 365 130.222 365 73 c 256
 365 15.7778 317 -30 257 -30 c 256
 197 -30 149 15.7778 149 73 c 256
25 350 m 257
 487 350 l 257
 487 202 l 257
 25 202 l 257
 25 350 l 257
EndSplineSet
Substitution2: "'tnum' Tabular Numbers in Latin lookup 11-1" divide.ss03.tabl
EndChar

StartChar: dollar
Encoding: 36 36 187
GlifName: dollar
Width: 630
VWidth: 0
GlyphClass: 2
Flags: W
LayerCount: 2
Fore
SplineSet
287 760 m 261
 347 760 l 261
 347 -130 l 261
 287 -130 l 261
 287 760 l 261
350 239 m 258
 235 249 l 258
 109 260 40 333 40 453 c 256
 40 580 143 659 307 659 c 256
 465 659 569 580 583 451 c 257
 401 451 l 257
 393 494 362 514 305 514 c 256
 261 514 232 494 232 464 c 256
 232 436 245 420 272 417 c 258
 374 407 l 258
 523 392 595 325 595 199 c 256
 595 74 490 -8 330 -8 c 256
 162 -8 51 73 35 206 c 257
 219 206 l 257
 228 161 264 140 331 140 c 256
 375 140 403 161 403 193 c 256
 403 220 385 236 350 239 c 258
EndSplineSet
EndChar

StartChar: dotbelowcomb
Encoding: 803 803 188
GlifName: dotbelowcomb
Width: 276
VWidth: 0
GlyphClass: 4
Flags: HW
AnchorPoint: "bottom1" 138 0 mark 0
LayerCount: 2
Fore
SplineSet
32 -53 m 261
 236 -53 l 261
 236 -200 l 261
 32 -200 l 261
 32 -53 l 261
EndSplineSet
Substitution2: "ss03StyleSet3inLatinlookup2 subtable" dotbelowcomb.ss03
EndChar

StartChar: dotbelowcomb.ss03
Encoding: 1114144 -1 189
GlifName: dotbelowcomb.ss03
Width: 300
VWidth: 0
GlyphClass: 4
Flags: HW
AnchorPoint: "bottom1" 150 0 mark 0
LayerCount: 2
Fore
SplineSet
42 -154 m 256
 42 -94 90 -46 150 -46 c 256
 210 -46 258 -94 258 -154 c 256
 258 -214 210 -262 150 -262 c 256
 90 -262 42 -214 42 -154 c 256
EndSplineSet
EndChar

StartChar: dotlessi
Encoding: 305 305 190
GlifName: dotlessi
Width: 276
VWidth: 0
GlyphClass: 2
Flags: W
HStem: 0 21<43 233 43 43> 480 20<43 233 233 233>
VStem: 43 190<0 500 0 500>
AnchorPoint: "bottom1" 144 0 basechar 0
AnchorPoint: "top1" 142 560 basechar 0
LayerCount: 2
Fore
SplineSet
43 500 m 257
 233 500 l 257
 233 0 l 257
 43 0 l 257
 43 500 l 257
EndSplineSet
PickledDataWithLists: "(dp0
Vcom.fontlab.hintData\\u000d\\u000d\\u000d\\u000d
p1
(dp2
Vhhints\\u000d\\u000d\\u000d\\u000d
p3
(lp4
(dp5
Vposition\\u000d\\u000d\\u000d\\u000d
p6
I0
sVwidth\\u000d\\u000d\\u000d\\u000d
p7
I21
sa(dp8
g6
I480
sg7
I20
sasVvhints\\u000d\\u000d\\u000d\\u000d
p9
(lp10
(dp11
g6
I43
sg7
I190
sass."
Substitution2: "ss03StyleSet3inLatinlookup2 subtable" dotlessi.ss03
EndChar

StartChar: dotlessi.ss03
Encoding: 1114145 -1 191
GlifName: dotlessi.ss03
Width: 276
VWidth: 0
GlyphClass: 2
Flags: W
AnchorPoint: "top1" 142 560 basechar 0
AnchorPoint: "bottom1" 144 0 basechar 0
LayerCount: 2
Fore
SplineSet
43 500 m 257
 233 500 l 257
 233 0 l 257
 43 0 l 257
 43 500 l 257
EndSplineSet
EndChar

StartChar: e
Encoding: 101 101 192
GlifName: e
Width: 599
VWidth: 0
GlyphClass: 2
Flags: W
AnchorPoint: "bottom1" 306 0 basechar 0
AnchorPoint: "bottom2" 495 52 basechar 0
AnchorPoint: "top1" 298 560 basechar 0
LayerCount: 2
Fore
SplineSet
33 252 m 256
 33 411 133 510 291 510 c 256
 451 510 566 397 566 239 c 258
 566 206 l 257
 217 206 l 257
 217 324 l 257
 362 324 l 257
 358 358 332 380 293 380 c 256
 250 380 226 346 226 252 c 256
 226 175 251 135 299 135 c 256
 332 135 352 148 357 175 c 257
 560 175 l 257
 542 49 447 -8 297 -8 c 256
 135 -8 33 92 33 252 c 256
EndSplineSet
EndChar

StartChar: eight
Encoding: 56 56 202
GlifName: eight
Width: 597
VWidth: 0
GlyphClass: 2
Flags: HW
LayerCount: 2
Fore
SplineSet
298 658 m 261
 298 513 l 261
 260 513 238 492 238 455 c 260
 238 418 259 397 296 397 c 261
 296 302 l 261
 129 302 55 371 55 476 c 260
 55 584 154 658 298 658 c 261
298 137 m 261
 298 -8 l 261
 142 -8 35 66 35 176 c 260
 35 283 117 352 296 352 c 261
 296 257 l 261
 252 257 228 236 228 198 c 260
 228 159 254 137 298 137 c 261
311 397 m 261
 311 257 l 261
 286 257 l 261
 286 397 l 261
 311 397 l 261
298 658 m 261
 443 658 542 584 542 475 c 260
 542 370 468 302 301 302 c 261
 301 397 l 261
 338 397 359 419 359 455 c 260
 359 492 337 513 298 513 c 261
 298 658 l 261
298 137 m 261
 343 137 369 159 369 198 c 260
 369 235 344 257 301 257 c 261
 301 352 l 261
 480 352 562 284 562 177 c 260
 562 67 455 -8 298 -8 c 261
 298 137 l 261
EndSplineSet
Substitution2: "'sups' Superscript in Latin lookup 15-1" uni2078
Substitution2: "'subs' Subscript in Latin lookup 14-1" uni2088
Substitution2: "'numr' Numerators in Latin lookup 13-1" eight.numr
Substitution2: "'dnom' Denominators in Latin lookup 12-1" eight.dnom
Substitution2: "'tnum' Tabular Numbers in Latin lookup 11-1" eight.tabl
EndChar

StartChar: ellipsis
Encoding: 8230 8230 203
GlifName: ellipsis
Width: 804
VWidth: 0
GlyphClass: 2
Flags: HW
LayerCount: 2
Fore
SplineSet
564 197 m 257
 768 197 l 257
 768 0 l 257
 564 0 l 257
 564 197 l 257
300 197 m 257
 504 197 l 257
 504 0 l 257
 300 0 l 257
 300 197 l 257
36 197 m 257
 240 197 l 257
 240 0 l 257
 36 0 l 257
 36 197 l 257
EndSplineSet
Substitution2: "ss03StyleSet3inLatinlookup2 subtable" ellipsis.ss03
EndChar

StartChar: ellipsis.ss03
Encoding: 1114148 -1 204
GlifName: ellipsis.ss03
Width: 828
VWidth: 0
GlyphClass: 2
Flags: W
LayerCount: 2
Fore
SplineSet
582 97 m 256
 582 157 630 205 690 205 c 256
 750 205 798 157 798 97 c 256
 798 37 750 -11 690 -11 c 256
 630 -11 582 37 582 97 c 256
306 97 m 256
 306 157 354 205 414 205 c 256
 474 205 522 157 522 97 c 256
 522 37 474 -11 414 -11 c 256
 354 -11 306 37 306 97 c 256
30 97 m 256
 30 157 78 205 138 205 c 256
 198 205 246 157 246 97 c 256
 246 37 198 -11 138 -11 c 256
 78 -11 30 37 30 97 c 256
EndSplineSet
EndChar

StartChar: emdash
Encoding: 8212 8212 206
GlifName: emdash
Width: 1000
VWidth: 0
GlyphClass: 2
Flags: W
LayerCount: 2
Fore
SplineSet
25 360 m 257
 976 360 l 257
 976 192 l 257
 25 192 l 257
 25 360 l 257
EndSplineSet
EndChar

StartChar: endash
Encoding: 8211 8211 207
GlifName: endash
Width: 700
VWidth: 0
GlyphClass: 2
Flags: W
LayerCount: 2
Fore
SplineSet
25 360 m 257
 675 360 l 257
 675 192 l 257
 25 192 l 257
 25 360 l 257
EndSplineSet
EndChar

StartChar: eng
Encoding: 331 331 208
GlifName: eng
Width: 606
VWidth: 0
GlyphClass: 2
Flags: W
LayerCount: 2
Fore
SplineSet
45 499 m 257
 235 499 l 257
 235 -1 l 257
 45 -1 l 257
 45 499 l 257
375 269 m 258
 375 321.612 350.351 349 303 349 c 256
 263.743 349 235 317.721 235 275 c 257
 196 281 l 257
 196 412.33 280.26 519 384 519 c 256
 494.662 519 565 437.393 565 309 c 258
 565 8 l 258
 565 -122.059 486.685 -200 356 -200 c 258
 284 -200 l 257
 284 -32 l 257
 325 -32 l 258
 359.891 -32 375 -18.1001 375 14 c 258
 375 269 l 258
EndSplineSet
EndChar

StartChar: equal
Encoding: 61 61 210
GlifName: equal
Width: 588
VWidth: 0
GlyphClass: 2
Flags: W
LayerCount: 2
Fore
SplineSet
563 250 m 257
 563 92 l 257
 25 92 l 257
 25 250 l 257
 563 250 l 257
563 520 m 257
 563 362 l 257
 25 362 l 257
 25 520 l 257
 563 520 l 257
EndSplineSet
Substitution2: "'sups' Superscript in Latin lookup 15-1" uni207C
Substitution2: "'subs' Subscript in Latin lookup 14-1" uni208C
EndChar

StartChar: eth
Encoding: 240 240 211
GlifName: eth
Width: 657
VWidth: 0
GlyphClass: 2
Flags: W
LayerCount: 2
Fore
SplineSet
407 250 m 256
 407 309.73 370.757 350 317 350 c 256
 262.979 350 228 309.912 228 248 c 256
 228 184.88 262.7 143 315 143 c 256
 368.372 143 407 187.926 407 250 c 256
491.878 700 m 257
 566.496 617.171 622 502.911 622 368 c 256
 622 137.279 504.927 -8 319 -8 c 256
 151.463 -8 35 99.8514 35 255 c 256
 35 396.763 126.101 501 250 501 c 256
 330.066 501 399.599 457.105 429 388 c 257
 429 392 429 396 429 400 c 256
 429 519.743 366.015 620.023 283.217 700 c 257
 491.878 700 l 257
240 642 m 257
 628 666 l 257
 628 548 l 257
 240 524 l 257
 240 642 l 257
EndSplineSet
EndChar

StartChar: exclam
Encoding: 33 33 212
GlifName: exclam
Width: 276
VWidth: 0
GlyphClass: 2
Flags: W
LayerCount: 2
Fore
SplineSet
240 0 m 257
 36 0 l 257
 36 147 l 257
 240 147 l 257
 240 0 l 257
213 200 m 257
 63 200 l 257
 43 650 l 257
 233 650 l 257
 213 200 l 257
EndSplineSet
Substitution2: "ss03StyleSet3inLatinlookup2 subtable" exclam.ss03
EndChar

StartChar: exclam.ss03
Encoding: 1114149 -1 213
GlifName: exclam.ss03
Width: 276
VWidth: 0
GlyphClass: 2
Flags: W
LayerCount: 2
Fore
SplineSet
30 87 m 256
 30 141 78 185 138 185 c 256
 198 185 246 141 246 87 c 256
 246 33 198 -11 138 -11 c 256
 78 -11 30 33 30 87 c 256
213 217 m 257
 63 217 l 257
 43 650 l 257
 233 650 l 257
 213 217 l 257
EndSplineSet
EndChar

StartChar: exclamdown
Encoding: 161 161 214
GlifName: exclamdown
Width: 276
VWidth: 0
GlyphClass: 2
Flags: W
LayerCount: 2
Fore
SplineSet
36 500 m 257
 240 500 l 257
 240 353 l 257
 36 353 l 257
 36 500 l 257
63 300 m 257
 213 300 l 257
 233 -150 l 257
 43 -150 l 257
 63 300 l 257
EndSplineSet
Substitution2: "ss03StyleSet3inLatinlookup2 subtable" exclamdown.ss03
EndChar

StartChar: exclamdown.ss03
Encoding: 1114150 -1 215
GlifName: exclamdown.ss03
Width: 276
VWidth: 0
GlyphClass: 2
Flags: W
LayerCount: 2
Fore
SplineSet
246 412 m 256
 246 358 198 314 138 314 c 256
 78 314 30 358 30 412 c 256
 30 466 78 510 138 510 c 256
 198 510 246 466 246 412 c 256
63 282 m 257
 213 282 l 257
 233 -151 l 257
 43 -151 l 257
 63 282 l 257
EndSplineSet
EndChar

StartChar: f
Encoding: 102 102 216
GlifName: f
Width: 378
VWidth: 0
GlyphClass: 2
Flags: W
HStem: 0 21G<94 284> 352 148<23 355> 680 20G<230.5 355>
VStem: 94 190<0 547.398>
LayerCount: 2
Fore
SplineSet
23 352 m 257
 23 500 l 257
 355 500 l 257
 355 352 l 257
 23 352 l 257
355 552 m 257
 324 552 l 258
 296 552 284 541 284 516 c 258
 284 0 l 257
 94 0 l 257
 94 522 l 258
 94 634 168 700 293 700 c 258
 355 700 l 257
 355 552 l 257
EndSplineSet
EndChar

StartChar: five
Encoding: 53 53 217
GlifName: five
Width: 597
VWidth: 0
GlyphClass: 2
Flags: W
LayerCount: 2
Fore
SplineSet
369 225 m 260
 369 178 344 152 299 152 c 260
 257 152 230 175 228 212 c 261
 35 212 l 261
 45 81 154 -8 306 -8 c 260
 462 -8 562 84 562 227 c 260
 562 355 484 443 372 443 c 260
 312 443 262 418 230 372 c 261
 246 493 l 261
 539 493 l 261
 539 651 l 261
 75 651 l 261
 35 268 l 261
 224 268 l 261
 238 293 263 306 294 306 c 260
 341 306 369 276 369 225 c 260
EndSplineSet
Substitution2: "'sups' Superscript in Latin lookup 15-1" uni2075
Substitution2: "'subs' Subscript in Latin lookup 14-1" uni2085
Substitution2: "'numr' Numerators in Latin lookup 13-1" five.numr
Substitution2: "'dnom' Denominators in Latin lookup 12-1" five.dnom
Substitution2: "'tnum' Tabular Numbers in Latin lookup 11-1" five.tabl
EndChar

StartChar: four
Encoding: 52 52 218
GlifName: four
Width: 611
VWidth: 0
GlyphClass: 2
Flags: W
LayerCount: 2
Fore
SplineSet
514 132 m 261
 514 0 l 261
 334 0 l 261
 334 132 l 261
 25 132 l 261
 25 329 l 261
 274 650 l 261
 514 650 l 261
 514 289 l 261
 596 289 l 261
 596 132 l 261
 514 132 l 261
334 289 m 261
 334 446 l 261
 217 289 l 261
 334 289 l 261
EndSplineSet
Substitution2: "'sups' Superscript in Latin lookup 15-1" uni2074
Substitution2: "'subs' Subscript in Latin lookup 14-1" uni2084
Substitution2: "'numr' Numerators in Latin lookup 13-1" four.numr
Substitution2: "'dnom' Denominators in Latin lookup 12-1" four.dnom
Substitution2: "'tnum' Tabular Numbers in Latin lookup 11-1" four.tabl
EndChar

StartChar: g
Encoding: 103 103 219
GlifName: g
Width: 608
VWidth: 0
GlyphClass: 2
Flags: W
AnchorPoint: "top1" 298 560 basechar 0
LayerCount: 2
Fore
SplineSet
226 269 m 256
 226 327 254 360 302 360 c 256
 348 360 375 327 375 269 c 256
 375 211 348 177 302 177 c 256
 254 177 226 211 226 269 c 256
418 269 m 256
 418 418 342 518 227 518 c 256
 111 518 33 418 33 269 c 256
 33 118 111 17 227 17 c 256
 342 17 418 118 418 269 c 256
565 500 m 257
 375 500 l 257
 375 -6 l 258
 375 -42 348 -63 301 -63 c 256
 257 -63 229 -45 226 -16 c 257
 33 -16 l 257
 51 -129 157 -203 311 -203 c 256
 464 -203 565 -126 565 -11 c 258
 565 500 l 257
EndSplineSet
EndChar

StartChar: germandbls
Encoding: 223 223 224
GlifName: germandbls
Width: 645
VWidth: 0
GlyphClass: 2
Flags: W
LayerCount: 2
Fore
SplineSet
339 551 m 256
 274.72 551 235 507.078 235 436 c 258
 235 0 l 257
 45 0 l 257
 45 442 l 258
 45 596.995 161.185 708 339 708 c 256
 484.129 708 600 615.659 600 500 c 256
 600 389.818 497.699 316 345 316 c 257
 345 426 l 257
 390.657 426 417 447.952 417 486 c 256
 417 523.372 383.846 551 339 551 c 256
393 426 m 257
 393 276 l 257
 304 276 l 257
 304 426 l 257
 393 426 l 257
345 386 m 257
 503.7 386 610 305.372 610 185 c 256
 610 73.9841 516.02 -2.28012e-14 375 0 c 258
 294 0 l 257
 294 160 l 257
 355 160 l 258
 400.837 160 427 180.712 427 217 c 256
 427 254.528 397.157 276 345 276 c 257
 345 386 l 257
EndSplineSet
EndChar

StartChar: grave
Encoding: 96 96 225
GlifName: grave
Width: 430
VWidth: 0
GlyphClass: 2
Flags: W
LayerCount: 2
Fore
SplineSet
35 720 m 257
 265 720 l 257
 395 520 l 257
 245 520 l 257
 35 720 l 257
EndSplineSet
EndChar

StartChar: gravecomb
Encoding: 768 768 226
GlifName: gravecomb
Width: 300
VWidth: 0
GlyphClass: 4
Flags: W
AnchorPoint: "top1" 156 500 mark 0
LayerCount: 2
Fore
SplineSet
-49 700 m 257
 161 700 l 257
 261 500 l 257
 111 500 l 257
 -49 700 l 257
EndSplineSet
EndChar

StartChar: greater
Encoding: 62 62 227
GlifName: greater
Width: 591
VWidth: 0
GlyphClass: 2
Flags: W
LayerCount: 2
Fore
SplineSet
26 40 m 257
 26 236 l 257
 400 312 l 257
 26 382 l 257
 26 580 l 257
 566 418 l 257
 566 202 l 257
 26 40 l 257
EndSplineSet
EndChar

StartChar: h
Encoding: 104 104 228
GlifName: h
Width: 606
VWidth: 0
GlyphClass: 2
Flags: W
AnchorPoint: "top1" 139 752 basechar 0
LayerCount: 2
Fore
SplineSet
373 270 m 258
 373 326 345 350 301 350 c 256
 262 350 233 319 233 276 c 257
 194 282 l 257
 194 430 292 520 382 520 c 256
 487 520 563 445 563 310 c 258
 563 0 l 257
 373 0 l 257
 373 270 l 258
43 700 m 257
 233 700 l 257
 233 0 l 257
 43 0 l 257
 43 700 l 257
EndSplineSet
EndChar

StartChar: hbar
Encoding: 295 295 229
GlifName: hbar
Width: 646
VWidth: 0
GlyphClass: 2
Flags: W
LayerCount: 2
Fore
SplineSet
10 650 m 257
 402 650 l 257
 402 534 l 257
 10 534 l 257
 10 650 l 257
413 260 m 258
 413 309 385 330 341 330 c 256
 302 330 273 303.189 273 266 c 257
 234 272 l 257
 234 413.782 332 500 422 500 c 256
 527 500 603 428.571 603 300 c 258
 603 0 l 257
 413 0 l 257
 413 260 l 258
83 700 m 257
 273 700 l 257
 273 0 l 257
 83 0 l 257
 83 700 l 257
EndSplineSet
EndChar

StartChar: hookabovecomb
Encoding: 777 777 231
GlifName: hookabovecomb
Width: 300
VWidth: 0
GlyphClass: 4
Flags: W
AnchorPoint: "top1" 156 500 mark 0
LayerCount: 2
Fore
SplineSet
96 500 m 257
 96 538 122 560 147 578 c 256
 170 594 192 607 192 624 c 256
 192 644 181 656 163 656 c 256
 142 656 128 643 127 621 c 257
 -1 621 l 257
 5 712.684 58 755 165 755 c 256
 258 755 318 706.115 318 631 c 256
 318 589 290 567 262 550 c 256
 235 534 209 522 209 500 c 257
 96 500 l 257
EndSplineSet
EndChar

StartChar: hyphen
Encoding: 45 45 232
GlifName: hyphen
Width: 512
VWidth: 0
GlyphClass: 2
Flags: W
LayerCount: 2
Fore
SplineSet
25 360 m 261
 487 360 l 261
 487 192 l 261
 25 192 l 261
 25 360 l 261
EndSplineSet
Substitution2: "'sups' Superscript in Latin lookup 15-1" uni207B
Substitution2: "'subs' Subscript in Latin lookup 14-1" uni208B
Substitution2: "'tnum' Tabular Numbers in Latin lookup 11-1" hyphen.tabl
EndChar

StartChar: i
Encoding: 105 105 233
GlifName: i
Width: 276
VWidth: 0
GlyphClass: 2
Flags: W
AnchorPoint: "bottom2" 233 0 basechar 0
AnchorPoint: "bottom1" 144 0 basechar 0
LayerCount: 2
Fore
SplineSet
36 700 m 257
 240 700 l 257
 240 553 l 257
 36 553 l 257
 36 700 l 257
43 500 m 261
 233 500 l 261
 233 0 l 261
 43 0 l 261
 43 500 l 261
EndSplineSet
Substitution2: "ss03StyleSet3inLatinlookup2 subtable" i.ss03
EndChar

StartChar: i.ss03
Encoding: 1114152 -1 234
GlifName: i.ss03
Width: 276
VWidth: 0
GlyphClass: 2
Flags: HW
AnchorPoint: "bottom1" 144 0 basechar 0
AnchorPoint: "bottom2" 233 0 basechar 0
LayerCount: 2
Fore
SplineSet
30 650 m 256
 30 710 78 758 138 758 c 256
 198 758 246 710 246 650 c 256
 246 590 198 542 138 542 c 256
 78 542 30 590 30 650 c 256
43 500 m 257
 233 500 l 257
 233 0 l 257
 43 0 l 257
 43 500 l 257
EndSplineSet
EndChar

StartChar: j
Encoding: 106 106 247
GlifName: j
Width: 276
VWidth: 0
GlyphClass: 2
Flags: W
LayerCount: 2
Fore
SplineSet
-28 -32 m 257
 3 -32 l 258
 31 -32 43 -21 43 4 c 258
 43 500 l 257
 233 500 l 257
 233 -2 l 258
 233 -126 159 -200 34 -200 c 258
 -28 -200 l 257
 -28 -32 l 257
36 700 m 257
 240 700 l 257
 240 553 l 257
 36 553 l 257
 36 700 l 257
EndSplineSet
Substitution2: "ss03StyleSet3inLatinlookup2 subtable" j.ss03
EndChar

StartChar: j.ss03
Encoding: 1114156 -1 248
GlifName: j.ss03
Width: 276
VWidth: 0
GlyphClass: 2
Flags: W
LayerCount: 2
Fore
SplineSet
30 650 m 256
 30 710 78 758 138 758 c 256
 198 758 246 710 246 650 c 256
 246 590 198 542 138 542 c 256
 78 542 30 590 30 650 c 256
-28 -32 m 257
 3 -32 l 258
 31 -32 43 -21 43 4 c 258
 43 500 l 257
 233 500 l 257
 233 -2 l 258
 233 -126 159 -200 34 -200 c 258
 -28 -200 l 257
 -28 -32 l 257
EndSplineSet
EndChar

StartChar: k
Encoding: 107 107 250
GlifName: k
Width: 617
VWidth: 0
GlyphClass: 2
Flags: W
AnchorPoint: "bottom1" 316 0 basechar 0
LayerCount: 2
Fore
SplineSet
45 700 m 257
 235 700 l 257
 235 0 l 257
 45 0 l 257
 45 700 l 257
359 500 m 257
 594 500 l 257
 424 274 l 257
 612 0 l 257
 392 0 l 257
 282 173 l 257
 216 88 l 257
 156 196 l 257
 359 500 l 257
EndSplineSet
EndChar

StartChar: kgreenlandic
Encoding: 312 312 251
GlifName: kgreenlandic
Width: 617
VWidth: 0
GlyphClass: 2
Flags: W
LayerCount: 2
Fore
SplineSet
45 500 m 257
 235 500 l 257
 235 0 l 257
 45 0 l 257
 45 500 l 257
359 500 m 257
 594 500 l 257
 424 274 l 257
 612 0 l 257
 392 0 l 257
 282 173 l 257
 216 88 l 257
 156 196 l 257
 359 500 l 257
EndSplineSet
EndChar

StartChar: l
Encoding: 108 108 252
GlifName: l
Width: 276
VWidth: 0
GlyphClass: 2
Flags: W
HStem: 0 21G<43 233> 680 20G<43 233>
VStem: 43 190<0 700>
AnchorPoint: "top2" 276 500 basechar 0
AnchorPoint: "bottom1" 144 0 basechar 0
AnchorPoint: "top1" 139 752 basechar 0
LayerCount: 2
Fore
SplineSet
43 700 m 257
 233 700 l 257
 233 0 l 257
 43 0 l 257
 43 700 l 257
EndSplineSet
Substitution2: "ss02StyleSet2inLatinlookup1 subtable" l.ss02
EndChar

StartChar: l.ss02
Encoding: 1114157 -1 253
GlifName: l.ss02
Width: 329
VWidth: 0
GlyphClass: 2
Flags: W
AnchorPoint: "top1" 139 752 basechar 0
AnchorPoint: "bottom1" 184 0 basechar 0
AnchorPoint: "top2" 276 500 basechar 0
LayerCount: 2
Fore
SplineSet
306 158 m 257
 306 0 l 257
 244 0 l 258
 119 0 45 66 45 178 c 258
 45 700 l 257
 235 700 l 257
 235 204 l 258
 235 172 247 158 275 158 c 258
 306 158 l 257
EndSplineSet
EndChar

StartChar: ldot.ss02
Encoding: 1114160 -1 259
GlifName: ldot.ss02
Width: 510
VWidth: 0
GlyphClass: 2
Flags: HW
LayerCount: 2
Fore
SplineSet
306 437 m 257
 510 437 l 257
 510 240 l 257
 306 240 l 257
 306 437 l 257
EndSplineSet
Refer: 253 -1 N 1 0 0 1 0 0 2
Substitution2: "ss03StyleSet3inLatinlookup2 subtable" ldot.ss02.ss03
EndChar

StartChar: ldot.ss02.ss03
Encoding: 1114161 -1 260
GlifName: ldot.ss02.ss03
Width: 564
VWidth: 0
GlyphClass: 2
Flags: W
LayerCount: 2
Fore
SplineSet
348 347 m 256
 348 407 396 455 456 455 c 256
 516 455 564 407 564 347 c 256
 564 287 516 239 456 239 c 256
 396 239 348 287 348 347 c 256
306 158 m 257
 306 0 l 257
 244 0 l 258
 119 0 45 66 45 178 c 258
 45 700 l 257
 235 700 l 257
 235 204 l 258
 235 172 247 158 275 158 c 258
 306 158 l 257
EndSplineSet
EndChar

StartChar: less
Encoding: 60 60 262
GlifName: less
Width: 591
VWidth: 0
GlyphClass: 2
Flags: W
LayerCount: 2
Fore
SplineSet
566 580 m 261
 566 384 l 261
 192 308 l 261
 566 238 l 261
 566 40 l 261
 26 202 l 261
 26 418 l 261
 566 580 l 261
EndSplineSet
EndChar

StartChar: longs
Encoding: 383 383 263
GlifName: longs
Width: 329
VWidth: 0
GlyphClass: 2
Flags: W
LayerCount: 2
Fore
SplineSet
306 552 m 257
 275 552 l 258
 247 552 235 541 235 516 c 258
 235 0 l 257
 45 0 l 257
 45 522 l 258
 45 634 119 700 244 700 c 258
 306 700 l 257
 306 552 l 257
EndSplineSet
EndChar

StartChar: lslash
Encoding: 322 322 264
GlifName: lslash
Width: 348
VWidth: 0
GlyphClass: 2
Flags: W
LayerCount: 2
Fore
SplineSet
0 410 m 257
 348 464 l 257
 348 316 l 257
 0 262 l 257
 0 410 l 257
78 700 m 257
 268 700 l 257
 268 0 l 257
 78 0 l 257
 78 700 l 257
EndSplineSet
Substitution2: "ss02StyleSet2inLatinlookup1 subtable" lslash.ss02
EndChar

StartChar: lslash.ss02
Encoding: 1114163 -1 265
GlifName: lslash.ss02
Width: 349
VWidth: 0
GlyphClass: 2
Flags: W
LayerCount: 2
Fore
SplineSet
326 158 m 257
 326 0 l 257
 264 0 l 258
 139 0 65 66 65 178 c 258
 65 700 l 257
 255 700 l 257
 255 204 l 258
 255 172 267 158 295 158 c 258
 326 158 l 257
0 410 m 257
 348 464 l 257
 348 316 l 257
 0 262 l 257
 0 410 l 257
EndSplineSet
EndChar

StartChar: m
Encoding: 109 109 266
GlifName: m
Width: 896
VWidth: 0
GlyphClass: 2
Flags: W
HStem: 0 21G<43 233 353 543 663 853> 350 170<274.5 421.5 584.5 731.5> 480 20G<43 233>
VStem: 43 190<0 500> 194 39<282 430> 353 190<0 277.665> 504 39<282 430> 663 190<0 334.606>
LayerCount: 2
Fore
SplineSet
663 270 m 258xc3
 663 326 639 350 601 350 c 256
 568 350 543 319 543 276 c 257xc5
 504 282 l 257
 504 430 597 520 682 520 c 256
 781 520 853 445 853 310 c 258
 853 0 l 257
 663 0 l 257
 663 270 l 258xc3
353 270 m 258
 353 326 329 350 291 350 c 256
 258 350 233 319 233 276 c 257xd5
 194 282 l 257
 194 430 287 520 372 520 c 256
 471 520 543 445 543 310 c 258xcb
 543 0 l 257
 353 0 l 257
 353 270 l 258
43 500 m 257xb1
 233 500 l 257
 233 0 l 257
 43 0 l 257
 43 500 l 257xb1
EndSplineSet
EndChar

StartChar: minute
Encoding: 8242 8242 267
GlifName: minute
Width: 390
VWidth: 0
GlyphClass: 2
Flags: W
LayerCount: 2
Fore
SplineSet
365 700 m 257
 175 500 l 257
 25 500 l 257
 155 700 l 257
 365 700 l 257
EndSplineSet
EndChar

StartChar: multiply
Encoding: 215 215 268
GlifName: multiply
Width: 588
VWidth: 0
GlyphClass: 2
Flags: W
LayerCount: 2
Fore
SplineSet
294 425 m 257
 425 566 l 257
 544 447 l 257
 403 316 l 257
 544 185 l 257
 425 66 l 257
 294 207 l 257
 163 66 l 257
 44 185 l 257
 185 316 l 257
 44 447 l 257
 163 566 l 257
 294 425 l 257
EndSplineSet
Substitution2: "'tnum' Tabular Numbers in Latin lookup 11-1" multiply.tabl
EndChar

StartChar: n
Encoding: 110 110 269
GlifName: n
Width: 606
VWidth: 0
GlyphClass: 2
Flags: W
AnchorPoint: "bottom1" 309 -1 basechar 0
AnchorPoint: "top1" 312 560 basechar 0
LayerCount: 2
Fore
SplineSet
375 269 m 262
 375 325 347 349 303 349 c 260
 264 349 235 318 235 275 c 261
 196 281 l 261
 196 429 294 519 384 519 c 260
 489 519 565 444 565 309 c 262
 565 -1 l 261
 375 -1 l 261
 375 269 l 262
45 499 m 261
 235 499 l 261
 235 -1 l 261
 45 -1 l 261
 45 499 l 261
EndSplineSet
Substitution2: "'sups' Superscript in Latin lookup 15-1" uni207F
Substitution2: "'subs' Subscript in Latin lookup 14-1" uni2099
EndChar

StartChar: nine
Encoding: 57 57 273
GlifName: nine
Width: 617
VWidth: 0
GlyphClass: 2
Flags: W
LayerCount: 2
Fore
SplineSet
582 319 m 256
 582 115 475 -8 296 -8 c 256
 160 -8 66 63 43 183 c 257
 236 183 l 257
 242 150 262 132 295 132 c 256
 351 132 389 194 389 287 c 256
 389 291 389 295 389 299 c 257
 364 254 305 226 238 226 c 256
 121 226 35 315 35 436 c 256
 35 568 139 660 289 660 c 256
 469 660 582 528 582 319 c 256
367 441 m 256
 367 486 337 519 295 519 c 256
 255 519 228 489 228 443 c 256
 228 397 255 367 297 367 c 256
 339 367 367 397 367 441 c 256
EndSplineSet
Substitution2: "'sups' Superscript in Latin lookup 15-1" uni2079
Substitution2: "'subs' Subscript in Latin lookup 14-1" uni2089
Substitution2: "'numr' Numerators in Latin lookup 13-1" nine.numr
Substitution2: "'dnom' Denominators in Latin lookup 12-1" nine.dnom
Substitution2: "'tnum' Tabular Numbers in Latin lookup 11-1" nine.tabl
EndChar

StartChar: numbersign
Encoding: 35 35 275
GlifName: numbersign
Width: 740
VWidth: 0
GlyphClass: 2
Flags: W
LayerCount: 2
Fore
SplineSet
665 267 m 257
 665 139 l 257
 25 139 l 257
 25 267 l 257
 665 267 l 257
715 507 m 257
 715 379 l 257
 75 379 l 257
 75 507 l 257
 715 507 l 257
507 650 m 257
 687 650 l 257
 513 0 l 257
 333 0 l 257
 507 650 l 257
227 650 m 257
 407 650 l 257
 233 0 l 257
 53 0 l 257
 227 650 l 257
EndSplineSet
EndChar

StartChar: o
Encoding: 111 111 276
GlifName: o
Width: 601
VWidth: 0
GlyphClass: 2
Flags: W
AnchorPoint: "top3" 360 500 basechar 0
AnchorPoint: "bottom1" 301 0 basechar 0
AnchorPoint: "top1" 301 560 basechar 0
LayerCount: 2
Fore
SplineSet
33 252 m 256
 33 413 140 520 301 520 c 256
 461 520 568 413 568 252 c 256
 568 90 461 -18 301 -18 c 256
 140 -18 33 90 33 252 c 256
375 252 m 256
 375 320 347 360 301 360 c 256
 254 360 226 320 226 252 c 256
 226 182 254 142 301 142 c 256
 347 142 375 182 375 252 c 256
EndSplineSet
EndChar

StartChar: oe
Encoding: 339 339 282
GlifName: oe
Width: 943
VWidth: 0
GlyphClass: 2
Flags: W
LayerCount: 2
Fore
SplineSet
426 252 m 256
 426 411 516.31 510 659 510 c 256
 804.455 510 909 397 909 239 c 258
 909 206 l 257
 560 206 l 257
 560 324 l 257
 705 324 l 257
 701 358 675 380 636 380 c 256
 593 380 569 346 569 252 c 256
 569 175 594 135 642 135 c 256
 675 135 695 148 700 175 c 257
 903 175 l 257
 886.711 49 800.741 -8 665 -8 c 256
 518.341 -8 426 92 426 252 c 256
33 252 m 256
 33 413 128.022 520 271 520 c 256
 413.022 520 508 413 508 252 c 256
 508 90 413.022 -18 271 -18 c 256
 128.022 -18 33 90 33 252 c 256
375 252 m 256
 375 320 347 360 301 360 c 256
 254 360 226 320 226 252 c 256
 226 182 254 142 301 142 c 256
 347 142 375 182 375 252 c 256
EndSplineSet
EndChar

StartChar: ohorn
Encoding: 417 417 284
GlifName: ohorn
Width: 633
VWidth: 0
GlyphClass: 2
Flags: W
AnchorPoint: "top1" 301 560 basechar 0
AnchorPoint: "bottom1" 301 0 basechar 0
LayerCount: 2
Fore
SplineSet
33 252 m 256
 33 413 140 520 301 520 c 256
 461 520 568 413 568 252 c 256
 568 90 461 -18 301 -18 c 256
 140 -18 33 90 33 252 c 256
375 252 m 256
 375 320 347 360 301 360 c 256
 254 360 226 320 226 252 c 256
 226 182 254 142 301 142 c 256
 347 142 375 182 375 252 c 256
360 500 m 257
 461 500 l 258
 489.333 500 511 510.315 511 556 c 258
 511 622 l 257
 651 622 l 257
 651 550 l 258
 651 437.118 557.395 402 472 402 c 258
 360 402 l 257
 360 500 l 257
EndSplineSet
EndChar

StartChar: one
Encoding: 49 49 287
GlifName: one
Width: 416
VWidth: 0
GlyphClass: 2
Flags: W
LayerCount: 2
Fore
SplineSet
181 650 m 261
 371 650 l 261
 371 0 l 261
 181 0 l 261
 181 380 l 261
 25 380 l 261
 25 543 l 261
 102 543 l 262
 154 543 181 558 181 610 c 262
 181 650 l 261
EndSplineSet
Substitution2: "'sups' Superscript in Latin lookup 15-1" uni00B9
Substitution2: "'subs' Subscript in Latin lookup 14-1" uni2081
Substitution2: "'numr' Numerators in Latin lookup 13-1" one.numr
Substitution2: "'dnom' Denominators in Latin lookup 12-1" one.dnom
Substitution2: "'tnum' Tabular Numbers in Latin lookup 11-1" one.tabl
EndChar

StartChar: oslash
Encoding: 248 248 288
GlifName: oslash
Width: 601
VWidth: 0
GlyphClass: 2
Flags: W
LayerCount: 2
Fore
SplineSet
502 546 m 261
 568 486 l 261
 101 -44 l 261
 35 16 l 261
 502 546 l 261
33 252 m 256
 33 413 140 520 301 520 c 256
 461 520 568 413 568 252 c 256
 568 90 461 -18 301 -18 c 256
 140 -18 33 90 33 252 c 256
385 252 m 256
 385 326.296 353.216 370 301 370 c 256
 247.733 370 216 326.296 216 252 c 256
 216 175.636 247.733 132 301 132 c 256
 353.216 132 385 175.636 385 252 c 256
EndSplineSet
EndChar

StartChar: p
Encoding: 112 112 290
GlifName: p
Width: 608
VWidth: 0
GlyphClass: 2
Flags: W
LayerCount: 2
Fore
SplineSet
43 500 m 261
 233 500 l 261
 233 -163 l 261
 43 -163 l 261
 43 500 l 261
190 252 m 256
 190 413 265 520 378 520 c 256
 496 520 575 413 575 252 c 256
 575 90 496 -18 378 -18 c 256
 265 -18 190 90 190 252 c 256
382 252 m 256
 382 320 354 360 308 360 c 256
 261 360 233 320 233 252 c 256
 233 182 261 142 308 142 c 256
 354 142 382 182 382 252 c 256
EndSplineSet
EndChar

StartChar: parenleft
Encoding: 40 40 291
GlifName: parenleft
Width: 360
VWidth: 0
GlyphClass: 2
Flags: W
LayerCount: 2
Fore
SplineSet
345 -134 m 261
 154 -134 l 261
 80 -56 25 108 25 277 c 260
 25 446 80 610 154 688 c 261
 345 688 l 261
 260 603 218 457 218 277 c 260
 218 97 260 -49 345 -134 c 261
EndSplineSet
Substitution2: "'sups' Superscript in Latin lookup 15-1" uni207D
Substitution2: "'subs' Subscript in Latin lookup 14-1" uni208D
EndChar

StartChar: parenright
Encoding: 41 41 292
GlifName: parenright
Width: 360
VWidth: 0
GlyphClass: 2
Flags: W
LayerCount: 2
Fore
SplineSet
15 688 m 257
 206 688 l 257
 280 610 335 446 335 277 c 256
 335 108 280 -56 206 -134 c 257
 15 -134 l 257
 100 -49 142 97 142 277 c 256
 142 457 100 603 15 688 c 257
EndSplineSet
Substitution2: "'sups' Superscript in Latin lookup 15-1" uni207E
Substitution2: "'subs' Subscript in Latin lookup 14-1" uni208E
EndChar

StartChar: percent
Encoding: 37 37 293
GlifName: percent
Width: 1031
VWidth: 0
GlyphClass: 2
Flags: HW
LayerCount: 2
Fore
SplineSet
603 190 m 260
 603 315 682 398 801 398 c 260
 919 398 998 315 998 190 c 260
 998 64 919 -20 801 -20 c 260
 682 -20 603 64 603 190 c 260
855 190 m 260
 855 246 835 278 801 278 c 260
 766 278 746 246 746 190 c 260
 746 133 766 100 801 100 c 260
 835 100 855 133 855 190 c 260
569 650 m 257
 729 650 l 257
 465 0 l 257
 305 0 l 257
 569 650 l 257
33 462 m 256
 33 587 112 670 231 670 c 256
 349 670 428 587 428 462 c 256
 428 336 349 252 231 252 c 256
 112 252 33 336 33 462 c 256
285 462 m 256
 285 518 265 550 231 550 c 256
 196 550 176 518 176 462 c 256
 176 405 196 372 231 372 c 256
 265 372 285 405 285 462 c 256
EndSplineSet
EndChar

StartChar: period
Encoding: 46 46 294
GlifName: period
Width: 276
VWidth: 0
GlyphClass: 2
Flags: W
LayerCount: 2
Fore
SplineSet
36 197 m 257
 240 197 l 257
 240 0 l 257
 36 0 l 257
 36 197 l 257
EndSplineSet
Substitution2: "'tnum' Tabular Numbers in Latin lookup 11-1" period.tabl
Substitution2: "ss03StyleSet3inLatinlookup2 subtable" period.ss03
EndChar

StartChar: period.ss03
Encoding: 1114165 -1 295
GlifName: period.ss03
Width: 276
VWidth: 0
GlyphClass: 2
Flags: W
LayerCount: 2
Fore
SplineSet
30 97 m 256
 30 157 78 205 138 205 c 256
 198 205 246 157 246 97 c 256
 246 37 198 -11 138 -11 c 256
 78 -11 30 37 30 97 c 256
EndSplineSet
Substitution2: "'tnum' Tabular Numbers in Latin lookup 11-1" period.ss03.tabl
EndChar

StartChar: periodcentered
Encoding: 183 183 296
GlifName: periodcentered
Width: 276
VWidth: 0
GlyphClass: 2
Flags: W
LayerCount: 2
Fore
SplineSet
36 437 m 261
 240 437 l 261
 240 240 l 261
 36 240 l 261
 36 437 l 261
EndSplineSet
Substitution2: "ss03StyleSet3inLatinlookup2 subtable" periodcentered.ss03
EndChar

StartChar: periodcentered.ss03
Encoding: 1114166 -1 297
GlifName: periodcentered.ss03
Width: 276
VWidth: 0
GlyphClass: 2
Flags: W
LayerCount: 2
Fore
SplineSet
30 347 m 256
 30 407 78 455 138 455 c 256
 198 455 246 407 246 347 c 256
 246 287 198 239 138 239 c 256
 78 239 30 287 30 347 c 256
EndSplineSet
EndChar

StartChar: perthousand
Encoding: 8240 8240 298
GlifName: perthousand
Width: 1460
VWidth: 0
GlyphClass: 2
Flags: W
LayerCount: 2
Fore
SplineSet
1032 190 m 256
 1032 315 1111 398 1230 398 c 256
 1348 398 1427 315 1427 190 c 256
 1427 64 1348 -20 1230 -20 c 256
 1111 -20 1032 64 1032 190 c 256
1284 190 m 256
 1284 246 1264 278 1230 278 c 256
 1195 278 1175 246 1175 190 c 256
 1175 133 1195 100 1230 100 c 256
 1264 100 1284 133 1284 190 c 256
603 190 m 256
 603 315 682 398 801 398 c 256
 919 398 998 315 998 190 c 256
 998 64 919 -20 801 -20 c 256
 682 -20 603 64 603 190 c 256
855 190 m 256
 855 246 835 278 801 278 c 256
 766 278 746 246 746 190 c 256
 746 133 766 100 801 100 c 256
 835 100 855 133 855 190 c 256
569 650 m 257
 729 650 l 257
 465 0 l 257
 305 0 l 257
 569 650 l 257
33 462 m 256
 33 587 112 670 231 670 c 256
 349 670 428 587 428 462 c 256
 428 336 349 252 231 252 c 256
 112 252 33 336 33 462 c 256
285 462 m 256
 285 518 265 550 231 550 c 256
 196 550 176 518 176 462 c 256
 176 405 196 372 231 372 c 256
 265 372 285 405 285 462 c 256
EndSplineSet
EndChar

StartChar: plus
Encoding: 43 43 299
GlifName: plus
Width: 588
VWidth: 0
GlyphClass: 2
Flags: HW
LayerCount: 2
Fore
SplineSet
378 400 m 261
 563 400 l 261
 563 232 l 261
 378 232 l 261
 378 47 l 261
 210 47 l 261
 210 232 l 261
 25 232 l 261
 25 400 l 261
 210 400 l 261
 210 585 l 261
 378 585 l 261
 378 400 l 261
EndSplineSet
Substitution2: "'sups' Superscript in Latin lookup 15-1" uni207A
Substitution2: "'subs' Subscript in Latin lookup 14-1" uni208A
Substitution2: "'tnum' Tabular Numbers in Latin lookup 11-1" plus.tabl
EndChar

StartChar: q
Encoding: 113 113 300
GlifName: q
Width: 608
VWidth: 0
GlyphClass: 2
Flags: W
LayerCount: 2
Fore
SplineSet
565 500 m 257
 375 500 l 257
 375 -163 l 257
 565 -163 l 257
 565 500 l 257
418 252 m 256
 418 413 343 520 230 520 c 256
 112 520 33 413 33 252 c 256
 33 90 112 -18 230 -18 c 256
 343 -18 418 90 418 252 c 256
226 252 m 256
 226 320 254 360 300 360 c 256
 347 360 375 320 375 252 c 256
 375 182 347 142 300 142 c 256
 254 142 226 182 226 252 c 256
EndSplineSet
EndChar

StartChar: question
Encoding: 63 63 301
GlifName: question
Width: 587
VWidth: 0
GlyphClass: 2
Flags: W
LayerCount: 2
Fore
SplineSet
203 200 m 257
 213 282 250 320 286 350 c 256
 323 381 359 402 359 453 c 256
 359 489 335 510 297 510 c 256
 256 510 230 481 228 434 c 257
 35 434 l 257
 45 567 146 658 285 658 c 256
 446 658 552 576 552 453 c 256
 552 361 511 324 470 294 c 256
 436 269 402 247 393 200 c 257
 203 200 l 257
400 0 m 257
 196 0 l 257
 196 147 l 257
 400 147 l 257
 400 0 l 257
EndSplineSet
Substitution2: "ss03StyleSet3inLatinlookup2 subtable" question.ss03
EndChar

StartChar: question.ss03
Encoding: 1114167 -1 302
GlifName: question.ss03
Width: 587
VWidth: 0
GlyphClass: 2
Flags: W
LayerCount: 2
Fore
SplineSet
190 87 m 256
 190 141 238 185 298 185 c 256
 358 185 406 141 406 87 c 256
 406 33 358 -11 298 -11 c 256
 238 -11 190 33 190 87 c 256
203 220 m 257
 212 291 246 327 280 354 c 256
 319 385 359 405 359 454 c 256
 359 490 335 511 297 511 c 256
 256 511 230 482 228 435 c 257
 35 435 l 257
 45 567 146 658 285 658 c 256
 446 658 552 577 552 454 c 256
 552 372 513 338 474 310 c 256
 438 285 403 265 393 220 c 257
 203 220 l 257
EndSplineSet
EndChar

StartChar: questiondown
Encoding: 191 191 303
GlifName: questiondown
Width: 587
VWidth: 0
GlyphClass: 2
Flags: W
LayerCount: 2
Fore
SplineSet
384 300 m 257
 374 218 336.92 180.095 301 150 c 256
 264 119 228 98 228 47 c 256
 228 11 252 -10 290 -10 c 256
 331 -10 357 19 359 66 c 257
 552 66 l 257
 542 -67 441 -158 302 -158 c 256
 141 -158 35 -76 35 47 c 256
 35 139 76.0701 175.904 117 206 c 256
 151 231 185 253 194 300 c 257
 384 300 l 257
187 500 m 257
 391 500 l 257
 391 353 l 257
 187 353 l 257
 187 500 l 257
EndSplineSet
Substitution2: "ss03StyleSet3inLatinlookup2 subtable" questiondown.ss03
EndChar

StartChar: questiondown.ss03
Encoding: 1114168 -1 304
GlifName: questiondown.ss03
Width: 587
VWidth: 0
GlyphClass: 2
Flags: W
LayerCount: 2
Fore
SplineSet
397 413 m 256
 397 359 349 315 289 315 c 256
 229 315 181 359 181 413 c 256
 181 467 229 511 289 511 c 256
 349 511 397 467 397 413 c 256
384 280 m 257
 375 209 340.988 173.016 307 146 c 256
 268 115 228 95 228 46 c 256
 228 10 252 -11 290 -11 c 256
 331 -11 357 18 359 65 c 257
 552 65 l 257
 542 -67 441 -158 302 -158 c 256
 141 -158 35 -77 35 46 c 256
 35 128 73.5657 162.615 113 190 c 256
 149 215 184 235 194 280 c 257
 384 280 l 257
EndSplineSet
EndChar

StartChar: quotedbl
Encoding: 34 34 305
GlifName: quotedbl
Width: 492
VWidth: 0
GlyphClass: 2
Flags: W
LayerCount: 2
Fore
SplineSet
277 700 m 257
 447 700 l 257
 427 400 l 257
 277 400 l 257
 277 700 l 257
45 700 m 257
 215 700 l 257
 195 400 l 257
 45 400 l 257
 45 700 l 257
EndSplineSet
EndChar

StartChar: quotedblbase
Encoding: 8222 8222 306
GlifName: quotedblbase
Width: 551
VWidth: 0
GlyphClass: 2
Flags: W
LayerCount: 2
Fore
SplineSet
36 197 m 257
 240 197 l 257
 240 0 l 257
 162 -185 l 257
 31 -185 l 257
 156 0 l 257
 36 0 l 257
 36 197 l 257
312 197 m 257
 516 197 l 257
 516 0 l 257
 438 -185 l 257
 307 -185 l 257
 432 0 l 257
 312 0 l 257
 312 197 l 257
EndSplineSet
Substitution2: "ss03StyleSet3inLatinlookup2 subtable" quotedblbase.ss03
EndChar

StartChar: quotedblbase.ss03
Encoding: 1114169 -1 307
GlifName: quotedblbase.ss03
Width: 551
VWidth: 0
GlyphClass: 2
Flags: W
LayerCount: 2
Fore
SplineSet
30 108 m 256
 30 168 78 216 138 216 c 256
 198 216 246 168 246 108 c 258
 246 -14 l 258
 246 -108.565 191 -164 97 -164 c 258
 45 -164 l 257
 45 -76 l 257
 66 -76 l 258
 128 -76 156 -55.3574 156 -8 c 258
 156 1 l 257
 150 0 144 0 138 0 c 256
 78 0 30 48 30 108 c 256
305 108 m 256
 305 168 353 216 413 216 c 256
 473 216 521 168 521 108 c 258
 521 -14 l 258
 521 -108.565 466 -164 372 -164 c 258
 320 -164 l 257
 320 -76 l 257
 341 -76 l 258
 403 -76 431 -55.3574 431 -8 c 258
 431 1 l 257
 425 0 419 0 413 0 c 256
 353 0 305 48 305 108 c 256
EndSplineSet
EndChar

StartChar: quotedblleft
Encoding: 8220 8220 308
GlifName: quotedblleft
Width: 551
VWidth: 0
GlyphClass: 2
Flags: W
LayerCount: 2
Fore
SplineSet
511 318 m 257
 307 318 l 257
 307 515 l 257
 385 700 l 257
 516 700 l 257
 391 515 l 257
 511 515 l 257
 511 318 l 257
235 318 m 257
 31 318 l 257
 31 515 l 257
 109 700 l 257
 240 700 l 257
 115 515 l 257
 235 515 l 257
 235 318 l 257
EndSplineSet
Substitution2: "ss03StyleSet3inLatinlookup2 subtable" quotedblleft.ss03
EndChar

StartChar: quotedblleft.ss03
Encoding: 1114170 -1 309
GlifName: quotedblleft.ss03
Width: 551
VWidth: 0
GlyphClass: 2
Flags: W
LayerCount: 2
Fore
SplineSet
521 428 m 256
 521 368 473 320 413 320 c 256
 353 320 305 368 305 428 c 258
 305 550 l 258
 305 644.565 360 700 454 700 c 258
 506 700 l 257
 506 612 l 257
 485 612 l 258
 423 612 395 591.357 395 544 c 258
 395 535 l 257
 401 536 407 536 413 536 c 256
 473 536 521 488 521 428 c 256
246 428 m 256
 246 368 198 320 138 320 c 256
 78 320 30 368 30 428 c 258
 30 550 l 258
 30 644.565 85 700 179 700 c 258
 231 700 l 257
 231 612 l 257
 210 612 l 258
 148 612 120 591.357 120 544 c 258
 120 535 l 257
 126 536 132 536 138 536 c 256
 198 536 246 488 246 428 c 256
EndSplineSet
EndChar

StartChar: quotedblright
Encoding: 8221 8221 310
GlifName: quotedblright
Width: 551
VWidth: 0
GlyphClass: 2
Flags: W
LayerCount: 2
Fore
SplineSet
36 700 m 257
 240 700 l 257
 240 503 l 257
 162 318 l 257
 31 318 l 257
 156 503 l 257
 36 503 l 257
 36 700 l 257
312 700 m 257
 516 700 l 257
 516 503 l 257
 438 318 l 257
 307 318 l 257
 432 503 l 257
 312 503 l 257
 312 700 l 257
EndSplineSet
Substitution2: "ss03StyleSet3inLatinlookup2 subtable" quotedblright.ss03
EndChar

StartChar: quotedblright.ss03
Encoding: 1114171 -1 311
GlifName: quotedblright.ss03
Width: 551
VWidth: 0
GlyphClass: 2
Flags: W
LayerCount: 2
Fore
SplineSet
30 592 m 256
 30 652 78 700 138 700 c 256
 198 700 246 652 246 592 c 258
 246 470 l 258
 246 375.435 191 320 97 320 c 258
 45 320 l 257
 45 408 l 257
 66 408 l 258
 128 408 156 428.643 156 476 c 258
 156 485 l 257
 150 484 144 484 138 484 c 256
 78 484 30 532 30 592 c 256
305 592 m 256
 305 652 353 700 413 700 c 256
 473 700 521 652 521 592 c 258
 521 470 l 258
 521 375.435 466 320 372 320 c 258
 320 320 l 257
 320 408 l 257
 341 408 l 258
 403 408 431 428.643 431 476 c 258
 431 485 l 257
 425 484 419 484 413 484 c 256
 353 484 305 532 305 592 c 256
EndSplineSet
EndChar

StartChar: quoteleft
Encoding: 8216 8216 312
GlifName: quoteleft
Width: 276
VWidth: 0
GlyphClass: 2
Flags: W
LayerCount: 2
Fore
SplineSet
235 318 m 257
 31 318 l 257
 31 515 l 257
 109 700 l 257
 240 700 l 257
 115 515 l 257
 235 515 l 257
 235 318 l 257
EndSplineSet
Substitution2: "ss03StyleSet3inLatinlookup2 subtable" quoteleft.ss03
EndChar

StartChar: quoteleft.ss03
Encoding: 1114172 -1 313
GlifName: quoteleft.ss03
Width: 276
VWidth: 0
GlyphClass: 2
Flags: W
LayerCount: 2
Fore
SplineSet
246 428 m 256
 246 368 198 320 138 320 c 256
 78 320 30 368 30 428 c 258
 30 550 l 258
 30 644.565 85 700 179 700 c 258
 231 700 l 257
 231 612 l 257
 210 612 l 258
 148 612 120 591.357 120 544 c 258
 120 535 l 257
 126 536 132 536 138 536 c 256
 198 536 246 488 246 428 c 256
EndSplineSet
EndChar

StartChar: quotereversed
Encoding: 8219 8219 314
GlifName: quotereversed
Width: 276
VWidth: 0
GlyphClass: 2
Flags: W
LayerCount: 2
Fore
SplineSet
235 700 m 257
 235 503 l 257
 115 503 l 257
 240 318 l 257
 109 318 l 257
 31 503 l 257
 31 700 l 257
 235 700 l 257
EndSplineSet
Substitution2: "ss03StyleSet3inLatinlookup2 subtable" quotereversed.ss03
EndChar

StartChar: quotereversed.ss03
Encoding: 1114173 -1 315
GlifName: quotereversed.ss03
Width: 276
VWidth: 0
GlyphClass: 2
Flags: W
LayerCount: 2
Fore
SplineSet
246 592 m 256
 246 532 198 484 138 484 c 256
 132 484 126 484 120 485 c 257
 120 476 l 258
 120 428.643 148 408 210 408 c 258
 231 408 l 257
 231 320 l 257
 179 320 l 258
 85 320 30 375.435 30 470 c 258
 30 592 l 258
 30 652 78 700 138 700 c 256
 198 700 246 652 246 592 c 256
EndSplineSet
EndChar

StartChar: quoteright
Encoding: 8217 8217 316
GlifName: quoteright
Width: 276
VWidth: 0
GlyphClass: 2
Flags: W
LayerCount: 2
Fore
SplineSet
36 700 m 257
 240 700 l 257
 240 503 l 257
 162 318 l 257
 31 318 l 257
 156 503 l 257
 36 503 l 257
 36 700 l 257
EndSplineSet
Substitution2: "ss03StyleSet3inLatinlookup2 subtable" quoteright.ss03
EndChar

StartChar: quoteright.ss03
Encoding: 1114174 -1 317
GlifName: quoteright.ss03
Width: 276
VWidth: 0
GlyphClass: 2
Flags: W
LayerCount: 2
Fore
SplineSet
30 592 m 256
 30 652 78 700 138 700 c 256
 198 700 246 652 246 592 c 258
 246 470 l 258
 246 375.435 191 320 97 320 c 258
 45 320 l 257
 45 408 l 257
 66 408 l 258
 128 408 156 428.643 156 476 c 258
 156 485 l 257
 150 484 144 484 138 484 c 256
 78 484 30 532 30 592 c 256
EndSplineSet
EndChar

StartChar: quotesinglbase
Encoding: 8218 8218 318
GlifName: quotesinglbase
Width: 276
VWidth: 0
GlyphClass: 2
Flags: W
LayerCount: 2
Fore
SplineSet
36 197 m 257
 240 197 l 257
 240 0 l 257
 162 -185 l 257
 31 -185 l 257
 156 0 l 257
 36 0 l 257
 36 197 l 257
EndSplineSet
Substitution2: "ss03StyleSet3inLatinlookup2 subtable" quotesinglbase.ss03
EndChar

StartChar: quotesinglbase.ss03
Encoding: 1114175 -1 319
GlifName: quotesinglbase.ss03
Width: 276
VWidth: 0
GlyphClass: 2
Flags: W
LayerCount: 2
Fore
SplineSet
30 109 m 256
 30 169 78 217 138 217 c 256
 198 217 246 169 246 109 c 258
 246 -13 l 258
 246 -107.565 191 -163 97 -163 c 258
 45 -163 l 257
 45 -75 l 257
 66 -75 l 258
 128 -75 156 -54.3574 156 -7 c 258
 156 2 l 257
 150 1 144 1 138 1 c 256
 78 1 30 49 30 109 c 256
EndSplineSet
EndChar

StartChar: quotesingle
Encoding: 39 39 320
GlifName: quotesingle
Width: 260
VWidth: 0
GlyphClass: 2
Flags: W
LayerCount: 2
Fore
SplineSet
45 700 m 257
 215 700 l 257
 195 400 l 257
 45 400 l 257
 45 700 l 257
EndSplineSet
EndChar

StartChar: r
Encoding: 114 114 321
GlifName: r
Width: 430
VWidth: 0
GlyphClass: 2
Flags: W
AnchorPoint: "bottom1" 142 0 basechar 0
AnchorPoint: "top1" 252 560 basechar 0
LayerCount: 2
Fore
SplineSet
397 316 m 257
 358 316 l 258
 288 316 233 283 233 236 c 257
 194 242 l 257
 194 408 279 510 357 510 c 258
 397 510 l 257
 397 316 l 257
43 500 m 257
 233 500 l 257
 233 0 l 257
 43 0 l 257
 43 500 l 257
EndSplineSet
EndChar

StartChar: s
Encoding: 115 115 324
GlifName: s
Width: 566
VWidth: 0
GlyphClass: 2
Flags: W
AnchorPoint: "bottom1" 297 0 basechar 0
AnchorPoint: "top1" 276 560 basechar 0
LayerCount: 2
Fore
SplineSet
318 171 m 262
 213 181 l 261
 93 200 38 251 38 347 c 260
 38 452 129 517 275 517 c 260
 416 517 508 455 521 353 c 261
 338 353 l 261
 333 378 313 390 277 390 c 260
 248 390 230 378 230 359 c 260
 230 342 238 334 257 331 c 262
 372 321 l 261
 486 306 533 256 533 148 c 260
 533 50 440 -15 298 -15 c 260
 147 -15 48 46 33 147 c 261
 227 147 l 261
 233 121 254 109 295 109 c 260
 328 109 350 121 350 141 c 260
 350 157 340 168 318 171 c 262
EndSplineSet
EndChar

StartChar: second
Encoding: 8243 8243 329
GlifName: second
Width: 645
VWidth: 0
GlyphClass: 2
Flags: W
LayerCount: 2
Fore
SplineSet
621 700 m 257
 431 500 l 257
 281 500 l 257
 411 700 l 257
 621 700 l 257
365 700 m 257
 175 500 l 257
 25 500 l 257
 155 700 l 257
 365 700 l 257
EndSplineSet
EndChar

StartChar: semicolon
Encoding: 59 59 330
GlifName: semicolon
Width: 276
VWidth: 0
GlyphClass: 2
Flags: W
LayerCount: 2
Fore
SplineSet
36 499 m 257
 240 499 l 257
 240 302 l 257
 36 302 l 257
 36 499 l 257
36 197 m 257
 240 197 l 257
 240 0 l 257
 162 -185 l 257
 31 -185 l 257
 156 0 l 257
 36 0 l 257
 36 197 l 257
EndSplineSet
Substitution2: "ss03StyleSet3inLatinlookup2 subtable" semicolon.ss03
EndChar

StartChar: semicolon.ss03
Encoding: 1114176 -1 331
GlifName: semicolon.ss03
Width: 276
VWidth: 0
GlyphClass: 2
Flags: W
LayerCount: 2
Fore
SplineSet
30 404 m 256
 30 464 78 512 138 512 c 256
 198 512 246 464 246 404 c 256
 246 344 198 296 138 296 c 256
 78 296 30 344 30 404 c 256
30 97 m 256
 30 157 78 205 138 205 c 256
 198 205 246 157 246 97 c 258
 246 -25 l 258
 246 -112 191 -163 97 -163 c 258
 45 -163 l 257
 45 -75 l 257
 66 -75 l 258
 128 -75 156 -58 156 -19 c 258
 156 -10 l 257
 150 -11 144 -11 138 -11 c 256
 78 -11 30 37 30 97 c 256
EndSplineSet
EndChar

StartChar: seven
Encoding: 55 55 332
GlifName: seven
Width: 582
VWidth: 0
GlyphClass: 2
Flags: W
LayerCount: 2
Fore
SplineSet
358 0 m 261
 358 213 406 356 547 462 c 261
 547 650 l 261
 35 650 l 261
 35 472 l 261
 336 472 l 261
 223 372 131 249 131 0 c 261
 358 0 l 261
EndSplineSet
Substitution2: "'sups' Superscript in Latin lookup 15-1" uni2077
Substitution2: "'subs' Subscript in Latin lookup 14-1" uni2087
Substitution2: "'numr' Numerators in Latin lookup 13-1" seven.numr
Substitution2: "'dnom' Denominators in Latin lookup 12-1" seven.dnom
Substitution2: "'tnum' Tabular Numbers in Latin lookup 11-1" seven.tabl
EndChar

StartChar: six
Encoding: 54 54 333
GlifName: six
Width: 617
VWidth: 0
GlyphClass: 2
Flags: W
LayerCount: 2
Fore
SplineSet
35 333 m 260
 35 537 142 660 321 660 c 260
 457 660 551 589 574 469 c 261
 381 469 l 261
 375 502 355 520 322 520 c 260
 266 520 228 458 228 365 c 260
 228 361 228 357 228 353 c 261
 253 398 312 426 379 426 c 260
 496 426 582 337 582 216 c 260
 582 84 478 -8 328 -8 c 260
 148 -8 35 124 35 333 c 260
250 211 m 260
 250 166 280 133 322 133 c 260
 362 133 389 163 389 209 c 260
 389 255 362 285 320 285 c 260
 278 285 250 255 250 211 c 260
EndSplineSet
Substitution2: "'sups' Superscript in Latin lookup 15-1" uni2076
Substitution2: "'subs' Subscript in Latin lookup 14-1" uni2086
Substitution2: "'numr' Numerators in Latin lookup 13-1" six.numr
Substitution2: "'dnom' Denominators in Latin lookup 12-1" six.dnom
Substitution2: "'tnum' Tabular Numbers in Latin lookup 11-1" six.tabl
EndChar

StartChar: slash
Encoding: 47 47 334
GlifName: slash
Width: 500
VWidth: 0
GlyphClass: 2
Flags: W
LayerCount: 2
Fore
SplineSet
257 650 m 257
 467 650 l 257
 243 0 l 257
 33 0 l 257
 257 650 l 257
EndSplineSet
Substitution2: "'tnum' Tabular Numbers in Latin lookup 11-1" slash.tabl
EndChar

StartChar: t
Encoding: 116 116 336
GlifName: t
Width: 378
VWidth: 0
GlyphClass: 2
Flags: W
HStem: 0 21G<230.5 355> 352 148<23 355>
VStem: 94 190<162.555 630>
AnchorPoint: "top2" 318 528 basechar 0
AnchorPoint: "bottom1" 297 0 basechar 0
LayerCount: 2
Fore
SplineSet
23 500 m 257
 355 500 l 257
 355 352 l 257
 23 352 l 257
 23 500 l 257
355 158 m 257
 355 0 l 257
 293 0 l 258
 168 0 94 66 94 178 c 258
 94 630 l 257
 284 630 l 257
 284 204 l 258
 284 172 296 158 324 158 c 258
 355 158 l 257
EndSplineSet
Substitution2: "ss08StyleSet8inLatinlookup7 subtable" t.ss08
EndChar

StartChar: t.ss08
Encoding: 1114177 -1 337
GlifName: t.ss08
Width: 378
VWidth: 0
GlyphClass: 2
Flags: HW
AnchorPoint: "bottom1" 194 0 basechar 0
AnchorPoint: "top2" 318 528 basechar 0
LayerCount: 2
Fore
SplineSet
23 500 m 261
 355 500 l 261
 355 352 l 261
 23 352 l 261
 23 500 l 261
94 0 m 261
 94 630 l 261
 284 630 l 261
 284 0 l 261
 94 0 l 261
EndSplineSet
EndChar

StartChar: tbar
Encoding: 359 359 338
GlifName: tbar
Width: 378
VWidth: 0
GlyphClass: 2
Flags: W
LayerCount: 2
Fore
SplineSet
23 313 m 261
 355 313 l 261
 355 215 l 261
 23 215 l 261
 23 313 l 261
23 500 m 257
 355 500 l 257
 355 362 l 257
 23 362 l 257
 23 500 l 257
355 158 m 257
 355 0 l 257
 293 0 l 258
 168 0 94 66 94 178 c 258
 94 630 l 257
 284 630 l 257
 284 194 l 258
 284 168.957 296 158 324 158 c 258
 355 158 l 257
EndSplineSet
Substitution2: "ss08StyleSet8inLatinlookup7 subtable" tbar.ss08
EndChar

StartChar: thorn
Encoding: 254 254 340
GlifName: thorn
Width: 608
VWidth: 0
GlyphClass: 2
Flags: W
LayerCount: 2
Fore
SplineSet
43 700 m 257
 233 700 l 257
 233 -163 l 257
 43 -163 l 257
 43 700 l 257
190 252 m 256
 190 413 265 520 378 520 c 256
 496 520 575 413 575 252 c 256
 575 90 496 -18 378 -18 c 256
 265 -18 190 90 190 252 c 256
382 252 m 256
 382 320 354 360 308 360 c 256
 261 360 233 320 233 252 c 256
 233 182 261 142 308 142 c 256
 354 142 382 182 382 252 c 256
EndSplineSet
EndChar

StartChar: three
Encoding: 51 51 341
GlifName: three
Width: 597
VWidth: 0
GlyphClass: 2
Flags: W
LayerCount: 2
Fore
SplineSet
375 396 m 261
 375 260 l 261
 246 260 l 261
 246 396 l 261
 375 396 l 261
315 290 m 261
 315 396 l 261
 343 396 359 414 359 446 c 260
 359 485 336 509 299 509 c 260
 262 509 239 485 238 445 c 261
 45 445 l 261
 55 573 159 658 305 658 c 260
 449 658 552 576 552 463 c 260
 552 356 461 290 315 290 c 261
315 366 m 261
 464 366 562 293 562 181 c 260
 562 69 462 -8 316 -8 c 260
 159 -8 46 81 35 212 c 261
 228 212 l 261
 233 168 261 143 304 143 c 260
 345 143 369 166 369 206 c 260
 369 241 349 260 315 260 c 261
 315 366 l 261
EndSplineSet
Substitution2: "'sups' Superscript in Latin lookup 15-1" uni00B3
Substitution2: "'subs' Subscript in Latin lookup 14-1" uni2083
Substitution2: "'numr' Numerators in Latin lookup 13-1" three.numr
Substitution2: "'dnom' Denominators in Latin lookup 12-1" three.dnom
Substitution2: "'tnum' Tabular Numbers in Latin lookup 11-1" three.tabl
EndChar

StartChar: tildecomb
Encoding: 771 771 342
GlifName: tildecomb
Width: 300
VWidth: 0
GlyphClass: 4
Flags: W
AnchorPoint: "top1" 156 500 mark 0
LayerCount: 2
Fore
SplineSet
44 690 m 256
 99 690 129 671 158 655 c 256
 177 645 194 636 217 636 c 256
 253 636 274 654 274 684 c 257
 377 684 l 257
 377 564 324 496 230 496 c 256
 186 496 159 511 136 525 c 256
 115 538 97 550 73 550 c 256
 44 550 25 530 25 500 c 257
 -80 500 l 257
 -80 625 -37 690 44 690 c 256
EndSplineSet
EndChar

StartChar: two
Encoding: 50 50 343
GlifName: two
Width: 587
VWidth: 0
GlyphClass: 2
Flags: W
LayerCount: 2
Fore
SplineSet
271 168 m 261
 548 168 l 261
 548 0 l 261
 35 0 l 261
 35 34 l 261
 35 242 143 314 235 357 c 260
 301 388 359 404 359 445 c 260
 359 481 335 501 297 501 c 260
 256 501 230 472 228 425 c 261
 35 425 l 261
 45 563 146 658 285 658 c 260
 446 658 552 573 552 445 c 260
 552 338 472 288 398 253 c 260
 333 222 271 204 271 168 c 261
EndSplineSet
Substitution2: "'sups' Superscript in Latin lookup 15-1" uni00B2
Substitution2: "'subs' Subscript in Latin lookup 14-1" uni2082
Substitution2: "'numr' Numerators in Latin lookup 13-1" two.numr
Substitution2: "'dnom' Denominators in Latin lookup 12-1" two.dnom
Substitution2: "'tnum' Tabular Numbers in Latin lookup 11-1" two.tabl
EndChar

StartChar: u
Encoding: 117 117 344
GlifName: u
Width: 596
VWidth: 0
GlyphClass: 2
Flags: W
AnchorPoint: "top3" 363 500 basechar 0
AnchorPoint: "bottom1" 307 0 basechar 0
AnchorPoint: "bottom2" 553 0 basechar 0
AnchorPoint: "top1" 297 560 basechar 0
LayerCount: 2
Fore
SplineSet
233 220 m 262
 233 171 259 150 300 150 c 260
 336 150 363 177 363 214 c 261
 402 208 l 261
 402 66 307 -20 219 -20 c 260
 117 -20 43 51 43 180 c 262
 43 500 l 261
 233 500 l 261
 233 220 l 262
553 0 m 261
 363 0 l 261
 363 500 l 261
 553 500 l 261
 553 0 l 261
EndSplineSet
Substitution2: "ss10StyleSet10inLatinlookup9 subtable" u.ss10
EndChar

StartChar: u.ss10
Encoding: 1114178 -1 345
GlifName: u.ss10
Width: 596
VWidth: 0
GlyphClass: 2
Flags: W
HStem: -8 180<251.059 343.817> 480 20G<43 233 363 553>
VStem: 43 190<189.417 500> 363 190<189.417 500>
AnchorPoint: "bottom2" 366 0 basechar 0
AnchorPoint: "top3" 363 500 basechar 0
AnchorPoint: "top1" 297 560 basechar 0
AnchorPoint: "bottom1" 307 0 basechar 0
LayerCount: 2
Fore
SplineSet
43 500 m 257
 233 500 l 257
 233 252 l 258
 233 201 258 172 300 172 c 256
 340 172 363 201 363 252 c 258
 363 500 l 257
 553 500 l 257
 553 252 l 258
 553 96 451 -8 300 -8 c 256
 146 -8 43 96 43 252 c 258
 43 500 l 257
EndSplineSet
EndChar

StartChar: underscore
Encoding: 95 95 355
GlifName: underscore
Width: 640
VWidth: 0
GlyphClass: 2
Flags: W
LayerCount: 2
Fore
SplineSet
25 0 m 257
 615 0 l 257
 615 -134 l 257
 25 -134 l 257
 25 0 l 257
EndSplineSet
EndChar

StartChar: uni0237
Encoding: 567 567 378
GlifName: uni0237
Width: 276
VWidth: 0
GlyphClass: 2
Flags: W
HStem: 480 20<43 233 233 233>
VStem: 43 190<4 500>
AnchorPoint: "top1" 142 560 basechar 0
LayerCount: 2
Fore
SplineSet
-28 -32 m 257
 3 -32 l 258
 31 -32 43 -21 43 4 c 258
 43 500 l 257
 233 500 l 257
 233 -2 l 258
 233 -126 159 -200 34 -200 c 258
 -28 -200 l 257
 -28 -32 l 257
EndSplineSet
PickledDataWithLists: "(dp0
Vcom.fontlab.hintData\\u000d\\u000d\\u000d\\u000d
p1
(dp2
Vhhints\\u000d\\u000d\\u000d\\u000d
p3
(lp4
(dp5
Vposition\\u000d\\u000d\\u000d\\u000d
p6
I480
sVwidth\\u000d\\u000d\\u000d\\u000d
p7
I20
sasVvhints\\u000d\\u000d\\u000d\\u000d
p8
(lp9
(dp10
g6
I43
sg7
I190
sass."
EndChar

StartChar: uni02BC
Encoding: 700 700 379
GlifName: uni02B_C_
Width: 233
VWidth: 0
GlyphClass: 2
Flags: W
LayerCount: 2
Fore
SplineSet
29 700 m 257
 233 700 l 257
 233 471 l 258
 233 390.304 178 343 84 343 c 258
 32 343 l 257
 32 431 l 257
 53 431 l 258
 115 431 143 444.964 143 477 c 258
 143 503 l 257
 29 503 l 257
 29 700 l 257
EndSplineSet
EndChar

StartChar: uni0302
Encoding: 770 770 380
GlifName: uni0302
Width: 300
VWidth: 0
GlyphClass: 4
Flags: W
AnchorPoint: "top1" 156 500 mark 0
LayerCount: 2
Fore
SplineSet
61 700 m 257
 241 700 l 257
 381 500 l 257
 211 500 l 257
 151 606 l 257
 91 500 l 257
 -79 500 l 257
 61 700 l 257
EndSplineSet
EndChar

StartChar: uni0304
Encoding: 772 772 381
GlifName: uni0304
Width: 300
VWidth: 0
GlyphClass: 4
Flags: W
AnchorPoint: "top1" 156 500 mark 0
LayerCount: 2
Fore
SplineSet
-30 646 m 257
 330 646 l 257
 330 510 l 257
 -30 510 l 257
 -30 646 l 257
EndSplineSet
EndChar

StartChar: uni0306
Encoding: 774 774 382
GlifName: uni0306
Width: 300
VWidth: 0
GlyphClass: 4
Flags: W
AnchorPoint: "top1" 156 500 mark 0
LayerCount: 2
Fore
SplineSet
375 683 m 257
 359.83 569 270.346 493 152 493 c 256
 32.4516 493 -56.8649 569 -72 683 c 257
 86 683 l 257
 92.2857 645 116.8 623 152 623 c 256
 187 623 210.75 645 217 683 c 257
 375 683 l 257
EndSplineSet
EndChar

StartChar: uni0307
Encoding: 775 775 383
GlifName: uni0307
Width: 300
VWidth: 0
GlyphClass: 4
Flags: W
AnchorPoint: "top1" 156 500 mark 0
LayerCount: 2
Fore
SplineSet
51 697 m 257
 255 697 l 257
 255 500 l 257
 51 500 l 257
 51 697 l 257
EndSplineSet
Substitution2: "ss03StyleSet3inLatinlookup2 subtable" uni0307.ss03
EndChar

StartChar: uni0307.ss03
Encoding: 1114190 -1 384
GlifName: uni0307.ss03
Width: 300
VWidth: 0
GlyphClass: 4
Flags: W
AnchorPoint: "top1" 156 500 mark 0
LayerCount: 2
Fore
SplineSet
47 602 m 256
 47 662 95 710 155 710 c 256
 215 710 263 662 263 602 c 256
 263 542 215 494 155 494 c 256
 95 494 47 542 47 602 c 256
EndSplineSet
EndChar

StartChar: uni0308
Encoding: 776 776 385
GlifName: uni0308
Width: 300
VWidth: 0
GlyphClass: 4
Flags: W
AnchorPoint: "top1" 156 500 mark 0
LayerCount: 2
Fore
SplineSet
192 677 m 257
 376 677 l 257
 376 500 l 257
 192 500 l 257
 192 677 l 257
-66 677 m 257
 118 677 l 257
 118 500 l 257
 -66 500 l 257
 -66 677 l 257
EndSplineSet
Substitution2: "ss03StyleSet3inLatinlookup2 subtable" uni0308.ss03
EndChar

StartChar: uni0308.ss03
Encoding: 1114191 -1 386
GlifName: uni0308.ss03
Width: 300
VWidth: 0
GlyphClass: 4
Flags: W
AnchorPoint: "top1" 156 500 mark 0
LayerCount: 2
Fore
SplineSet
-103 602 m 256
 -103 662 -55 710 5 710 c 256
 65 710 113 662 113 602 c 256
 113 542 65 494 5 494 c 256
 -55 494 -103 542 -103 602 c 256
187 602 m 256
 187 662 235 710 295 710 c 256
 355 710 403 662 403 602 c 256
 403 542 355 494 295 494 c 256
 235 494 187 542 187 602 c 256
EndSplineSet
EndChar

StartChar: uni030A
Encoding: 778 778 387
GlifName: uni030A_
Width: 300
VWidth: 0
GlyphClass: 4
Flags: W
AnchorPoint: "top1" 156 500 mark 0
LayerCount: 2
Fore
SplineSet
102 653 m 256
 102 622.467 120.195 605 152 605 c 256
 183.089 605 201 622.545 201 653 c 256
 201 683.533 182.805 701 151 701 c 256
 119.911 701 102 683.455 102 653 c 256
319 653 m 256
 319 557.178 252.014 493 152 493 c 256
 51.1734 493 -16 556.975 -16 653 c 256
 -16 748.822 50.986 813 151 813 c 256
 251.827 813 319 749.025 319 653 c 256
EndSplineSet
EndChar

StartChar: uni030B
Encoding: 779 779 388
GlifName: uni030B_
Width: 300
VWidth: 0
GlyphClass: 4
Flags: W
AnchorPoint: "top1" 156 500 mark 0
LayerCount: 2
Fore
SplineSet
501 700 m 257
 341 500 l 257
 191 500 l 257
 291 700 l 257
 501 700 l 257
251 700 m 257
 91 500 l 257
 -59 500 l 257
 41 700 l 257
 251 700 l 257
EndSplineSet
EndChar

StartChar: uni030C
Encoding: 780 780 389
GlifName: uni030C_
Width: 300
VWidth: 0
GlyphClass: 4
Flags: W
AnchorPoint: "top1" 156 500 mark 0
LayerCount: 2
Fore
SplineSet
241 500 m 257
 61 500 l 257
 -79 700 l 257
 91 700 l 257
 151 594 l 257
 211 700 l 257
 381 700 l 257
 241 500 l 257
EndSplineSet
EndChar

StartChar: uni0312
Encoding: 786 786 390
GlifName: uni0312
Width: 300
VWidth: 0
GlyphClass: 4
Flags: W
AnchorPoint: "top1" 156 500 mark 0
LayerCount: 2
Fore
SplineSet
253 500 m 257
 49 500 l 257
 49 729 l 258
 49 809.696 104 857 198 857 c 258
 250 857 l 257
 250 769 l 257
 229 769 l 258
 167 769 139 755.036 139 723 c 258
 139 697 l 257
 253 697 l 257
 253 500 l 257
EndSplineSet
Substitution2: "ss03StyleSet3inLatinlookup2 subtable" uni0312.ss03
EndChar

StartChar: uni0312.ss03
Encoding: 1114192 -1 391
GlifName: uni0312.ss03
Width: 300
VWidth: 0
GlyphClass: 4
Flags: W
AnchorPoint: "top1" 156 500 mark 0
LayerCount: 2
Fore
SplineSet
274 608 m 256
 274 548 226 500 166 500 c 256
 106 500 58 548 58 608 c 258
 58 730 l 258
 58 817 113 868 207 868 c 258
 259 868 l 257
 259 780 l 257
 238 780 l 258
 176 780 148 763 148 724 c 258
 148 715 l 257
 154 716 160 716 166 716 c 256
 226 716 274 668 274 608 c 256
EndSplineSet
EndChar

StartChar: uni0313
Encoding: 787 787 392
GlifName: uni0313
Width: 300
VWidth: 0
GlyphClass: 4
Flags: W
AnchorPoint: "top1" 156 500 mark 0
LayerCount: 2
Fore
SplineSet
49 857 m 257
 253 857 l 257
 253 628 l 258
 253 547.304 198 500 104 500 c 258
 52 500 l 257
 52 588 l 257
 73 588 l 258
 135 588 163 601.964 163 634 c 258
 163 660 l 257
 49 660 l 257
 49 857 l 257
EndSplineSet
Substitution2: "ss03StyleSet3inLatinlookup2 subtable" uni0313.ss03
EndChar

StartChar: uni0313.ss03
Encoding: 1114193 -1 393
GlifName: uni0313.ss03
Width: 300
VWidth: 0
GlyphClass: 4
Flags: W
AnchorPoint: "top1" 156 500 mark 0
LayerCount: 2
Fore
SplineSet
58 760 m 256
 58 820 106 868 166 868 c 256
 226 868 274 820 274 760 c 258
 274 638 l 258
 274 551 219 500 125 500 c 258
 73 500 l 257
 73 588 l 257
 94 588 l 258
 156 588 184 605 184 644 c 258
 184 653 l 257
 178 652 172 652 166 652 c 256
 106 652 58 700 58 760 c 256
EndSplineSet
EndChar

StartChar: uni0315
Encoding: 789 789 394
GlifName: uni0315
Width: 300
VWidth: 0
GlyphClass: 4
Flags: W
AnchorPoint: "top2" 124 500 mark 0
LayerCount: 2
Fore
SplineSet
162 783 m 257
 324 783 l 257
 281 500 l 257
 124 500 l 257
 162 783 l 257
EndSplineSet
EndChar

StartChar: uni031B
Encoding: 795 795 395
GlifName: uni031B_
Width: 300
VWidth: 0
GlyphClass: 4
Flags: W
AnchorPoint: "top3" 76 548 mark 0
LayerCount: 2
Fore
SplineSet
76 548 m 257
 177 548 l 258
 205.333 548 227 558.316 227 604 c 258
 227 670 l 257
 367 670 l 257
 367 598 l 258
 367 485.119 273.394 450 188 450 c 258
 76 450 l 257
 76 548 l 257
EndSplineSet
EndChar

StartChar: uni0326
Encoding: 806 806 396
GlifName: uni0326
Width: 300
VWidth: 0
GlyphClass: 4
Flags: W
AnchorPoint: "bottom1" 160 0 mark 0
LayerCount: 2
Fore
SplineSet
54 -28 m 257
 258 -28 l 257
 258 -257 l 258
 258 -337.696 203 -385 109 -385 c 258
 57 -385 l 257
 57 -297 l 257
 78 -297 l 258
 140 -297 168 -283.036 168 -251 c 258
 168 -225 l 257
 54 -225 l 257
 54 -28 l 257
EndSplineSet
Substitution2: "ss03StyleSet3inLatinlookup2 subtable" uni0326.ss03
EndChar

StartChar: uni0326.ss03
Encoding: 1114194 -1 397
GlifName: uni0326.ss03
Width: 300
VWidth: 0
GlyphClass: 4
Flags: W
AnchorPoint: "bottom1" 160 0 mark 0
LayerCount: 2
Fore
SplineSet
52 -146 m 256
 52 -86 100 -38 160 -38 c 256
 220 -38 268 -86 268 -146 c 258
 268 -268 l 258
 268 -355 213 -406 119 -406 c 258
 67 -406 l 257
 67 -318 l 257
 88 -318 l 258
 150 -318 178 -301 178 -262 c 258
 178 -253 l 257
 172 -254 166 -254 160 -254 c 256
 100 -254 52 -206 52 -146 c 256
EndSplineSet
EndChar

StartChar: uni0327
Encoding: 807 807 398
GlifName: uni0327
Width: 300
VWidth: 0
GlyphClass: 4
Flags: W
AnchorPoint: "bottom1" 160 0 mark 0
LayerCount: 2
Fore
SplineSet
117 10 m 257
 214 10 l 257
 175 -55 l 257
 189 -55 l 258
 255.89 -55 301 -103.332 301 -175 c 256
 301 -243.253 235.77 -287 134 -287 c 258
 45 -287 l 257
 45 -157 l 257
 126 -157 l 258
 146.78 -157 158 -148.935 158 -134 c 256
 158 -122.054 148.347 -115 132 -115 c 258
 98 -115 l 257
 73 -75 l 257
 117 10 l 257
EndSplineSet
EndChar

StartChar: uni0328
Encoding: 808 808 399
GlifName: uni0328
Width: 300
VWidth: 0
GlyphClass: 4
Flags: W
HStem: -266 140<120.426 238> -20 20G<53.9777 196>
VStem: -18 133<-177.002 -62.9251>
AnchorPoint: "bottom2" 196 0 mark 0
LayerCount: 2
Fore
SplineSet
196 0 m 257
 128.97370297 -35.0122149533 115 -56.2316775701 115 -87 c 260
 115 -112.324881356 133.233222222 -126 167 -126 c 258
 238 -126 l 257
 238 -266 l 257
 159 -266 l 258
 51.1354812183 -266 -18 -216.003891892 -18 -138 c 260
 -18 -66.6355708861 28.95541 -26.6023822785 79 0 c 257
 196 0 l 257
EndSplineSet
EndChar

StartChar: uni1E9E
Encoding: 7838 7838 400
GlifName: uni1E_9E_
Width: 685
VWidth: 0
GlyphClass: 2
Flags: W
LayerCount: 2
Fore
SplineSet
646 480 m 257
 569.008 505.189 486.456 523 387 523 c 256
 280.701 523 235 481.809 235 386 c 258
 235 0 l 257
 45 0 l 257
 45 392 l 258
 45 575.944 160.499 671 384 671 c 256
 484.622 671 568.502 651.946 646 625 c 257
 646 480 l 257
534.121 367.576 m 257
 617.008 350.696 670 284.053 670 191 c 256
 670 76.3836 582.419 -1.60936e-14 451 0 c 258
 321 0 l 257
 321 150 l 257
 403 150 l 258
 456.476 150 487 168.169 487 200 c 256
 487 233.075 455.337 252 400 252 c 258
 331 252 l 257
 331 382 l 257
 506 552 l 257
 646 480 l 257
 534.121 367.576 l 257
EndSplineSet
EndChar

StartChar: uni1EA1.ss01.ss03
Encoding: 1114197 -1 405
GlifName: uni1E_A_1.ss01.ss03
Width: 608
VWidth: 0
GlyphClass: 2
Flags: W
AnchorPoint: "top1" 308 560 basechar 0
LayerCount: 2
Fore
SplineSet
213 -154 m 256
 213 -94 261 -46 321 -46 c 256
 381 -46 429 -94 429 -154 c 256
 429 -214 381 -262 321 -262 c 256
 261 -262 213 -214 213 -154 c 256
EndSplineSet
Refer: 132 -1 N 1 0 0 1 0 0 2
EndChar

StartChar: uni201F
Encoding: 8223 8223 528
GlifName: uni201F_
Width: 551
VWidth: 0
GlyphClass: 2
Flags: W
LayerCount: 2
Fore
SplineSet
511 700 m 257
 511 503 l 257
 391 503 l 257
 516 318 l 257
 385 318 l 257
 307 503 l 257
 307 700 l 257
 511 700 l 257
235 700 m 257
 235 503 l 257
 115 503 l 257
 240 318 l 257
 109 318 l 257
 31 503 l 257
 31 700 l 257
 235 700 l 257
EndSplineSet
Substitution2: "ss03StyleSet3inLatinlookup2 subtable" uni201F.ss03
EndChar

StartChar: uni201F.ss03
Encoding: 1114234 -1 529
GlifName: uni201F_.ss03
Width: 551
VWidth: 0
GlyphClass: 2
Flags: W
LayerCount: 2
Fore
SplineSet
521 592 m 256
 521 532 473 484 413 484 c 256
 407 484 401 484 395 485 c 257
 395 476 l 258
 395 428.643 423 408 485 408 c 258
 506 408 l 257
 506 320 l 257
 454 320 l 258
 360 320 305 375.435 305 470 c 258
 305 592 l 258
 305 652 353 700 413 700 c 256
 473 700 521 652 521 592 c 256
246 592 m 256
 246 532 198 484 138 484 c 256
 132 484 126 484 120 485 c 257
 120 476 l 258
 120 428.643 148 408 210 408 c 258
 231 408 l 257
 231 320 l 257
 179 320 l 258
 85 320 30 375.435 30 470 c 258
 30 592 l 258
 30 652 78 700 138 700 c 256
 198 700 246 652 246 592 c 256
EndSplineSet
EndChar

StartChar: uni2034
Encoding: 8244 8244 530
GlifName: uni2034
Width: 901
VWidth: 0
GlyphClass: 2
Flags: W
LayerCount: 2
Fore
SplineSet
365 700 m 257
 175 500 l 257
 25 500 l 257
 155 700 l 257
 365 700 l 257
877 700 m 257
 687 500 l 257
 537 500 l 257
 667 700 l 257
 877 700 l 257
621 700 m 257
 431 500 l 257
 281 500 l 257
 411 700 l 257
 621 700 l 257
EndSplineSet
EndChar

StartChar: uni2035
Encoding: 8245 8245 531
GlifName: uni2035
Width: 390
VWidth: 0
GlyphClass: 2
Flags: W
LayerCount: 2
Fore
SplineSet
25 700 m 257
 235 700 l 257
 365 500 l 257
 215 500 l 257
 25 700 l 257
EndSplineSet
EndChar

StartChar: uni2036
Encoding: 8246 8246 532
GlifName: uni2036
Width: 645
VWidth: 0
GlyphClass: 2
Flags: W
LayerCount: 2
Fore
SplineSet
25 700 m 257
 235 700 l 257
 365 500 l 257
 215 500 l 257
 25 700 l 257
281 700 m 257
 491 700 l 257
 621 500 l 257
 471 500 l 257
 281 700 l 257
EndSplineSet
EndChar

StartChar: uni2037
Encoding: 8247 8247 533
GlifName: uni2037
Width: 901
VWidth: 0
GlyphClass: 2
Flags: W
LayerCount: 2
Fore
SplineSet
537 700 m 257
 747 700 l 257
 877 500 l 257
 727 500 l 257
 537 700 l 257
25 700 m 257
 235 700 l 257
 365 500 l 257
 215 500 l 257
 25 700 l 257
281 700 m 257
 491 700 l 257
 621 500 l 257
 471 500 l 257
 281 700 l 257
EndSplineSet
EndChar

StartChar: v
Encoding: 118 118 537
GlifName: v
Width: 591
VWidth: 0
GlyphClass: 2
Flags: W
LayerCount: 2
Fore
SplineSet
25 500 m 257
 222 500 l 257
 297 166 l 257
 368 500 l 257
 566 500 l 257
 404 0 l 257
 187 0 l 257
 25 500 l 257
EndSplineSet
EndChar

StartChar: w
Encoding: 119 119 538
GlifName: w
Width: 909
VWidth: 0
GlyphClass: 2
Flags: W
AnchorPoint: "top1" 450 560 basechar 0
LayerCount: 2
Fore
SplineSet
25 500 m 257
 222 500 l 257
 278 181 l 257
 345 500 l 257
 562 500 l 257
 633 181 l 257
 687 500 l 257
 884 500 l 257
 735 0 l 257
 517 0 l 257
 449 313 l 257
 395 0 l 257
 167 0 l 257
 25 500 l 257
EndSplineSet
EndChar

StartChar: x
Encoding: 120 120 540
GlifName: x
Width: 581
VWidth: 0
GlyphClass: 2
Flags: W
LayerCount: 2
Fore
SplineSet
25 500 m 257
 222 500 l 257
 292 346 l 257
 358 500 l 257
 556 500 l 257
 433 250 l 257
 556 0 l 257
 359 0 l 257
 289 154 l 257
 223 0 l 257
 25 0 l 257
 148 250 l 257
 25 500 l 257
EndSplineSet
EndChar

StartChar: y
Encoding: 121 121 541
GlifName: y
Width: 611
VWidth: 0
GlyphClass: 2
Flags: W
AnchorPoint: "bottom1" 537 0 basechar 0
AnchorPoint: "top1" 308 560 basechar 0
LayerCount: 2
Fore
SplineSet
61 -22 m 257
 122 -22 l 258
 152 -22 170 -12 179 10 c 258
 187 30 l 257
 25 500 l 257
 222 500 l 257
 307 206 l 257
 388 500 l 257
 586 500 l 257
 422 -6 l 258
 379 -139 312 -184 156 -184 c 258
 61 -184 l 257
 61 -22 l 257
EndSplineSet
Substitution2: "ss07StyleSet7inLatinlookup6 subtable" y.ss07
EndChar

StartChar: y.ss07
Encoding: 1114235 -1 542
GlifName: y.ss07
Width: 611
VWidth: 0
GlyphClass: 2
Flags: HW
AnchorPoint: "top1" 308 560 basechar 0
AnchorPoint: "bottom1" 537 0 basechar 0
LayerCount: 2
Fore
SplineSet
136 -176 m 257
 205 30 l 257
 25 500 l 257
 222 500 l 257
 307 226 l 257
 388 500 l 257
 586 500 l 257
 361 -176 l 257
 136 -176 l 257
EndSplineSet
EndChar

StartChar: z
Encoding: 122 122 548
GlifName: z
Width: 522
VWidth: 0
GlyphClass: 2
Flags: W
AnchorPoint: "top1" 270 560 basechar 0
LayerCount: 2
Fore
SplineSet
43 500 m 257
 479 500 l 257
 479 332 l 257
 260 138 l 257
 479 138 l 257
 479 0 l 257
 43 0 l 257
 43 168 l 257
 261 362 l 257
 43 362 l 257
 43 500 l 257
EndSplineSet
EndChar

StartChar: zero
Encoding: 48 48 553
GlifName: zero
Width: 645
VWidth: 0
GlyphClass: 2
Flags: W
LayerCount: 2
Fore
SplineSet
35 317 m 256
 35 533 142 660 323 660 c 256
 504 660 610 533 610 317 c 256
 610 112 504 -8 323 -8 c 256
 141 -8 35 112 35 317 c 256
417 317 m 256
 417 432 386 490 323 490 c 256
 260 490 228 432 228 317 c 256
 228 213 259 162 323 162 c 256
 386 162 417 213 417 317 c 256
EndSplineSet
Substitution2: "'sups' Superscript in Latin lookup 15-1" uni2070
Substitution2: "'subs' Subscript in Latin lookup 14-1" uni2080
Substitution2: "'numr' Numerators in Latin lookup 13-1" zero.numr
Substitution2: "'dnom' Denominators in Latin lookup 12-1" zero.dnom
Substitution2: "'zero' Slashed Zero in Latin lookup 10-1" zero.slsh
Substitution2: "'tnum' Tabular Numbers in Latin lookup 11-1" zero.tabl
EndChar

StartChar: tbar.ss08
Encoding: 1114255 -1 571
GlifName: tbar.ss08
Width: 378
VWidth: 0
Flags: HW
LayerCount: 2
Fore
SplineSet
23 313 m 261
 355 313 l 261
 355 215 l 261
 23 215 l 261
 23 313 l 261
23 500 m 257
 355 500 l 257
 355 352 l 257
 23 352 l 257
 23 500 l 257
94 0 m 257
 94 630 l 257
 284 630 l 257
 284 0 l 257
 94 0 l 257
EndSplineSet
EndChar

StartChar: Gdotaccent.ss04.ss03
Encoding: 1114274 -1 590
GlifName: G_dotaccent.ss04.ss03
Width: 667
VWidth: 0
Flags: W
HStem: -8 170<280.034 407.637> 251 131<310 438> 491 169<276.333 406.714> 694.333 216<263.23 392.77>
VStem: 35 193<221.881 432.965> 220 216<737.563 867.103>
LayerCount: 2
Fore
SplineSet
220 802.333007812 m 256xf4
 220 862.333007812 268 910.333007812 328 910.333007812 c 256
 388 910.333007812 436 862.333007812 436 802.333007812 c 256
 436 742.333007812 388 694.333007812 328 694.333007812 c 256
 268 694.333007812 220 742.333007812 220 802.333007812 c 256xf4
EndSplineSet
Refer: 39 -1 N 1 0 0 1 0 0 3
EndChar

StartChar: uni0122.ss04.ss03
Encoding: 1114275 -1 591
GlifName: uni0122.ss04.ss03
Width: 667
VWidth: 0
Flags: HW
LayerCount: 2
Fore
SplineSet
244 -146 m 260
 244 -86 292 -38 352 -38 c 260
 412 -38 460 -86 460 -146 c 262
 460 -268 l 262
 460 -355 405 -406 311 -406 c 262
 259 -406 l 261
 259 -318 l 261
 280 -318 l 262
 342 -318 370 -301 370 -262 c 262
 370 -253 l 261
 364 -254 358 -254 352 -254 c 260
 292 -254 244 -206 244 -146 c 260
EndSplineSet
Refer: 39 -1 N 1 0 0 1 0 0 3
EndChar

StartChar: uni0156.ss05.ss03
Encoding: 1114276 -1 592
GlifName: uni0156.ss05.ss03
Width: 626
VWidth: 0
Flags: HW
LayerCount: 2
Fore
SplineSet
211 -146 m 256
 211 -86 259 -38 319 -38 c 256
 379 -38 427 -86 427 -146 c 258
 427 -268 l 258
 427 -355 372 -406 278 -406 c 258
 226 -406 l 257
 226 -318 l 257
 247 -318 l 258
 309 -318 337 -301 337 -262 c 258
 337 -253 l 257
 331 -254 325 -254 319 -254 c 256
 259 -254 211 -206 211 -146 c 256
EndSplineSet
Refer: 91 -1 N 1 0 0 1 0 0 3
EndChar

StartChar: ydieresis.ss07.ss03
Encoding: 1114277 -1 593
GlifName: ydieresis.ss07.ss03
Width: 611
VWidth: 0
Flags: HW
LayerCount: 2
Fore
SplineSet
53 660 m 260
 53 720 101 768 161 768 c 260
 221 768 269 720 269 660 c 260
 269 600 221 552 161 552 c 260
 101 552 53 600 53 660 c 260
343 660 m 260
 343 720 391 768 451 768 c 260
 511 768 559 720 559 660 c 260
 559 600 511 552 451 552 c 260
 391 552 343 600 343 660 c 260
EndSplineSet
Refer: 542 -1 N 1 0 0 1 0 0 3
EndChar

StartChar: uni1EF5.ss07.ss03
Encoding: 1114278 -1 594
GlifName: uni1E_F_5.ss07.ss03
Width: 611
VWidth: 0
Flags: HW
LayerCount: 2
Fore
SplineSet
418 -154 m 260
 418 -94 466 -46 526 -46 c 260
 586 -46 634 -94 634 -154 c 260
 634 -214 586 -262 526 -262 c 260
 466 -262 418 -214 418 -154 c 260
EndSplineSet
Refer: 542 -1 N 1 0 0 1 0 0 3
EndChar

StartChar: udieresis.ss10.ss03
Encoding: 1114279 -1 595
GlifName: udieresis.ss10.ss03
Width: 596
VWidth: 0
Flags: W
HStem: -8 180<251.059 343.817> 480 20G<43 233 363 553> 552 216<85.2301 214.77 375.23 504.77>
VStem: 42 216<595.23 724.77> 43 190<189.417 500> 332 216<595.23 724.77> 363 190<189.417 500>
LayerCount: 2
Fore
SplineSet
42 660 m 260xf0
 42 720 90 768 150 768 c 260
 210 768 258 720 258 660 c 260
 258 600 210 552 150 552 c 260
 90 552 42 600 42 660 c 260xf0
332 660 m 260xe4
 332 720 380 768 440 768 c 260
 500 768 548 720 548 660 c 260
 548 600 500 552 440 552 c 260
 380 552 332 600 332 660 c 260xe4
EndSplineSet
Refer: 345 -1 N 1 0 0 1 0 0 3
EndChar

StartChar: uni1EE5.ss10.ss03
Encoding: 1114280 -1 596
GlifName: uni1E_E_5.ss10.ss03
Width: 596
VWidth: 0
Flags: HW
LayerCount: 2
Fore
SplineSet
200 -154 m 260
 200 -94 248 -46 308 -46 c 260
 368 -46 416 -94 416 -154 c 260
 416 -214 368 -262 308 -262 c 260
 248 -262 200 -214 200 -154 c 260
EndSplineSet
Refer: 345 -1 N 1 0 0 1 0 0 3
EndChar

StartChar: uni1EF1.ss10.ss03
Encoding: 1114281 -1 597
GlifName: uni1E_F_1.ss10.ss03
Width: 632
Flags: HW
LayerCount: 2
Fore
SplineSet
200 -154 m 256
 200 -94 248 -46 308 -46 c 256
 368 -46 416 -94 416 -154 c 256
 416 -214 368 -262 308 -262 c 256
 248 -262 200 -214 200 -154 c 256
EndSplineSet
Refer: 582 -1 N 1 0 0 1 0 0 3
EndChar

StartChar: Gdotaccent.ss03.ss04
Encoding: 1114282 -1 598
GlifName: G_dotaccent.ss03.ss04
Width: 667
VWidth: 0
Flags: W
HStem: -8 170<280.034 407.637> 251 131<310 438> 491 169<276.333 406.714> 694.333 216<263.23 392.77>
VStem: 35 193<221.881 432.965> 220 216<737.563 867.103>
LayerCount: 2
Fore
SplineSet
220 802.333007812 m 256xf4
 220 862.333007812 268 910.333007812 328 910.333007812 c 256
 388 910.333007812 436 862.333007812 436 802.333007812 c 256
 436 742.333007812 388 694.333007812 328 694.333007812 c 256
 268 694.333007812 220 742.333007812 220 802.333007812 c 256xf4
EndSplineSet
Refer: 39 -1 N 1 0 0 1 0 0 3
Decomposition: "G+AwcA"
EndChar

StartChar: uni0122.ss03.ss04
Encoding: 1114283 -1 599
GlifName: uni0122.ss03.ss04
Width: 667
VWidth: 0
Flags: W
HStem: -406 88<259 355.931> -8 170<280.034 407.637> 251 131<310 438> 491 169<276.333 406.714>
VStem: 35 193<221.881 432.965> 244 216<-210.77 -81.2301> 370 90<-302.526 -253>
LayerCount: 2
Fore
SplineSet
244 -146 m 260xfc
 244 -86 292 -38 352 -38 c 260
 412 -38 460 -86 460 -146 c 262xfc
 460 -268 l 262
 460 -355 405 -406 311 -406 c 262
 259 -406 l 261
 259 -318 l 261
 280 -318 l 262
 342 -318 370 -301 370 -262 c 262
 370 -253 l 261xfa
 364 -254 358 -254 352 -254 c 260
 292 -254 244 -206 244 -146 c 260xfc
EndSplineSet
Refer: 39 -1 N 1 0 0 1 0 0 3
EndChar

StartChar: uni0156.ss03.ss05
Encoding: 1114284 -1 600
GlifName: uni0156.ss03.ss05
Width: 626
VWidth: 0
Flags: HW
LayerCount: 2
Fore
SplineSet
211 -146 m 256
 211 -86 259 -38 319 -38 c 256
 379 -38 427 -86 427 -146 c 258
 427 -268 l 258
 427 -355 372 -406 278 -406 c 258
 226 -406 l 257
 226 -318 l 257
 247 -318 l 258
 309 -318 337 -301 337 -262 c 258
 337 -253 l 257
 331 -254 325 -254 319 -254 c 256
 259 -254 211 -206 211 -146 c 256
EndSplineSet
Refer: 91 -1 N 1 0 0 1 0 0 3
EndChar

StartChar: uni1EF5.ss03.ss07
Encoding: 1114285 -1 601
GlifName: uni1E_F_5.ss03.ss07
Width: 611
VWidth: 0
Flags: HW
LayerCount: 2
Fore
SplineSet
418 -154 m 260
 418 -94 466 -46 526 -46 c 260
 586 -46 634 -94 634 -154 c 260
 634 -214 586 -262 526 -262 c 260
 466 -262 418 -214 418 -154 c 260
EndSplineSet
Refer: 542 -1 N 1 0 0 1 0 0 3
EndChar

StartChar: ydieresis.ss03.ss07
Encoding: 1114286 -1 602
GlifName: ydieresis.ss03.ss07
Width: 611
VWidth: 0
Flags: HW
LayerCount: 2
Fore
SplineSet
53 660 m 260
 53 720 101 768 161 768 c 260
 221 768 269 720 269 660 c 260
 269 600 221 552 161 552 c 260
 101 552 53 600 53 660 c 260
343 660 m 260
 343 720 391 768 451 768 c 260
 511 768 559 720 559 660 c 260
 559 600 511 552 451 552 c 260
 391 552 343 600 343 660 c 260
EndSplineSet
Refer: 542 -1 N 1 0 0 1 0 0 3
EndChar

StartChar: udieresis.ss03.ss10
Encoding: 1114287 -1 603
GlifName: udieresis.ss03.ss10
Width: 596
VWidth: 0
Flags: W
HStem: -8 180<251.059 343.817> 480 20G<43 233 363 553> 552 216<85.2301 214.77 375.23 504.77>
VStem: 42 216<595.23 724.77> 43 190<189.417 500> 332 216<595.23 724.77> 363 190<189.417 500>
LayerCount: 2
Fore
SplineSet
42 660 m 260xf0
 42 720 90 768 150 768 c 260
 210 768 258 720 258 660 c 260
 258 600 210 552 150 552 c 260
 90 552 42 600 42 660 c 260xf0
332 660 m 260xe4
 332 720 380 768 440 768 c 260
 500 768 548 720 548 660 c 260
 548 600 500 552 440 552 c 260
 380 552 332 600 332 660 c 260xe4
EndSplineSet
Refer: 345 -1 N 1 0 0 1 0 0 3
EndChar

StartChar: uni1EE5.ss03.ss10
Encoding: 1114288 -1 604
GlifName: uni1E_E_5.ss03.ss10
Width: 596
VWidth: 0
Flags: HW
LayerCount: 2
Fore
SplineSet
200 -154 m 260
 200 -94 248 -46 308 -46 c 260
 368 -46 416 -94 416 -154 c 260
 416 -214 368 -262 308 -262 c 260
 248 -262 200 -214 200 -154 c 260
EndSplineSet
Refer: 345 -1 N 1 0 0 1 0 0 3
EndChar

StartChar: uni1EF1.ss03.ss10
Encoding: 1114289 -1 605
GlifName: uni1E_F_1.ss03.ss10
Width: 632
Flags: HW
LayerCount: 2
Fore
SplineSet
200 -154 m 256
 200 -94 248 -46 308 -46 c 256
 368 -46 416 -94 416 -154 c 256
 416 -214 368 -262 308 -262 c 256
 248 -262 200 -214 200 -154 c 256
EndSplineSet
Refer: 582 -1 N 1 0 0 1 0 0 3
EndChar

StartChar: zero.slsh
Encoding: 1114290 -1 606
GlifName: zero.slsh
Width: 645
VWidth: 0
Flags: HW
LayerCount: 2
Fore
SplineSet
444 521 m 257
 510 461 l 257
 194 105 l 257
 128 165 l 257
 444 521 l 257
35 317 m 256
 35 533 142 660 323 660 c 256
 504 660 610 533 610 317 c 256
 610 112 504 -8 323 -8 c 256
 141 -8 35 112 35 317 c 256
417 317 m 256
 417 432 386 490 323 490 c 256
 260 490 228 432 228 317 c 256
 228 213 259 162 323 162 c 256
 386 162 417 213 417 317 c 256
EndSplineSet
Substitution2: "'tnum' Tabular Numbers in Latin lookup 11-1" zero.slsh.tabl
EndChar

StartChar: zero.tabl
Encoding: 1114291 -1 607
GlifName: zero.tabl
Width: 625
VWidth: 0
Flags: HW
LayerCount: 2
Fore
SplineSet
35 317 m 256
 35 533 138.284722222 660 313 660 c 260
 487.693379791 660 590 533 590 317 c 260
 590 112 487.693379791 -8 313 -8 c 260
 137.319444444 -8 35 112 35 317 c 256
397 317 m 260
 397 432 369.29787234 490 313 490 c 260
 256.631578947 490 228 432 228 317 c 256
 228 213 255.736842105 162 313 162 c 260
 369.29787234 162 397 213 397 317 c 260
EndSplineSet
EndChar

StartChar: one.tabl
Encoding: 1114292 -1 608
GlifName: one.tabl
Width: 625
VWidth: 0
Flags: HW
LayerCount: 2
Fore
SplineSet
225.5 650 m 1
 415.5 650 l 1
 415.5 168 l 1
 543.5 168 l 1
 543.5 0 l 1
 81.5 0 l 1
 81.5 168 l 1
 225.5 168 l 1
 225.5 380 l 1
 81.5 380 l 1
 81.5 543 l 1
 145.5 543 l 2
 197.5 543 225.5 558 225.5 610 c 2
 225.5 650 l 1
EndSplineSet
EndChar

StartChar: two.tabl
Encoding: 1114293 -1 609
GlifName: two.tabl
Width: 625
VWidth: 0
Flags: HW
LayerCount: 2
Fore
SplineSet
290 168 m 257
 567 168 l 257
 567 0 l 257
 54 0 l 257
 54 34 l 257
 54 242 162 314 254 357 c 256
 320 388 378 404 378 445 c 256
 378 481 354 501 316 501 c 256
 275 501 249 472 247 425 c 257
 54 425 l 257
 64 563 165 658 304 658 c 256
 465 658 571 573 571 445 c 256
 571 338 491 288 417 253 c 256
 352 222 290 204 290 168 c 257
EndSplineSet
EndChar

StartChar: three.tabl
Encoding: 1114294 -1 610
GlifName: three.tabl
Width: 625
VWidth: 0
Flags: HW
LayerCount: 2
Fore
SplineSet
389 396 m 257
 389 260 l 257
 260 260 l 257
 260 396 l 257
 389 396 l 257
329 290 m 257
 329 396 l 257
 357 396 373 414 373 446 c 256
 373 485 350 509 313 509 c 256
 276 509 253 485 252 445 c 257
 59 445 l 257
 69 573 173 658 319 658 c 256
 463 658 566 576 566 463 c 256
 566 356 475 290 329 290 c 257
329 366 m 257
 478 366 576 293 576 181 c 256
 576 69 476 -8 330 -8 c 256
 173 -8 60 81 49 212 c 257
 242 212 l 257
 247 168 275 143 318 143 c 256
 359 143 383 166 383 206 c 256
 383 241 363 260 329 260 c 257
 329 366 l 257
EndSplineSet
EndChar

StartChar: four.tabl
Encoding: 1114295 -1 611
GlifName: four.tabl
Width: 625
VWidth: 0
Flags: HW
LayerCount: 2
Fore
SplineSet
516 132 m 257
 516 0 l 257
 336 0 l 257
 336 132 l 257
 27 132 l 257
 27 329 l 257
 276 650 l 257
 516 650 l 257
 516 289 l 257
 598 289 l 257
 598 132 l 257
 516 132 l 257
336 289 m 257
 336 446 l 257
 219 289 l 257
 336 289 l 257
EndSplineSet
EndChar

StartChar: five.tabl
Encoding: 1114296 -1 612
GlifName: five.tabl
Width: 625
VWidth: 0
Flags: HW
LayerCount: 2
Fore
SplineSet
383 225 m 256
 383 178 358 152 313 152 c 256
 271 152 244 175 242 212 c 257
 49 212 l 257
 59 81 168 -8 320 -8 c 256
 476 -8 576 84 576 227 c 256
 576 355 498 443 386 443 c 256
 326 443 276 418 244 372 c 257
 260 493 l 257
 553 493 l 257
 553 651 l 257
 89 651 l 257
 49 268 l 257
 238 268 l 257
 252 293 277 306 308 306 c 256
 355 306 383 276 383 225 c 256
EndSplineSet
EndChar

StartChar: six.tabl
Encoding: 1114297 -1 613
GlifName: six.tabl
Width: 625
VWidth: 0
Flags: HW
LayerCount: 2
Fore
SplineSet
39 333 m 256
 39 537 146 660 325 660 c 256
 461 660 555 589 578 469 c 257
 385 469 l 257
 379 502 359 520 326 520 c 256
 270 520 232 458 232 365 c 256
 232 361 232 357 232 353 c 257
 257 398 316 426 383 426 c 256
 500 426 586 337 586 216 c 256
 586 84 482 -8 332 -8 c 256
 152 -8 39 124 39 333 c 256
254 211 m 256
 254 166 284 133 326 133 c 256
 366 133 393 163 393 209 c 256
 393 255 366 285 324 285 c 256
 282 285 254 255 254 211 c 256
EndSplineSet
EndChar

StartChar: seven.tabl
Encoding: 1114298 -1 614
GlifName: seven.tabl
Width: 625
VWidth: 0
Flags: HW
LayerCount: 2
Fore
SplineSet
380.5 0 m 257
 380.5 213 427.5 356 568.5 462 c 257
 568.5 650 l 257
 56.5 650 l 257
 56.5 472 l 257
 358.5 472 l 257
 245.5 372 152.5 249 152.5 0 c 257
 380.5 0 l 257
EndSplineSet
EndChar

StartChar: eight.tabl
Encoding: 1114299 -1 615
GlifName: eight.tabl
Width: 625
VWidth: 0
Flags: HW
LayerCount: 2
Fore
SplineSet
312 658 m 257
 312 513 l 257
 274 513 252 492 252 455 c 256
 252 418 273 397 310 397 c 257
 310 302 l 257
 143 302 69 371 69 476 c 256
 69 584 168 658 312 658 c 257
312 137 m 257
 312 -8 l 257
 156 -8 49 66 49 176 c 256
 49 283 131 352 310 352 c 257
 310 257 l 257
 266 257 242 236 242 198 c 256
 242 159 268 137 312 137 c 257
325 397 m 261
 325 257 l 261
 300 257 l 257
 300 397 l 257
 325 397 l 261
312 658 m 257
 457 658 556 584 556 475 c 256
 556 370 482 302 315 302 c 257
 315 397 l 257
 352 397 373 419 373 455 c 256
 373 492 351 513 312 513 c 257
 312 658 l 257
312 137 m 257
 357 137 383 159 383 198 c 256
 383 235 358 257 315 257 c 257
 315 352 l 257
 494 352 576 284 576 177 c 256
 576 67 469 -8 312 -8 c 257
 312 137 l 257
EndSplineSet
EndChar

StartChar: nine.tabl
Encoding: 1114300 -1 616
GlifName: nine.tabl
Width: 625
VWidth: 0
Flags: HW
LayerCount: 2
Fore
SplineSet
586 319 m 256
 586 115 479 -8 300 -8 c 256
 164 -8 70 63 47 183 c 257
 240 183 l 257
 246 150 266 132 299 132 c 256
 355 132 393 194 393 287 c 256
 393 291 393 295 393 299 c 257
 368 254 309 226 242 226 c 256
 125 226 39 315 39 436 c 256
 39 568 143 660 293 660 c 256
 473 660 586 528 586 319 c 256
371 441 m 256
 371 486 341 519 299 519 c 256
 259 519 232 489 232 443 c 256
 232 397 259 367 301 367 c 256
 343 367 371 397 371 441 c 256
EndSplineSet
EndChar

StartChar: zero.slsh.tabl
Encoding: 1114301 -1 617
GlifName: zero.slsh.tabl
Width: 625
VWidth: 0
Flags: HW
LayerCount: 2
Fore
SplineSet
434 521 m 257
 500 461 l 257
 184 105 l 257
 118 165 l 257
 434 521 l 257
25 317 m 256
 25 533 132 660 313 660 c 256
 494 660 600 533 600 317 c 256
 600 112 494 -8 313 -8 c 256
 131 -8 25 112 25 317 c 256
407 317 m 256
 407 432 376 490 313 490 c 256
 250 490 218 432 218 317 c 256
 218 213 249 162 313 162 c 256
 376 162 407 213 407 317 c 256
EndSplineSet
EndChar

StartChar: plus.tabl
Encoding: 1114302 -1 618
GlifName: plus.tabl
Width: 625
VWidth: 0
Flags: HW
LayerCount: 2
Fore
SplineSet
395.5 400 m 257
 581.5 400 l 257
 581.5 232 l 257
 395.5 232 l 257
 395.5 47 l 257
 227.5 47 l 257
 227.5 232 l 257
 43.5 232 l 257
 43.5 400 l 257
 227.5 400 l 257
 227.5 585 l 257
 395.5 585 l 257
 395.5 400 l 257
EndSplineSet
EndChar

StartChar: hyphen.tabl
Encoding: 1114303 -1 619
GlifName: hyphen.tabl
Width: 625
VWidth: 0
Flags: HW
LayerCount: 2
Fore
SplineSet
81.5 360 m 257
 543.5 360 l 257
 543.5 192 l 257
 81.5 192 l 257
 81.5 360 l 257
EndSplineSet
EndChar

StartChar: period.tabl
Encoding: 1114304 -1 620
GlifName: period.tabl
Width: 625
VWidth: 0
Flags: HW
LayerCount: 2
Fore
SplineSet
210.5 197 m 257
 414.5 197 l 257
 414.5 0 l 257
 210.5 0 l 257
 210.5 197 l 257
EndSplineSet
EndChar

StartChar: slash.tabl
Encoding: 1114305 -1 621
GlifName: slash.tabl
Width: 625
VWidth: 0
Flags: HW
LayerCount: 2
Fore
SplineSet
319.5 650 m 257
 529.5 650 l 257
 305.5 0 l 257
 95.5 0 l 257
 319.5 650 l 257
EndSplineSet
EndChar

StartChar: colon.tabl
Encoding: 1114306 -1 622
GlifName: colon.tabl
Width: 625
VWidth: 0
Flags: HW
LayerCount: 2
Fore
SplineSet
210.5 499 m 257
 414.5 499 l 257
 414.5 302 l 257
 210.5 302 l 257
 210.5 499 l 257
210.5 197 m 257
 414.5 197 l 257
 414.5 0 l 257
 210.5 0 l 257
 210.5 197 l 257
EndSplineSet
EndChar

StartChar: multiply.tabl
Encoding: 1114307 -1 623
GlifName: multiply.tabl
Width: 625
VWidth: 0
Flags: HW
LayerCount: 2
Fore
SplineSet
312.5 425 m 257
 444.5 566 l 257
 562.5 447 l 257
 422.5 316 l 257
 562.5 185 l 257
 444.5 66 l 257
 312.5 207 l 257
 182.5 66 l 257
 62.5 185 l 257
 204.5 316 l 257
 62.5 447 l 257
 182.5 566 l 257
 312.5 425 l 257
EndSplineSet
EndChar

StartChar: divide.tabl
Encoding: 1114308 -1 624
GlifName: divide.tabl
Width: 625
VWidth: 0
Flags: HW
LayerCount: 2
Fore
SplineSet
231.5 555 m 257
 395.5 555 l 257
 395.5 388 l 257
 231.5 388 l 257
 231.5 555 l 257
231.5 163 m 257
 395.5 163 l 257
 395.5 -4 l 257
 231.5 -4 l 257
 231.5 163 l 257
81.5 350 m 257
 543.5 350 l 257
 543.5 202 l 257
 81.5 202 l 257
 81.5 350 l 257
EndSplineSet
EndChar

StartChar: colon.ss03.tabl
Encoding: 1114309 -1 625
GlifName: colon.ss03.tabl
Width: 625
VWidth: 0
Flags: HW
LayerCount: 2
Fore
SplineSet
204.5 404 m 256
 204.5 464 252.5 512 312.5 512 c 256
 372.5 512 420.5 464 420.5 404 c 256
 420.5 344 372.5 296 312.5 296 c 256
 252.5 296 204.5 344 204.5 404 c 256
204.5 97 m 256
 204.5 157 252.5 205 312.5 205 c 256
 372.5 205 420.5 157 420.5 97 c 256
 420.5 37 372.5 -11 312.5 -11 c 256
 252.5 -11 204.5 37 204.5 97 c 256
EndSplineSet
EndChar

StartChar: divide.ss03.tabl
Encoding: 1114310 -1 626
GlifName: divide.ss03.tabl
Width: 625
VWidth: 0
Flags: HW
LayerCount: 2
Fore
SplineSet
205.5 478 m 256
 205.5 535 253.5 581 313.5 581 c 256
 373.5 581 421.5 535 421.5 478 c 256
 421.5 421 373.5 375 313.5 375 c 256
 253.5 375 205.5 421 205.5 478 c 256
205.5 73 m 256
 205.5 130 253.5 176 313.5 176 c 256
 373.5 176 421.5 130 421.5 73 c 256
 421.5 16 373.5 -30 313.5 -30 c 256
 253.5 -30 205.5 16 205.5 73 c 256
81.5 350 m 257
 543.5 350 l 257
 543.5 202 l 257
 81.5 202 l 257
 81.5 350 l 257
EndSplineSet
EndChar

StartChar: period.ss03.tabl
Encoding: 1114311 -1 627
GlifName: period.ss03.tabl
Width: 625
VWidth: 0
Flags: HW
LayerCount: 2
Fore
SplineSet
204.5 97 m 256
 204.5 157 252.5 205 312.5 205 c 256
 372.5 205 420.5 157 420.5 97 c 256
 420.5 37 372.5 -11 312.5 -11 c 256
 252.5 -11 204.5 37 204.5 97 c 256
EndSplineSet
EndChar

StartChar: cent
Encoding: 162 162 628
GlifName: cent
Width: 593
VWidth: 0
Flags: HW
LayerCount: 2
Fore
SplineSet
271 649.666992188 m 257
 331 649.666992188 l 257
 331 0 l 257
 271 0 l 257
 271 649.666992188 l 257
33 327 m 256
 33 488 139 595 300 595 c 256
 445 595 550 511 560 364 c 257
 377 364 l 257
 375.850746269 424.464788732 345.970149254 445 300 445 c 256
 246.648648649 445 216 402.388888889 216 327 c 256
 216 250.636363636 246.648648649 207 300 207 c 256
 344.820895522 207 374.701492537 223.258064516 377 279 c 257
 560 279 l 257
 546 135 444 57 300 57 c 256
 140 57 33 165 33 327 c 256
EndSplineSet
EndChar

StartChar: sterling
Encoding: 163 163 629
GlifName: sterling
Width: 634
Flags: HW
LayerCount: 2
Fore
SplineSet
40 388 m 1
 467 388 l 1
 467 260 l 1
 40 260 l 1
 40 388 l 1
401 462 m 1
 397.947619214 491.115156634 379.961590411 508 352 508 c 0
 324.158393305 508 308 484.496882464 308 444 c 2
 308 251 l 2
 308 220.119068809 297.623805741 184.866055974 264 168 c 5
 599 168 l 1
 599 0 l 1
 35 0 l 1
 35 174 l 1
 98.3798706634 191.312826392 118 227.403057664 118 259 c 2
 118 444 l 2
 118 572.195285252 209.819063914 658 347 658 c 0
 481.650498161 658 579.369679836 579.504263901 591 462 c 1
 401 462 l 1
EndSplineSet
EndChar

StartChar: currency
Encoding: 164 164 630
GlifName: currency
Width: 588
Flags: HW
LayerCount: 2
Fore
SplineSet
234 281 m 0
 234 240 257 215 295 215 c 0
 332 215 355 240 355 281 c 0
 355 321 331 347 294 347 c 0
 257 347 234 321 234 281 c 0
354 453 m 1
 425 529 l 1
 544 410 l 1
 472 343 l 1
 479 325 482 304 482 281 c 0
 482 259 478 237 471 216 c 1
 544 148 l 1
 425 29 l 1
 351 108 l 1
 334 103 316 101 295 101 c 0
 273 101 254 103 237 108 c 1
 163 29 l 1
 44 148 l 1
 118 216 l 1
 111 237 107 259 107 281 c 0
 107 301 110 321 117 342 c 1
 44 410 l 1
 163 529 l 1
 234 453 l 1
 254 458 274 461 294 461 c 0
 314 461 334 458 354 453 c 1
EndSplineSet
EndChar

StartChar: degree
Encoding: 176 176 631
GlifName: degree
Width: 425
Flags: HW
LayerCount: 2
Fore
SplineSet
162 491 m 0
 162 456.326853198 181.42259838 435 213 435 c 0
 243.877075195 435 263 456.417787064 263 491 c 0
 263 525.359647529 243.292100694 547 212 547 c 0
 181.403076172 547 162 525.268713663 162 491 c 0
400 491 m 0
 400 385.268930288 322.843519316 311 213 311 c 0
 102.33026123 311 25 385.040414663 25 491 c 0
 25 596.045522837 102.869694267 671 212 671 c 0
 321.952575684 671 400 596.274038462 400 491 c 0
EndSplineSet
EndChar

StartChar: yen
Encoding: 165 165 632
GlifName: yen
Width: 657
VWidth: 0
Flags: HW
LayerCount: 2
Fore
SplineSet
98 167 m 257
 560 167 l 257
 560 49 l 257
 98 49 l 257
 98 167 l 257
98 328 m 261
 560 328 l 261
 560 210 l 261
 98 210 l 261
 98 328 l 261
232 237 m 257
 15 650 l 257
 222 650 l 257
 330 411 l 257
 434 650 l 257
 642 650 l 257
 422 236 l 257
 422 0 l 257
 232 0 l 257
 232 237 l 257
EndSplineSet
EndChar

StartChar: brokenbar
Encoding: 166 166 633
GlifName: brokenbar
Width: 276
Flags: HW
LayerCount: 2
Fore
SplineSet
45 801 m 1
 231 801 l 5
 231 353 l 5
 45 353 l 1
 45 801 l 1
231 248 m 5
 231 -200 l 5
 45 -200 l 1
 45 248 l 1
 231 248 l 5
EndSplineSet
EndChar

StartChar: uni2070
Encoding: 8304 8304 634
GlifName: uni2070
Width: 461
VWidth: 364
Flags: HW
LayerCount: 2
Fore
SplineSet
33 554 m 260
 33 679 112 762 231 762 c 260
 349 762 428 679 428 554 c 260
 428 428 349 344 231 344 c 260
 112 344 33 428 33 554 c 260
285 554 m 260
 285 610 265 642 231 642 c 260
 196 642 176 610 176 554 c 260
 176 497 196 464 231 464 c 260
 265 464 285 497 285 554 c 260
EndSplineSet
EndChar

StartChar: uni2074
Encoding: 8308 8308 635
GlifName: uni2074
Width: 437
VWidth: 364
Flags: HW
LayerCount: 2
Fore
SplineSet
370 436 m 257
 370 364 l 257
 230 364 l 257
 230 436 l 257
 25 436 l 257
 25 553 l 257
 200 750 l 261
 370 750 l 257
 370 543 l 257
 422 543 l 257
 422 436 l 257
 370 436 l 257
230 543 m 257
 230 624 l 257
 167 543 l 257
 230 543 l 257
EndSplineSet
EndChar

StartChar: uni2075
Encoding: 8309 8309 636
GlifName: uni2075
Width: 447
VWidth: 364
Flags: HW
LayerCount: 2
Fore
SplineSet
259 488 m 256
 259 464.822265625 246.5 452 224 452 c 256
 202.704101562 452 189.013671875 463.116210938 188 481 c 257
 35 481 l 257
 42.232421875 400.61328125 121.06640625 346 231 346 c 256
 341.296875 346 412 403.940429688 412 494 c 256
 412 565.704101562 360.2734375 615 286 615 c 256
 246.704101562 615 213.958007812 604.7890625 193 586 c 257
 201 637 l 257
 389 637 l 257
 389 750 l 257
 75 750 l 257
 37 505 l 257
 186 505 l 257
 192.599609375 518.815429688 204.385742188 526 219 526 c 256
 244.06640625 526 259 511.92578125 259 488 c 256
EndSplineSet
EndChar

StartChar: uni2076
Encoding: 8310 8310 637
GlifName: uni2076
Width: 457
VWidth: 364
Flags: HW
LayerCount: 2
Fore
SplineSet
35 557 m 256
 35 684.889648438 107.954101562 762 230 762 c 256
 328.909179688 762 397.272460938 715.905273438 414 638 c 257
 261 638 l 257
 255.90234375 651.587890625 248.220703125 659 232 659 c 256
 205.787109375 659 188 627 188 579 c 256
 188 574 188 569 188 564 c 257
 206.377929688 598.520507812 249.748046875 620 299 620 c 256
 369.891601562 620 422 567.0234375 422 495 c 256
 422 413.088867188 350.755859375 356 248 356 c 256
 117.146484375 356 35 433.806640625 35 557 c 256
200 490 m 256
 200 470.961914062 215.416992188 457 237 457 c 256
 256.104492188 457 269 469.237304688 269 488 c 256
 269 506.762695312 255.6953125 519 235 519 c 256
 214 519 200 507.243164062 200 490 c 256
EndSplineSet
EndChar

StartChar: uni2077
Encoding: 8311 8311 638
GlifName: uni2077
Width: 454
VWidth: 364
Flags: HW
LayerCount: 2
Fore
SplineSet
288 364 m 257
 288 473.727539062 321.26953125 547.393554688 419 602 c 257
 419 750 l 257
 35 750 l 257
 35 612 l 257
 238 612 l 261
 162.483398438 559.458007812 101 494.830078125 101 364 c 257
 288 364 l 257
EndSplineSet
EndChar

StartChar: uni2078
Encoding: 8312 8312 639
GlifName: uni2078
Width: 447
VWidth: 364
Flags: HW
LayerCount: 2
Fore
SplineSet
223 762 m 257
 223 657 l 257
 200.7109375 657 188 646.763671875 188 628.814453125 c 256
 188 611.104492188 200.3515625 601 222 601 c 257
 222 546 l 257
 108.075195312 546 45 582.063476562 45 647.201171875 c 256
 45 715.846679688 116.561523438 762 223 762 c 257
223 461 m 257
 223 356 l 257
 110.229492188 356 35 402.623046875 35 472.51171875 c 256
 35 539.037109375 101.790039062 576 222 576 c 257
 222 521 l 257
 200.012695312 521 188 510.688476562 188 491.814453125 c 256
 188 472.3125 200.849609375 461 223 461 c 257
236 601 m 257
 236 521 l 257
 211 521 l 257
 211 601 l 257
 236 601 l 257
223 762 m 257
 330.21875 762 402 715.762695312 402 646.69921875 c 256
 402 581.619140625 339.392578125 546 225 546 c 257
 225 601 l 257
 246.399414062 601 259 611.379882812 259 629.006835938 c 256
 259 646.8828125 245.989257812 657 223 657 c 257
 223 762 l 257
223 461 m 257
 245.795898438 461 259 472.163085938 259 491.436523438 c 256
 259 510.159179688 246.532226562 521 225 521 c 257
 225 576 l 257
 345.59765625 576 412 539.532226562 412 473.301757812 c 256
 412 403.081054688 336.140625 356 223 356 c 257
 223 461 l 257
EndSplineSet
EndChar

StartChar: uni2079
Encoding: 8313 8313 640
GlifName: uni2079
Width: 457
VWidth: 364
Flags: HW
LayerCount: 2
Fore
SplineSet
422 561 m 256
 422 433.110351562 347.174804688 356 222 356 c 256
 120.403320312 356 50.181640625 402.094726562 33 480 c 257
 186 480 l 257
 188.625976562 464.412109375 199.219726562 459 216 459 c 256
 247.57421875 459 269 491 269 539 c 256
 269 544 269 549 269 554 c 257
 250.622070312 519.479492188 207.251953125 498 158 498 c 256
 87.1083984375 498 35 550.9765625 35 623 c 256
 35 704.911132812 106.244140625 762 209 762 c 256
 339.853515625 762 422 684.193359375 422 561 c 256
257 628 m 256
 257 647.038085938 241.583007812 661 220 661 c 256
 200.895507812 661 188 648.762695312 188 630 c 256
 188 611.237304688 201.3046875 599 222 599 c 256
 243 599 257 610.756835938 257 628 c 256
EndSplineSet
EndChar

StartChar: uni207A
Encoding: 8314 8314 641
GlifName: uni207A_
Width: 388
VWidth: 364
Flags: HW
LayerCount: 2
Fore
SplineSet
258 621 m 257
 363 621 l 257
 363 493 l 257
 258 493 l 257
 258 388 l 257
 130 388 l 257
 130 493 l 257
 25 493 l 257
 25 621 l 257
 130 621 l 257
 130 726 l 257
 258 726 l 257
 258 621 l 257
EndSplineSet
EndChar

StartChar: uni207B
Encoding: 8315 8315 642
GlifName: uni207B_
Width: 388
VWidth: 364
Flags: HW
LayerCount: 2
Fore
SplineSet
25 621 m 1
 363 621 l 1
 363 493 l 1
 25 493 l 1
 25 621 l 1
EndSplineSet
EndChar

StartChar: uni207C
Encoding: 8316 8316 643
GlifName: uni207C_
Width: 388
VWidth: 364
Flags: HW
LayerCount: 2
Fore
SplineSet
25 528 m 5
 363 528 l 5
 363 400 l 5
 25 400 l 5
 25 528 l 5
25 718 m 5
 363 718 l 5
 363 590 l 5
 25 590 l 5
 25 718 l 5
EndSplineSet
EndChar

StartChar: uni207D
Encoding: 8317 8317 644
GlifName: uni207D_
Width: 290
VWidth: 364
Flags: HW
LayerCount: 2
Fore
SplineSet
275 250 m 261
 124 250 l 261
 67.208984375 307.124023438 25 427.231445312 25 551 c 256
 25 674.768554688 67.208984375 794.875976562 124 852 c 257
 275 852 l 257
 210.079101562 789.749023438 178 682.825195312 178 551 c 256
 178 419.174804688 210.079101562 312.250976562 275 250 c 261
EndSplineSet
EndChar

StartChar: uni207E
Encoding: 8318 8318 645
GlifName: uni207E_
Width: 290
VWidth: 364
Flags: HW
LayerCount: 2
Fore
SplineSet
15 852 m 257
 166 852 l 257
 222.791015625 794.875976562 265 674.768554688 265 551 c 256
 265 427.231445312 222.791015625 307.124023438 166 250 c 257
 15 250 l 257
 79.9208984375 312.250976562 112 419.174804688 112 551 c 256
 112 682.825195312 79.9208984375 789.749023438 15 852 c 257
EndSplineSet
EndChar

StartChar: uni207F
Encoding: 8319 8319 646
GlifName: uni207F_
Width: 506
VWidth: 364
Flags: HW
LayerCount: 2
Fore
SplineSet
315 570 m 258
 315 618.97265625 290.888671875 640 253 640 c 256
 219.735351562 640 195 613.189453125 195 576 c 257
 156 582 l 257
 156 698.907226562 239.92578125 770 317 770 c 260
 402.856445312 770 465 712.819335938 465 610 c 258
 465 363 l 257
 315 363 l 257
 315 570 l 258
45 750 m 257
 195 750 l 257
 195 363 l 257
 45 363 l 257
 45 750 l 257
EndSplineSet
EndChar

StartChar: uni2080
Encoding: 8320 8320 647
GlifName: uni2080
Width: 461
VWidth: -100
Flags: HW
LayerCount: 2
Fore
SplineSet
33 90 m 260
 33 215 112 298 231 298 c 260
 349 298 428 215 428 90 c 260
 428 -36 349 -120 231 -120 c 260
 112 -120 33 -36 33 90 c 260
285 90 m 260
 285 146 265 178 231 178 c 260
 196 178 176 146 176 90 c 260
 176 33 196 0 231 0 c 260
 265 0 285 33 285 90 c 260
EndSplineSet
EndChar

StartChar: uni2081
Encoding: 8321 8321 648
GlifName: uni2081
Width: 325
VWidth: -100
Flags: HW
LayerCount: 2
Fore
SplineSet
130 286 m 257
 280 286 l 257
 280 -100 l 257
 130 -100 l 257
 130 91 l 257
 25 91 l 257
 25 212 l 257
 71 212 l 258
 109.834960938 212 130 224.08984375 130 266 c 258
 130 286 l 257
EndSplineSet
EndChar

StartChar: uni2082
Encoding: 8322 8322 649
GlifName: uni2082
Width: 447
VWidth: -100
Flags: HW
LayerCount: 2
Fore
SplineSet
201 18 m 257
 408 18 l 257
 408 -100 l 257
 35 -100 l 257
 35 -66 l 258
 35 75 117 109 182 127 c 0
 224 139 259 143 259 165 c 256
 259 182 247 191 227 191 c 256
 204 191 189 178 188 158 c 257
 35 158 l 257
 43 241 120 298 227 298 c 256
 339 298 412 245 412 165 c 256
 412 96 351 71 294 54 c 0
 255 42 217 34 201 18 c 257
EndSplineSet
EndChar

StartChar: uni2083
Encoding: 8323 8323 650
GlifName: uni2083
Width: 457
VWidth: -100
Flags: HW
LayerCount: 2
Fore
SplineSet
275 132 m 257
 275 55 l 257
 192 55 l 257
 192 132 l 257
 275 132 l 257
237 75 m 257
 237 132 l 257
 251.040039062 132 259 140.68359375 259 156 c 256
 259 176.389648438 245.625 189 224 189 c 256
 202.126953125 189 188.588867188 176.213867188 188 155 c 257
 35 155 l 257
 42.37890625 240.862304688 119.094726562 298 227 298 c 256
 334.530273438 298 412 249.423828125 412 182 c 256
 412 109.711914062 355.227539062 75 237 75 c 257
237 112 m 261
 358.993164062 112 422 73.85546875 422 0 c 256
 422 -64.048828125 349.155273438 -108 243 -108 c 256
 127.037109375 -108 43.16015625 -47.9150390625 35 41 c 257
 188 41 l 257
 191.009765625 16.8974609375 207.833007812 3 234 3 c 256
 256.149414062 3 269 12.9130859375 269 30 c 256
 269 45.97265625 257.4453125 55 237 55 c 257
 237 112 l 261
EndSplineSet
EndChar

StartChar: uni2084
Encoding: 8324 8324 651
GlifName: uni2084
Width: 437
VWidth: -100
Flags: HW
LayerCount: 2
Fore
SplineSet
370 -28 m 257
 370 -100 l 257
 230 -100 l 257
 230 -28 l 257
 25 -28 l 257
 25 89 l 257
 200 286 l 261
 370 286 l 257
 370 79 l 257
 422 79 l 257
 422 -28 l 257
 370 -28 l 257
230 79 m 257
 230 160 l 257
 167 79 l 257
 230 79 l 257
EndSplineSet
EndChar

StartChar: uni2085
Encoding: 8325 8325 652
GlifName: uni2085
Width: 447
VWidth: -100
Flags: HW
LayerCount: 2
Fore
SplineSet
259 24 m 256
 259 0.822265625 246.5 -12 224 -12 c 256
 202.704101562 -12 189.013671875 -0.8837890625 188 17 c 257
 35 17 l 257
 42.232421875 -63.38671875 121.06640625 -118 231 -118 c 256
 341.296875 -118 412 -60.0595703125 412 30 c 256
 412 101.704101562 360.2734375 151 286 151 c 256
 246.704101562 151 213.958007812 140.7890625 193 122 c 257
 201 173 l 257
 389 173 l 257
 389 286 l 257
 75 286 l 257
 37 41 l 257
 186 41 l 257
 192.599609375 54.8154296875 204.385742188 62 219 62 c 256
 244.06640625 62 259 47.92578125 259 24 c 256
EndSplineSet
EndChar

StartChar: uni2086
Encoding: 8326 8326 653
GlifName: uni2086
Width: 457
VWidth: -100
Flags: HW
LayerCount: 2
Fore
SplineSet
35 93 m 256
 35 220.889648438 107.954101562 298 230 298 c 256
 328.909179688 298 397.272460938 251.905273438 414 174 c 257
 261 174 l 257
 255.90234375 187.587890625 248.220703125 195 232 195 c 256
 205.787109375 195 188 163 188 115 c 256
 188 110 188 105 188 100 c 257
 206.377929688 134.520507812 249.748046875 156 299 156 c 256
 369.891601562 156 422 103.0234375 422 31 c 256
 422 -50.9111328125 350.755859375 -108 248 -108 c 256
 117.146484375 -108 35 -30.193359375 35 93 c 256
200 26 m 256
 200 6.9619140625 215.416992188 -7 237 -7 c 256
 256.104492188 -7 269 5.2373046875 269 24 c 256
 269 42.7626953125 255.6953125 55 235 55 c 256
 214 55 200 43.2431640625 200 26 c 256
EndSplineSet
EndChar

StartChar: uni2087
Encoding: 8327 8327 654
GlifName: uni2087
Width: 454
VWidth: -100
Flags: HW
LayerCount: 2
Fore
SplineSet
288 -100 m 257
 288 9.7275390625 321.26953125 83.3935546875 419 138 c 257
 419 286 l 257
 35 286 l 257
 35 148 l 257
 238 148 l 261
 162.483398438 95.4580078125 101 30.830078125 101 -100 c 257
 288 -100 l 257
EndSplineSet
EndChar

StartChar: uni2088
Encoding: 8328 8328 655
GlifName: uni2088
Width: 447
VWidth: -100
Flags: HW
LayerCount: 2
Fore
SplineSet
223 298 m 257
 223 193 l 257
 200.7109375 193 188 182.763671875 188 164.814453125 c 256
 188 147.104492188 200.3515625 137 222 137 c 257
 222 82 l 257
 108.075195312 82 45 118.063476562 45 183.201171875 c 256
 45 251.846679688 116.561523438 298 223 298 c 257
223 -3 m 257
 223 -108 l 257
 110.229492188 -108 35 -61.376953125 35 8.51171875 c 256
 35 75.037109375 101.790039062 112 222 112 c 257
 222 57 l 257
 200.012695312 57 188 46.6884765625 188 27.814453125 c 256
 188 8.3125 200.849609375 -3 223 -3 c 257
236 137 m 257
 236 57 l 257
 211 57 l 257
 211 137 l 257
 236 137 l 257
223 298 m 257
 330.21875 298 402 251.762695312 402 182.69921875 c 256
 402 117.619140625 339.392578125 82 225 82 c 257
 225 137 l 257
 246.399414062 137 259 147.379882812 259 165.006835938 c 256
 259 182.8828125 245.989257812 193 223 193 c 257
 223 298 l 257
223 -3 m 257
 245.795898438 -3 259 8.1630859375 259 27.4365234375 c 256
 259 46.1591796875 246.532226562 57 225 57 c 257
 225 112 l 257
 345.59765625 112 412 75.5322265625 412 9.3017578125 c 256
 412 -60.9189453125 336.140625 -108 223 -108 c 257
 223 -3 l 257
EndSplineSet
EndChar

StartChar: uni2089
Encoding: 8329 8329 656
GlifName: uni2089
Width: 457
VWidth: -100
Flags: HW
LayerCount: 2
Fore
SplineSet
422 97 m 256
 422 -30.8896484375 347.174804688 -108 222 -108 c 256
 120.403320312 -108 50.181640625 -61.9052734375 33 16 c 257
 186 16 l 257
 188.625976562 0.412109375 199.219726562 -5 216 -5 c 256
 247.57421875 -5 269 27 269 75 c 256
 269 80 269 85 269 90 c 257
 250.622070312 55.4794921875 207.251953125 34 158 34 c 256
 87.1083984375 34 35 86.9765625 35 159 c 256
 35 240.911132812 106.244140625 298 209 298 c 256
 339.853515625 298 422 220.193359375 422 97 c 256
257 164 m 256
 257 183.038085938 241.583007812 197 220 197 c 256
 200.895507812 197 188 184.762695312 188 166 c 256
 188 147.237304688 201.3046875 135 222 135 c 256
 243 135 257 146.756835938 257 164 c 256
EndSplineSet
EndChar

StartChar: uni208A
Encoding: 8330 8330 657
GlifName: uni208A_
Width: 388
VWidth: -100
Flags: HW
LayerCount: 2
Fore
SplineSet
258 157 m 257
 363 157 l 257
 363 29 l 257
 258 29 l 257
 258 -76 l 257
 130 -76 l 257
 130 29 l 257
 25 29 l 257
 25 157 l 257
 130 157 l 257
 130 262 l 257
 258 262 l 257
 258 157 l 257
EndSplineSet
EndChar

StartChar: uni208B
Encoding: 8331 8331 658
GlifName: uni208B_
Width: 388
VWidth: -100
Flags: HW
LayerCount: 2
Fore
SplineSet
25 157 m 1
 363 157 l 1
 363 29 l 1
 25 29 l 1
 25 157 l 1
EndSplineSet
EndChar

StartChar: uni208C
Encoding: 8332 8332 659
GlifName: uni208C_
Width: 388
VWidth: -100
Flags: HW
LayerCount: 2
Fore
SplineSet
25 64 m 5
 363 64 l 5
 363 -64 l 5
 25 -64 l 5
 25 64 l 5
25 254 m 5
 363 254 l 5
 363 126 l 5
 25 126 l 5
 25 254 l 5
EndSplineSet
EndChar

StartChar: uni208D
Encoding: 8333 8333 660
GlifName: uni208D_
Width: 290
VWidth: -100
Flags: HW
LayerCount: 2
Fore
SplineSet
275 -214 m 261
 124 -214 l 261
 67.208984375 -156.875976562 25 -36.7685546875 25 87 c 256
 25 210.768554688 67.208984375 330.875976562 124 388 c 257
 275 388 l 257
 210.079101562 325.749023438 178 218.825195312 178 87 c 256
 178 -44.8251953125 210.079101562 -151.749023438 275 -214 c 261
EndSplineSet
EndChar

StartChar: uni208E
Encoding: 8334 8334 661
GlifName: uni208E_
Width: 290
VWidth: -100
Flags: HW
LayerCount: 2
Fore
SplineSet
15 388 m 257
 166 388 l 257
 222.791015625 330.875976562 265 210.768554688 265 87 c 256
 265 -36.7685546875 222.791015625 -156.875976562 166 -214 c 257
 15 -214 l 257
 79.9208984375 -151.749023438 112 -44.8251953125 112 87 c 256
 112 218.825195312 79.9208984375 325.749023438 15 388 c 257
EndSplineSet
EndChar

StartChar: uni2099
Encoding: 8345 8345 662
GlifName: uni2099
Width: 506
VWidth: -100
Flags: HW
LayerCount: 2
Fore
SplineSet
315 106 m 258
 315 154.97265625 290.888671875 176 253 176 c 256
 219.735351562 176 195 149.189453125 195 112 c 257
 156 118 l 257
 156 234.907226562 239.92578125 306 317 306 c 260
 402.856445312 306 465 248.819335938 465 146 c 258
 465 -101 l 257
 315 -101 l 257
 315 106 l 258
45 286 m 257
 195 286 l 257
 195 -101 l 257
 45 -101 l 257
 45 286 l 257
EndSplineSet
EndChar

StartChar: uni2460
Encoding: 9312 9312 663
GlifName: uni2460
Width: 885
VWidth: 132
Flags: HW
LayerCount: 2
Fore
SplineSet
437.125976562 62 m 0
 596.611371506 62 705 168.971649381 705 326.372070312 c 0
 705 481.581980978 599.370717975 586 442.360351562 586 c 0
 284.739746941 586 180 480.346021505 180 321.349609375 c 0
 180 164.859312822 281.977409265 62 437.125976562 62 c 0
840 325.092773438 m 0
 840 96.3750182523 676.604790925 -60 437.619140625 -60 c 0
 202.064303051 -60 45 89.9342504816 45 314.795898438 c 0
 45 546.490635157 209.093010868 708 444.494140625 708 c 0
 678.020807144 708 840 551.180569827 840 325.092773438 c 0
390 518 m 261
 540 518 l 261
 540 132 l 261
 390 132 l 261
 390 323 l 261
 285 323 l 261
 285 444 l 261
 331 444 l 262
 370 444 390 456 390 498 c 262
 390 518 l 261
EndSplineSet
EndChar

StartChar: uni2461
Encoding: 9313 9313 664
GlifName: uni2461
Width: 885
VWidth: 132
Flags: HW
LayerCount: 2
Fore
SplineSet
437.125976562 62 m 4
 596.611371506 62 705 168.971649381 705 326.372070312 c 4
 705 481.581980978 599.370717975 586 442.360351562 586 c 4
 284.739746941 586 180 480.346021505 180 321.349609375 c 4
 180 164.859312822 281.977409265 62 437.125976562 62 c 4
840 325.092773438 m 4
 840 96.3750182523 676.604790925 -60 437.619140625 -60 c 4
 202.064303051 -60 45 89.9342504816 45 314.795898438 c 4
 45 546.490635157 209.093010868 708 444.494140625 708 c 4
 678.020807144 708 840 551.180569827 840 325.092773438 c 4
420 250 m 257
 627 250 l 257
 627 132 l 257
 254 132 l 257
 254 166 l 258
 254 274 297 330 401 359 c 0
 482 382 478 380 478 397 c 256
 478 414 466 423 446 423 c 256
 423 423 408 410 407 390 c 257
 254 390 l 257
 262 473 340 530 446 530 c 256
 558 530 631 477 631 397 c 256
 631 343 597 311 513 286 c 0
 420 257 432 262 420 250 c 257
EndSplineSet
EndChar

StartChar: uni2462
Encoding: 9314 9314 665
GlifName: uni2462
Width: 885
VWidth: 132
Flags: HW
LayerCount: 2
Fore
SplineSet
840 325.092773438 m 0
 840 96.3750182523 676.604790925 -60 437.619140625 -60 c 0
 202.064303051 -60 45 89.9342504816 45 314.795898438 c 0
 45 546.490635157 209.093010868 708 444.494140625 708 c 0
 678.020807144 708 840 551.180569827 840 325.092773438 c 0
437.125976562 62 m 0
 596.611371506 62 705 168.971649381 705 326.372070312 c 0
 705 481.581980978 599.370717975 586 442.360351562 586 c 0
 284.739746941 586 180 480.346021505 180 321.349609375 c 0
 180 164.859312822 281.977409265 62 437.125976562 62 c 0
568.489364257 326.023313154 m 1
 613.20628606 307.997356856 636 276.511168125 636 232 c 0
 636 168 563 124 457 124 c 0
 341 124 257 184 249 273 c 1
 402 273 l 1
 405 249 422 235 448 235 c 0
 470 235 483 245 483 262 c 0
 483 278 471 287 451 287 c 2
 406 287 l 1
 406 364 l 1
 451 364 l 2
 465 364 473 373 473 388 c 0
 473 408 460 421 438 421 c 0
 416 421 403 408 402 387 c 1
 249 387 l 1
 256 473 333 530 441 530 c 0
 548 530 626 481 626 414 c 0
 626 372.523512068 607.084674784 343.325393135 568.489364257 326.023313154 c 1
EndSplineSet
EndChar

StartChar: uni2463
Encoding: 9315 9315 666
GlifName: uni2463
Width: 885
VWidth: 132
Flags: HW
LayerCount: 2
Fore
SplineSet
437.125976562 62 m 0
 596.611371506 62 705 168.971649381 705 326.372070312 c 0
 705 481.581980978 599.370717975 586 442.360351562 586 c 0
 284.739746941 586 180 480.346021505 180 321.349609375 c 0
 180 164.859312822 281.977409265 62 437.125976562 62 c 0
840 325.092773438 m 0
 840 96.3750182523 676.604790925 -60 437.619140625 -60 c 0
 202.064303051 -60 45 89.9342504816 45 314.795898438 c 0
 45 546.490635157 209.093010868 708 444.494140625 708 c 0
 678.020807144 708 840 551.180569827 840 325.092773438 c 0
583 204 m 261
 583 132 l 261
 443 132 l 261
 443 204 l 261
 238 204 l 261
 238 321 l 261
 413 518 l 261
 583 518 l 261
 583 311 l 261
 635 311 l 261
 635 204 l 261
 583 204 l 261
443 311 m 261
 443 392 l 261
 380 311 l 261
 443 311 l 261
EndSplineSet
EndChar

StartChar: uni2464
Encoding: 9316 9316 667
GlifName: uni2464
Width: 885
VWidth: 132
Flags: HW
LayerCount: 2
Fore
SplineSet
437.125976562 62 m 0
 596.611371506 62 705 168.971649381 705 326.372070312 c 0
 705 481.581980978 599.370717975 586 442.360351562 586 c 0
 284.739746941 586 180 480.346021505 180 321.349609375 c 0
 180 164.859312822 281.977409265 62 437.125976562 62 c 0
840 325.092773438 m 0
 840 96.3750182523 676.604790925 -60 437.619140625 -60 c 0
 202.064303051 -60 45 89.9342504816 45 314.795898438 c 0
 45 546.490635157 209.093010868 708 444.494140625 708 c 0
 678.020807144 708 840 551.180569827 840 325.092773438 c 0
468 256 m 260
 468 233 455 220 433 220 c 260
 412 220 398 231 397 249 c 261
 244 249 l 261
 251 169 330 114 440 114 c 260
 550 114 621 172 621 262 c 260
 621 334 569 383 495 383 c 260
 456 383 423 373 402 354 c 261
 410 405 l 261
 598 405 l 261
 598 518 l 261
 284 518 l 261
 246 273 l 261
 395 273 l 261
 402 287 413 294 428 294 c 260
 453 294 468 280 468 256 c 260
EndSplineSet
EndChar

StartChar: uni2465
Encoding: 9317 9317 668
GlifName: uni2465
Width: 885
VWidth: 132
Flags: HW
LayerCount: 2
Fore
SplineSet
437.125976562 62 m 0
 596.611371506 62 705 168.971649381 705 326.372070312 c 0
 705 481.581980978 599.370717975 586 442.360351562 586 c 0
 284.739746941 586 180 480.346021505 180 321.349609375 c 0
 180 164.859312822 281.977409265 62 437.125976562 62 c 0
840 325.092773438 m 0
 840 96.3750182523 676.604790925 -60 437.619140625 -60 c 0
 202.064303051 -60 45 89.9342504816 45 314.795898438 c 0
 45 546.490635157 209.093010868 708 444.494140625 708 c 0
 678.020807144 708 840 551.180569827 840 325.092773438 c 0
239 325 m 260
 239 453 312 530 434 530 c 260
 533 530 601 484 618 406 c 261
 465 406 l 261
 460 421 451 427 436 427 c 260
 410 427 392 395 392 347 c 260
 392 342 392 337 392 332 c 261
 410 366 453 388 503 388 c 260
 574 388 626 335 626 263 c 260
 626 181 555 124 452 124 c 260
 321 124 239 202 239 325 c 260
404 258 m 260
 404 239 419 225 441 225 c 260
 460 225 473 237 473 256 c 260
 473 275 460 287 439 287 c 260
 418 287 404 275 404 258 c 260
EndSplineSet
EndChar

StartChar: uni2466
Encoding: 9318 9318 669
GlifName: uni2466
Width: 885
VWidth: 132
Flags: HW
LayerCount: 2
Fore
SplineSet
437.125976562 62 m 0
 596.611371506 62 705 168.971649381 705 326.372070312 c 0
 705 481.581980978 599.370717975 586 442.360351562 586 c 0
 284.739746941 586 180 480.346021505 180 321.349609375 c 0
 180 164.859312822 281.977409265 62 437.125976562 62 c 0
840 325.092773438 m 0
 840 96.3750182523 676.604790925 -60 437.619140625 -60 c 0
 202.064303051 -60 45 89.9342504816 45 314.795898438 c 0
 45 546.490635157 209.093010868 708 444.494140625 708 c 0
 678.020807144 708 840 551.180569827 840 325.092773438 c 0
505 125 m 261
 505 242 543 311 635 363 c 261
 635 511 l 261
 251 511 l 261
 251 373 l 261
 455 373 l 261
 356 304 317 234 317 125 c 261
 505 125 l 261
EndSplineSet
EndChar

StartChar: uni2467
Encoding: 9319 9319 670
GlifName: uni2467
Width: 885
VWidth: 132
Flags: HW
LayerCount: 2
Fore
SplineSet
840 325.092773438 m 0
 840 96.3750182523 676.604790925 -60 437.619140625 -60 c 0
 202.064303051 -60 45 89.9342504816 45 314.795898438 c 0
 45 546.490635157 209.093010868 708 444.494140625 708 c 0
 678.020807144 708 840 551.180569827 840 325.092773438 c 0
437.125976562 62 m 0
 596.611371506 62 705 168.971649381 705 326.372070312 c 0
 705 481.581980978 599.370717975 586 442.360351562 586 c 0
 284.739746941 586 180 480.346021505 180 321.349609375 c 0
 180 164.859312822 281.977409265 62 437.125976562 62 c 0
331.560090008 330.027633697 m 1
 287.427069316 346.509654216 264 375.362882583 264 415 c 0
 264 484 336 530 442 530 c 0
 549 530 621 484 621 415 c 0
 621 375.193269577 597.372006017 346.262917337 552.872217866 329.816726505 c 1
 603.746746164 313.39094669 631 283.093565593 631 241 c 0
 631 171 555 124 442 124 c 0
 329 124 254 171 254 241 c 0
 254 283.696121498 280.802245535 313.803309488 331.560090008 330.027633697 c 1
441 369 m 2
 444 369 l 2
 465 369 478 379 478 397 c 0
 478 415 465 425 442 425 c 0
 420 425 407 415 407 397 c 0
 407 379 419 369 441 369 c 2
441 289 m 2
 419 289 407 279 407 260 c 0
 407 240 420 229 442 229 c 0
 465 229 478 240 478 259 c 0
 478 278 466 289 444 289 c 2
 441 289 l 2
EndSplineSet
EndChar

StartChar: uni2468
Encoding: 9320 9320 671
GlifName: uni2468
Width: 885
VWidth: 132
Flags: HW
LayerCount: 2
Fore
SplineSet
437.125976562 62 m 0
 596.611371506 62 705 168.971649381 705 326.372070312 c 0
 705 481.581980978 599.370717975 586 442.360351562 586 c 0
 284.739746941 586 180 480.346021505 180 321.349609375 c 0
 180 164.859312822 281.977409265 62 437.125976562 62 c 0
840 325.092773438 m 0
 840 96.3750182523 676.604790925 -60 437.619140625 -60 c 0
 202.064303051 -60 45 89.9342504816 45 314.795898438 c 0
 45 546.490635157 209.093010868 708 444.494140625 708 c 0
 678.020807144 708 840 551.180569827 840 325.092773438 c 0
642 329 m 260
 642 201 567 124 442 124 c 260
 340 124 270 170 253 248 c 261
 406 248 l 261
 409 233 418 227 436 227 c 260
 468 227 489 259 489 307 c 260
 489 312 489 317 489 322 c 261
 471 288 428 266 378 266 c 260
 307 266 255 319 255 391 c 260
 255 473 326 530 429 530 c 260
 560 530 642 452 642 329 c 260
477 396 m 260
 477 415 462 429 440 429 c 260
 421 429 408 417 408 398 c 260
 408 379 421 367 442 367 c 260
 463 367 477 379 477 396 c 260
EndSplineSet
EndChar

StartChar: uni24EA
Encoding: 9450 9450 672
GlifName: uni24E_A_
Width: 885
VWidth: 132
Flags: HW
LayerCount: 2
Fore
SplineSet
437.125976562 62 m 4
 596.611371506 62 705 168.971649381 705 326.372070312 c 4
 705 481.581980978 599.370717975 586 442.360351562 586 c 4
 284.739746941 586 180 480.346021505 180 321.349609375 c 4
 180 164.859312822 281.977409265 62 437.125976562 62 c 4
840 325.092773438 m 4
 840 96.3750182523 676.604790925 -60 437.619140625 -60 c 4
 202.064303051 -60 45 89.9342504816 45 314.795898438 c 4
 45 546.490635157 209.093010868 708 444.494140625 708 c 4
 678.020807144 708 840 551.180569827 840 325.092773438 c 4
245 327 m 256
 245 449 324 530 443 530 c 256
 561 530 640 449 640 327 c 256
 640 204 561 122 443 122 c 256
 324 122 245 204 245 327 c 256
497 327 m 256
 497 380 477 410 443 410 c 256
 408 410 388 380 388 327 c 256
 388 273 408 242 443 242 c 256
 477 242 497 273 497 327 c 256
EndSplineSet
EndChar

StartChar: uni24FF
Encoding: 9471 9471 673
GlifName: uni24F_F_
Width: 885
VWidth: 132
Flags: HW
LayerCount: 2
Fore
SplineSet
840 325.092773438 m 0
 840 96.3750182523 676.604790925 -60 437.619140625 -60 c 0
 202.064303051 -60 45 89.9342504816 45 314.795898438 c 0
 45 546.490635157 209.093010868 708 444.494140625 708 c 0
 678.020807144 708 840 551.180569827 840 325.092773438 c 0
245 327 m 256
 245 204 324 122 443 122 c 256
 561 122 640 204 640 327 c 256
 640 449 561 530 443 530 c 256
 324 530 245 449 245 327 c 256
497 327 m 256
 497 273 477 242 443 242 c 256
 408 242 388 273 388 327 c 256
 388 380 408 410 443 410 c 256
 477 410 497 380 497 327 c 256
EndSplineSet
EndChar

StartChar: uni2776
Encoding: 10102 10102 674
GlifName: uni2776
Width: 885
VWidth: 132
Flags: HW
LayerCount: 2
Fore
SplineSet
840 325.092773438 m 0
 840 96.3750182523 676.604790925 -60 437.619140625 -60 c 0
 202.064303051 -60 45 89.9342504816 45 314.795898438 c 0
 45 546.490635157 209.093010868 708 444.494140625 708 c 0
 678.020807144 708 840 551.180569827 840 325.092773438 c 0
390 518 m 257
 390 498 l 258
 390 456 370 444 331 444 c 258
 285 444 l 257
 285 323 l 257
 390 323 l 257
 390 132 l 257
 540 132 l 257
 540 518 l 257
 390 518 l 257
EndSplineSet
EndChar

StartChar: uni2777
Encoding: 10103 10103 675
GlifName: uni2777
Width: 885
VWidth: 132
Flags: HW
LayerCount: 2
Fore
SplineSet
840 325.092773438 m 0
 840 96.3750182523 676.604790925 -60 437.619140625 -60 c 0
 202.064303051 -60 45 89.9342504816 45 314.795898438 c 0
 45 546.490635157 209.093010868 708 444.494140625 708 c 0
 678.020807144 708 840 551.180569827 840 325.092773438 c 0
420 250 m 257
 432 262 420 257 513 286 c 0
 597 311 631 343 631 397 c 256
 631 477 558 530 446 530 c 256
 340 530 262 473 254 390 c 257
 407 390 l 257
 408 410 423 423 446 423 c 256
 466 423 478 414 478 397 c 256
 478 380 482 382 401 359 c 0
 297 330 254 274 254 166 c 258
 254 132 l 257
 627 132 l 257
 627 250 l 257
 420 250 l 257
EndSplineSet
EndChar

StartChar: uni2778
Encoding: 10104 10104 676
GlifName: uni2778
Width: 885
VWidth: 132
Flags: HW
LayerCount: 2
Fore
SplineSet
840 325.092773438 m 0
 840 96.3750182523 676.604790925 -60 437.619140625 -60 c 0
 202.064303051 -60 45 89.9342504816 45 314.795898438 c 0
 45 546.490635157 209.093010868 708 444.494140625 708 c 0
 678.020807144 708 840 551.180569827 840 325.092773438 c 0
568.489364257 326.023313154 m 1
 607.084674784 343.325393135 626 372.523512068 626 414 c 0
 626 481 548 530 441 530 c 0
 333 530 256 473 249 387 c 1
 402 387 l 1
 403 408 416 421 438 421 c 0
 460 421 473 408 473 388 c 0
 473 373 465 364 451 364 c 2
 406 364 l 1
 406 287 l 1
 451 287 l 2
 471 287 483 278 483 262 c 0
 483 245 470 235 448 235 c 0
 422 235 405 249 402 273 c 1
 249 273 l 1
 257 184 341 124 457 124 c 0
 563 124 636 168 636 232 c 0
 636 276.511168125 613.20628606 307.997356856 568.489364257 326.023313154 c 1
EndSplineSet
EndChar

StartChar: uni2779
Encoding: 10105 10105 677
GlifName: uni2779
Width: 885
VWidth: 132
Flags: HW
LayerCount: 2
Fore
SplineSet
840 325.092773438 m 0
 840 96.3750182523 676.604790925 -60 437.619140625 -60 c 0
 202.064303051 -60 45 89.9342504816 45 314.795898438 c 0
 45 546.490635157 209.093010868 708 444.494140625 708 c 0
 678.020807144 708 840 551.180569827 840 325.092773438 c 0
583 204 m 257
 635 204 l 257
 635 311 l 257
 583 311 l 257
 583 518 l 257
 413 518 l 257
 238 321 l 257
 238 204 l 257
 443 204 l 257
 443 132 l 257
 583 132 l 257
 583 204 l 257
443 311 m 257
 380 311 l 257
 443 392 l 257
 443 311 l 257
EndSplineSet
EndChar

StartChar: uni277A
Encoding: 10106 10106 678
GlifName: uni277A_
Width: 885
VWidth: 132
Flags: HW
LayerCount: 2
Fore
SplineSet
840 325.092773438 m 0
 840 96.3750182523 676.604790925 -60 437.619140625 -60 c 0
 202.064303051 -60 45 89.9342504816 45 314.795898438 c 0
 45 546.490635157 209.093010868 708 444.494140625 708 c 0
 678.020807144 708 840 551.180569827 840 325.092773438 c 0
468 256 m 256
 468 233 455 220 433 220 c 256
 412 220 398 231 397 249 c 257
 244 249 l 257
 251 169 330 114 440 114 c 256
 550 114 621 172 621 262 c 256
 621 334 569 383 495 383 c 256
 456 383 423 373 402 354 c 257
 410 405 l 257
 598 405 l 257
 598 518 l 257
 284 518 l 257
 246 273 l 257
 395 273 l 257
 402 287 413 294 428 294 c 256
 453 294 468 280 468 256 c 256
EndSplineSet
EndChar

StartChar: uni277B
Encoding: 10107 10107 679
GlifName: uni277B_
Width: 885
VWidth: 132
Flags: HW
LayerCount: 2
Fore
SplineSet
840 325.092773438 m 0
 840 96.3750182523 676.604790925 -60 437.619140625 -60 c 0
 202.064303051 -60 45 89.9342504816 45 314.795898438 c 0
 45 546.490635157 209.093010868 708 444.494140625 708 c 0
 678.020807144 708 840 551.180569827 840 325.092773438 c 0
239 325 m 256
 239 202 321 124 452 124 c 256
 555 124 626 181 626 263 c 256
 626 335 574 388 503 388 c 256
 453 388 410 366 392 332 c 257
 392 337 392 342 392 347 c 256
 392 395 410 427 436 427 c 256
 451 427 460 421 465 406 c 257
 618 406 l 257
 601 484 533 530 434 530 c 256
 312 530 239 453 239 325 c 256
404 258 m 256
 404 275 418 287 439 287 c 256
 460 287 473 275 473 256 c 256
 473 237 460 225 441 225 c 256
 419 225 404 239 404 258 c 256
EndSplineSet
EndChar

StartChar: uni277C
Encoding: 10108 10108 680
GlifName: uni277C_
Width: 885
VWidth: 132
Flags: HW
LayerCount: 2
Fore
SplineSet
840 325.092773438 m 0
 840 96.3750182523 676.604790925 -60 437.619140625 -60 c 0
 202.064303051 -60 45 89.9342504816 45 314.795898438 c 0
 45 546.490635157 209.093010868 708 444.494140625 708 c 0
 678.020807144 708 840 551.180569827 840 325.092773438 c 0
505 125 m 257
 505 242 543 311 635 363 c 257
 635 511 l 257
 251 511 l 257
 251 373 l 257
 455 373 l 257
 356 304 317 234 317 125 c 257
 505 125 l 257
EndSplineSet
EndChar

StartChar: uni277D
Encoding: 10109 10109 681
GlifName: uni277D_
Width: 885
VWidth: 132
Flags: HW
LayerCount: 2
Fore
SplineSet
840 325.092773438 m 0
 840 96.3750182523 676.604790925 -60 437.619140625 -60 c 0
 202.064303051 -60 45 89.9342504816 45 314.795898438 c 0
 45 546.490635157 209.093010868 708 444.494140625 708 c 0
 678.020807144 708 840 551.180569827 840 325.092773438 c 0
552.872217866 329.816726505 m 1
 597.372006017 346.262917337 621 375.193269577 621 415 c 0
 621 484 549 530 442 530 c 0
 336 530 264 484 264 415 c 0
 264 375.362882583 287.427069316 346.509654216 331.560090008 330.027633697 c 1
 280.802245535 313.803309488 254 283.696121498 254 241 c 0
 254 171 329 124 442 124 c 0
 555 124 631 171 631 241 c 0
 631 283.093565593 603.746746164 313.39094669 552.872217866 329.816726505 c 1
444 369 m 2
 441 369 l 2
 419 369 407 379 407 397 c 0
 407 415 420 425 442 425 c 0
 465 425 478 415 478 397 c 0
 478 379 465 369 444 369 c 2
444 289 m 2
 466 289 478 278 478 259 c 0
 478 240 465 229 442 229 c 0
 420 229 407 240 407 260 c 0
 407 279 419 289 441 289 c 2
 444 289 l 2
EndSplineSet
EndChar

StartChar: uni277E
Encoding: 10110 10110 682
GlifName: uni277E_
Width: 885
VWidth: 132
Flags: HW
LayerCount: 2
Fore
SplineSet
840 325.092773438 m 0
 840 96.3750182523 676.604790925 -60 437.619140625 -60 c 0
 202.064303051 -60 45 89.9342504816 45 314.795898438 c 0
 45 546.490635157 209.093010868 708 444.494140625 708 c 0
 678.020807144 708 840 551.180569827 840 325.092773438 c 0
642 329 m 256
 642 452 560 530 429 530 c 256
 326 530 255 473 255 391 c 256
 255 319 307 266 378 266 c 256
 428 266 471 288 489 322 c 257
 489 317 489 312 489 307 c 256
 489 259 468 227 436 227 c 256
 418 227 409 233 406 248 c 257
 253 248 l 257
 270 170 340 124 442 124 c 256
 567 124 642 201 642 329 c 256
477 396 m 256
 477 379 463 367 442 367 c 256
 421 367 408 379 408 398 c 256
 408 417 421 429 440 429 c 256
 462 429 477 415 477 396 c 256
EndSplineSet
EndChar

StartChar: filledbox
Encoding: 9632 9632 683
GlifName: filledbox
Width: 865
Flags: HW
LayerCount: 2
Fore
SplineSet
820 -60 m 1
 45 -60 l 1
 45 710 l 1
 820 710 l 1
 820 -60 l 1
EndSplineSet
EndChar

StartChar: H22073
Encoding: 9633 9633 684
GlifName: H_22073
Width: 865
Flags: HW
LayerCount: 2
Fore
SplineSet
670 80 m 5
 670 570 l 5
 195 570 l 1
 195 80 l 1
 670 80 l 5
820 -60 m 1
 45 -60 l 1
 45 710 l 1
 820 710 l 1
 820 -60 l 1
EndSplineSet
EndChar

StartChar: triagup
Encoding: 9650 9650 685
GlifName: triagup
Width: 865
Flags: HW
LayerCount: 2
Fore
SplineSet
820 -60 m 1
 45 -60 l 1
 432.5 710 l 1
 820 -60 l 1
EndSplineSet
EndChar

StartChar: uni25B3
Encoding: 9651 9651 686
GlifName: uni25B_3
Width: 865
Flags: HW
LayerCount: 2
Fore
SplineSet
580 80 m 1
 432.5 400 l 1
 285 80 l 1
 580 80 l 1
820 -60 m 1
 45 -60 l 1
 432.5 710 l 1
 820 -60 l 1
EndSplineSet
EndChar

StartChar: uni25B6
Encoding: 9654 9654 687
GlifName: uni25B_6
Width: 865
Flags: HW
LayerCount: 2
Fore
SplineSet
47.5 -62.5 m 1
 47.5 712.5 l 1
 817.5 325 l 1
 47.5 -62.5 l 1
EndSplineSet
EndChar

StartChar: uni25B7
Encoding: 9655 9655 688
GlifName: uni25B_7
Width: 865
Flags: HW
LayerCount: 2
Fore
SplineSet
187.5 177.5 m 1
 507.5 325 l 1
 187.5 472.5 l 1
 187.5 177.5 l 1
47.5 -62.5 m 1
 47.5 712.5 l 1
 817.5 325 l 1
 47.5 -62.5 l 1
EndSplineSet
EndChar

StartChar: triagdn
Encoding: 9660 9660 689
GlifName: triagdn
Width: 865
Flags: HW
LayerCount: 2
Fore
SplineSet
45 710 m 1
 820 710 l 1
 432.5 -60 l 1
 45 710 l 1
EndSplineSet
EndChar

StartChar: uni25BD
Encoding: 9661 9661 690
GlifName: uni25B_D_
Width: 865
Flags: HW
LayerCount: 2
Fore
SplineSet
285 570 m 1
 432.5 250 l 1
 580 570 l 1
 285 570 l 1
45 710 m 1
 820 710 l 1
 432.5 -60 l 1
 45 710 l 1
EndSplineSet
EndChar

StartChar: uni25C0
Encoding: 9664 9664 691
GlifName: uni25C_0
Width: 865
Flags: HW
LayerCount: 2
Fore
SplineSet
817.5 712.5 m 1
 817.5 -62.5 l 1
 47.5 325 l 1
 817.5 712.5 l 1
EndSplineSet
EndChar

StartChar: uni25C1
Encoding: 9665 9665 692
GlifName: uni25C_1
Width: 865
Flags: HW
LayerCount: 2
Fore
SplineSet
677.5 472.5 m 1
 357.5 325 l 1
 677.5 177.5 l 1
 677.5 472.5 l 1
817.5 712.5 m 1
 817.5 -62.5 l 1
 47.5 325 l 1
 817.5 712.5 l 1
EndSplineSet
EndChar

StartChar: uni25C6
Encoding: 9670 9670 693
GlifName: uni25C_6
Width: 865
Flags: HW
LayerCount: 2
Fore
SplineSet
820 325.092773438 m 1
 427.619140625 -60 l 1
 45 314.795898438 l 1
 434.494140625 708 l 1
 820 325.092773438 l 1
EndSplineSet
EndChar

StartChar: uni25C7
Encoding: 9671 9671 694
GlifName: uni25C_7
Width: 865
Flags: HW
LayerCount: 2
Fore
SplineSet
820 325.092773438 m 1
 427.619140625 -60 l 1
 45 314.795898438 l 1
 434.494140625 708 l 1
 820 325.092773438 l 1
427.125976562 132 m 1
 612 326.372070312 l 1
 432.360351562 516 l 1
 243 321.349609375 l 1
 427.125976562 132 l 1
EndSplineSet
EndChar

StartChar: lozenge
Encoding: 9674 9674 695
GlifName: lozenge
Width: 645
Flags: HW
LayerCount: 2
Fore
SplineSet
316 86 m 5
 440 328 l 1
 324 562 l 1
 204 321 l 1
 316 86 l 5
600 329 m 1
 388 -50 l 1
 248 -50 l 1
 45 319 l 1
 254 698 l 1
 394 698 l 1
 600 329 l 1
EndSplineSet
EndChar

StartChar: circle
Encoding: 9675 9675 696
GlifName: circle
Width: 885
VWidth: 132
Flags: HW
LayerCount: 2
Fore
SplineSet
437.125976562 62 m 0
 596.611371506 62 705 168.971649381 705 326.372070312 c 0
 705 481.581980978 599.370717975 586 442.360351562 586 c 0
 284.739746941 586 180 480.346021505 180 321.349609375 c 0
 180 164.859312822 281.977409265 62 437.125976562 62 c 0
840 325.092773438 m 0
 840 96.3750182523 676.604790925 -60 437.619140625 -60 c 0
 202.064303051 -60 45 89.9342504816 45 314.795898438 c 0
 45 546.490635157 209.093010868 708 444.494140625 708 c 0
 678.020807144 708 840 551.180569827 840 325.092773438 c 0
EndSplineSet
EndChar

StartChar: H18533
Encoding: 9679 9679 697
GlifName: H_18533
Width: 885
VWidth: 132
Flags: HW
LayerCount: 2
Fore
SplineSet
840 325.092773438 m 0
 840 96.3750182523 676.604790925 -60 437.619140625 -60 c 0
 202.064303051 -60 45 89.9342504816 45 314.795898438 c 0
 45 546.490635157 209.093010868 708 444.494140625 708 c 0
 678.020807144 708 840 551.180569827 840 325.092773438 c 0
EndSplineSet
EndChar

StartChar: uni25D0
Encoding: 9680 9680 698
GlifName: uni25D_0
Width: 885
VWidth: 132
Flags: HW
LayerCount: 2
Fore
SplineSet
437.125976562 62 m 1
 596.611371506 62 705 168.971649381 705 326.372070312 c 0
 705 481.581980978 599.370717975 586 442.360351562 586 c 1
 437.125976562 62 l 1
840 325.092773438 m 0
 840 96.3750182521 676.604790925 -60 437.619140625 -60 c 0
 202.064303051 -60 45 89.9342504818 45 314.795898438 c 0
 45 546.490635157 209.093010868 708 444.494140625 708 c 0
 678.020807144 708 840 551.180569827 840 325.092773438 c 0
EndSplineSet
EndChar

StartChar: uni25D1
Encoding: 9681 9681 699
GlifName: uni25D_1
Width: 885
VWidth: 132
Flags: HW
LayerCount: 2
Fore
SplineSet
447.874023438 586 m 1
 288.388665539 586 180 479.028314059 180 321.627929688 c 0
 180 166.417808153 285.62906871 62 442.639648438 62 c 1
 447.874023438 586 l 1
45 322.907226562 m 0
 45 551.624847923 208.395348908 708 447.380859375 708 c 0
 682.935454392 708 840 558.065517972 840 333.204101562 c 0
 840 101.509448388 675.906904251 -60 440.505859375 -60 c 0
 206.979293854 -60 45 96.8195279535 45 322.907226562 c 0
EndSplineSet
EndChar

StartChar: uni25D2
Encoding: 9682 9682 700
GlifName: uni25D_2
Width: 885
VWidth: 132
Flags: HW
LayerCount: 2
Fore
SplineSet
705 326.372070312 m 1
 705 481.581980978 599.370717975 586 442.360351562 586 c 0
 284.739746941 586 180 480.346021505 180 321.349609375 c 1
 705 326.372070312 l 1
840 325.092773438 m 0
 840 96.3750182521 676.604790925 -60 437.619140625 -60 c 0
 202.064303051 -60 45 89.9342504818 45 314.795898438 c 0
 45 546.490635157 209.093010868 708 444.494140625 708 c 0
 678.020807144 708 840 551.180569827 840 325.092773438 c 0
EndSplineSet
EndChar

StartChar: uni25D3
Encoding: 9683 9683 701
GlifName: uni25D_3
Width: 885
VWidth: 132
Flags: HW
LayerCount: 2
Fore
SplineSet
180 321.627929688 m 1
 180 166.417808153 285.62906871 62 442.639648438 62 c 0
 600.259851529 62 705 167.654383529 705 326.650390625 c 1
 180 321.627929688 l 1
45 322.907226562 m 0
 45 551.624847923 208.395348908 708 447.380859375 708 c 0
 682.935454392 708 840 558.065517972 840 333.204101562 c 0
 840 101.509448388 675.906904251 -60 440.505859375 -60 c 0
 206.979293854 -60 45 96.8195279535 45 322.907226562 c 0
EndSplineSet
EndChar

StartChar: uni25E2
Encoding: 9698 9698 702
GlifName: uni25E_2
Width: 825
Flags: HW
LayerCount: 2
Fore
SplineSet
780 -40 m 1
 45 -40 l 5
 780 690 l 5
 780 -40 l 1
EndSplineSet
EndChar

StartChar: uni25E3
Encoding: 9699 9699 703
GlifName: uni25E_3
Width: 825
Flags: HW
LayerCount: 2
Fore
SplineSet
47.5 -42.5 m 1
 47.5 692.5 l 5
 777.5 -42.5 l 5
 47.5 -42.5 l 1
EndSplineSet
EndChar

StartChar: uni25E4
Encoding: 9700 9700 704
GlifName: uni25E_4
Width: 825
Flags: HW
LayerCount: 2
Fore
SplineSet
45 690 m 1
 780 690 l 5
 45 -40 l 5
 45 690 l 1
EndSplineSet
EndChar

StartChar: uni25E5
Encoding: 9701 9701 705
GlifName: uni25E_5
Width: 825
Flags: HW
LayerCount: 2
Fore
SplineSet
777.5 692.5 m 1
 777.5 -42.5 l 5
 47.5 692.5 l 5
 777.5 692.5 l 1
EndSplineSet
EndChar

StartChar: uni00B2
Encoding: 178 178 706
GlifName: uni00B_2
Width: 447
VWidth: 364
Flags: HW
LayerCount: 2
Fore
SplineSet
201 482 m 257
 408 482 l 257
 408 364 l 257
 35 364 l 257
 35 398 l 258
 35 539 117 573 182 591 c 0
 224 603 259 607 259 629 c 256
 259 646 247 655 227 655 c 256
 204 655 189 642 188 622 c 257
 35 622 l 257
 43 705 120 762 227 762 c 256
 339 762 412 709 412 629 c 256
 412 560 351 535 294 518 c 0
 255 506 217 498 201 482 c 257
EndSplineSet
EndChar

StartChar: uni00B3
Encoding: 179 179 707
GlifName: uni00B_3
Width: 457
VWidth: 364
Flags: HW
LayerCount: 2
Fore
SplineSet
275 596 m 257
 275 519 l 257
 192 519 l 257
 192 596 l 257
 275 596 l 257
237 539 m 257
 237 596 l 257
 251.040039062 596 259 604.68359375 259 620 c 256
 259 640.389648438 245.625 653 224 653 c 256
 202.126953125 653 188.588867188 640.213867188 188 619 c 257
 35 619 l 257
 42.37890625 704.862304688 119.094726562 762 227 762 c 256
 334.530273438 762 412 713.423828125 412 646 c 256
 412 573.711914062 355.227539062 539 237 539 c 257
237 576 m 261
 358.993164062 576 422 537.85546875 422 464 c 256
 422 399.951171875 349.155273438 356 243 356 c 256
 127.037109375 356 43.16015625 416.084960938 35 505 c 257
 188 505 l 257
 191.009765625 480.897460938 207.833007812 467 234 467 c 256
 256.149414062 467 269 476.913085938 269 494 c 256
 269 509.97265625 257.4453125 519 237 519 c 257
 237 576 l 261
EndSplineSet
EndChar

StartChar: uni00B9
Encoding: 185 185 708
GlifName: uni00B_9
Width: 325
VWidth: 364
Flags: HW
LayerCount: 2
Fore
SplineSet
130 750 m 257
 280 750 l 257
 280 364 l 257
 130 364 l 257
 130 555 l 257
 25 555 l 257
 25 676 l 257
 71 676 l 258
 109.834960938 676 130 688.08984375 130 730 c 258
 130 750 l 257
EndSplineSet
EndChar

StartChar: zero.dnom
Encoding: 1114312 -1 709
GlifName: zero.dnom
Width: 461
VWidth: 0
Flags: HW
LayerCount: 2
Fore
SplineSet
33 190 m 260
 33 315 112 398 231 398 c 260
 349 398 428 315 428 190 c 260
 428 64 349 -20 231 -20 c 260
 112 -20 33 64 33 190 c 260
285 190 m 260
 285 246 265 278 231 278 c 260
 196 278 176 246 176 190 c 260
 176 133 196 100 231 100 c 260
 265 100 285 133 285 190 c 260
EndSplineSet
EndChar

StartChar: one.dnom
Encoding: 1114313 -1 710
GlifName: one.dnom
Width: 325
VWidth: 0
Flags: HW
LayerCount: 2
Fore
SplineSet
130 386 m 257
 280 386 l 257
 280 0 l 257
 130 0 l 257
 130 191 l 257
 25 191 l 257
 25 312 l 257
 71 312 l 258
 109.835443038 312 130 324.089552239 130 366 c 258
 130 386 l 257
EndSplineSet
EndChar

StartChar: two.dnom
Encoding: 1114314 -1 711
GlifName: two.dnom
Width: 447
VWidth: 0
Flags: HW
LayerCount: 2
Fore
SplineSet
201 118 m 257
 408 118 l 257
 408 0 l 257
 35 0 l 257
 35 34 l 258
 35 175 117 209 182 227 c 0
 224 239 259 243 259 265 c 256
 259 282 247 291 227 291 c 256
 204 291 189 278 188 258 c 257
 35 258 l 257
 43 341 120 398 227 398 c 256
 339 398 412 345 412 265 c 256
 412 196 351 171 294 154 c 0
 255 142 217 134 201 118 c 257
EndSplineSet
EndChar

StartChar: three.dnom
Encoding: 1114315 -1 712
GlifName: three.dnom
Width: 457
VWidth: 0
Flags: HW
LayerCount: 2
Fore
SplineSet
275 232 m 257
 275 155 l 257
 192 155 l 257
 192 232 l 257
 275 232 l 257
237 175 m 257
 237 232 l 257
 251.040026702 232 259 240.683607234 259 256 c 256
 259 276.389302633 245.625017944 289 224 289 c 256
 202.127035078 289 188.589170772 276.214239267 188 255 c 257
 35 255 l 257
 42.3784527652 340.862558313 119.094458387 398 227 398 c 256
 334.529890279 398 412 349.424147418 412 282 c 256
 412 209.712091136 355.227888329 175 237 175 c 257
237 212 m 261
 358.993127299 212 422 173.855298689 422 100 c 256
 422 35.9512116823 349.154936193 -8 243 -8 c 256
 127.037024876 -8 43.1599953418 52.0849875027 35 141 c 257
 188 141 l 257
 191.010190167 116.897234728 207.833158521 103 234 103 c 256
 256.1496278 103 269 112.913144268 269 130 c 256
 269 145.973009583 257.445452267 155 237 155 c 257
 237 212 l 261
EndSplineSet
EndChar

StartChar: four.dnom
Encoding: 1114316 -1 713
GlifName: four.dnom
Width: 437
VWidth: 0
Flags: HW
LayerCount: 2
Fore
SplineSet
370 72 m 257
 370 0 l 257
 230 0 l 257
 230 72 l 257
 25 72 l 257
 25 189 l 257
 200 386 l 261
 370 386 l 257
 370 179 l 257
 422 179 l 257
 422 72 l 257
 370 72 l 257
230 179 m 257
 230 260 l 257
 167 179 l 257
 230 179 l 257
EndSplineSet
EndChar

StartChar: five.dnom
Encoding: 1114317 -1 714
GlifName: five.dnom
Width: 447
VWidth: 0
Flags: HW
LayerCount: 2
Fore
SplineSet
259 124 m 256
 259 100.821917808 246.5 88 224 88 c 256
 202.704225352 88 189.014084507 99.1166666667 188 117 c 257
 35 117 l 257
 42.2324723247 36.6136363636 121.066420664 -18 231 -18 c 256
 341.296875 -18 412 39.9404255319 412 130 c 256
 412 201.703703704 360.273684211 251 286 251 c 256
 246.704225352 251 213.957746479 240.788732394 193 222 c 257
 201 273 l 257
 389 273 l 257
 389 386 l 257
 75 386 l 257
 37 141 l 257
 186 141 l 257
 192.6 154.815789474 204.385714286 162 219 162 c 256
 244.066666667 162 259 147.925925926 259 124 c 256
EndSplineSet
EndChar

StartChar: six.dnom
Encoding: 1114318 -1 715
GlifName: six.dnom
Width: 457
VWidth: 0
Flags: HW
LayerCount: 2
Fore
SplineSet
35 193 m 256
 35 320.889908257 107.954545455 398 230 398 c 256
 328.909090909 398 397.272727273 351.905759162 414 274 c 257
 261 274 l 257
 255.902699309 287.588235294 248.220338983 295 232 295 c 256
 205.787234043 295 188 263 188 215 c 256
 188 210 188 205 188 200 c 257
 206.377483444 234.520547945 249.748344371 256 299 256 c 256
 369.891625616 256 422 203.023809524 422 131 c 256
 422 49.0892857143 350.755905512 -8 248 -8 c 256
 117.146757679 -8 35 69.8064516129 35 193 c 256
200 126 m 256
 200 106.961538462 215.416666667 93 237 93 c 256
 256.104477612 93 269 105.236842105 269 124 c 256
 269 142.763157895 255.695652174 155 235 155 c 256
 214 155 200 143.243243243 200 126 c 256
EndSplineSet
EndChar

StartChar: seven.dnom
Encoding: 1114319 -1 716
GlifName: seven.dnom
Width: 454
VWidth: 0
Flags: HW
LayerCount: 2
Fore
SplineSet
288 0 m 257
 288 109.727272727 321.26984127 183.393939394 419 238 c 257
 419 386 l 257
 35 386 l 257
 35 248 l 257
 238 248 l 261
 162.482926829 195.457627119 101 130.830508475 101 0 c 257
 288 0 l 257
EndSplineSet
EndChar

StartChar: eight.dnom
Encoding: 1114320 -1 717
GlifName: eight.dnom
Width: 447
VWidth: 0
Flags: HW
LayerCount: 2
Fore
SplineSet
223 398 m 257
 223 293 l 257
 200.710952123 293 188 282.763766529 188 264.814214386 c 256
 188 247.104282515 200.351440194 237 222 237 c 257
 222 182 l 257
 108.075250525 182 45 218.063627557 45 283.200740774 c 256
 45 351.846912971 116.561868486 398 223 398 c 257
223 97 m 257
 223 -8 l 257
 110.229752447 -8 35 38.623103434 35 108.511661417 c 256
 35 175.037566927 101.789892265 212 222 212 c 257
 222 157 l 257
 200.012341406 157 188 146.688562851 188 127.814277481 c 256
 188 108.312607133 200.849279036 97 223 97 c 257
236 237 m 257
 236 157 l 257
 211 157 l 257
 211 237 l 257
 236 237 l 257
223 398 m 257
 330.218792714 398 402 351.763003574 402 282.69931514 c 256
 402 217.618960672 339.39226498 182 225 182 c 257
 225 237 l 257
 246.399035781 237 259 247.379795374 259 265.006828413 c 256
 259 282.883091303 245.989373035 293 223 293 c 257
 223 398 l 257
223 97 m 257
 245.796385206 97 259 108.162975243 259 127.436143059 c 256
 259 146.158697344 246.531928225 157 225 157 c 257
 225 212 l 257
 345.598058775 212 412 175.532666036 412 109.301323944 c 256
 412 39.0814568744 336.140708305 -8 223 -8 c 257
 223 97 l 257
EndSplineSet
EndChar

StartChar: nine.dnom
Encoding: 1114321 -1 718
GlifName: nine.dnom
Width: 457
VWidth: 0
Flags: HW
LayerCount: 2
Fore
SplineSet
422 197 m 256
 422 69.1103515625 347.175280449 -8 222 -8 c 256
 120.403070864 -8 50.1820917544 38.0947265625 33 116 c 257
 186 116 l 257
 188.626378676 100.412109375 199.219962284 95 216 95 c 256
 247.574618253 95 269 127 269 175 c 256
 269 180 269 185 269 190 c 257
 250.622070312 155.479492188 207.251953125 134 158 134 c 256
 87.1083984375 134 35 186.9765625 35 259 c 256
 35 340.911132812 106.244140625 398 209 398 c 256
 339.853515625 398 422 320.193359375 422 197 c 256
257 264 m 256
 257 283.038085938 241.583007812 297 220 297 c 256
 200.895507812 297 188 284.762695312 188 266 c 256
 188 247.237304688 201.3046875 235 222 235 c 256
 243 235 257 246.756835938 257 264 c 256
EndSplineSet
EndChar

StartChar: zero.numr
Encoding: 1114322 -1 719
GlifName: zero.numr
Width: 461
VWidth: 264
Flags: HW
LayerCount: 2
Fore
SplineSet
33 454 m 260
 33 579 112 662 231 662 c 260
 349 662 428 579 428 454 c 260
 428 328 349 244 231 244 c 260
 112 244 33 328 33 454 c 260
285 454 m 260
 285 510 265 542 231 542 c 260
 196 542 176 510 176 454 c 260
 176 397 196 364 231 364 c 260
 265 364 285 397 285 454 c 260
EndSplineSet
EndChar

StartChar: one.numr
Encoding: 1114323 -1 720
GlifName: one.numr
Width: 325
VWidth: 264
Flags: HW
LayerCount: 2
Fore
SplineSet
130 650 m 257
 280 650 l 257
 280 264 l 257
 130 264 l 257
 130 455 l 257
 25 455 l 257
 25 576 l 257
 71 576 l 258
 109.834960938 576 130 588.08984375 130 630 c 258
 130 650 l 257
EndSplineSet
EndChar

StartChar: two.numr
Encoding: 1114324 -1 721
GlifName: two.numr
Width: 447
VWidth: 264
Flags: HW
LayerCount: 2
Fore
SplineSet
201 382 m 257
 408 382 l 257
 408 264 l 257
 35 264 l 257
 35 298 l 258
 35 439 117 473 182 491 c 0
 224 503 259 507 259 529 c 256
 259 546 247 555 227 555 c 256
 204 555 189 542 188 522 c 257
 35 522 l 257
 43 605 120 662 227 662 c 256
 339 662 412 609 412 529 c 256
 412 460 351 435 294 418 c 0
 255 406 217 398 201 382 c 257
EndSplineSet
EndChar

StartChar: three.numr
Encoding: 1114325 -1 722
GlifName: three.numr
Width: 457
VWidth: 264
Flags: HW
LayerCount: 2
Fore
SplineSet
275 496 m 257
 275 419 l 257
 192 419 l 257
 192 496 l 257
 275 496 l 257
237 439 m 257
 237 496 l 257
 251.040039062 496 259 504.68359375 259 520 c 256
 259 540.389648438 245.625 553 224 553 c 256
 202.126953125 553 188.588867188 540.213867188 188 519 c 257
 35 519 l 257
 42.37890625 604.862304688 119.094726562 662 227 662 c 256
 334.530273438 662 412 613.423828125 412 546 c 256
 412 473.711914062 355.227539062 439 237 439 c 257
237 476 m 261
 358.993164062 476 422 437.85546875 422 364 c 256
 422 299.951171875 349.155273438 256 243 256 c 256
 127.037109375 256 43.16015625 316.084960938 35 405 c 257
 188 405 l 257
 191.009765625 380.897460938 207.833007812 367 234 367 c 256
 256.149414062 367 269 376.913085938 269 394 c 256
 269 409.97265625 257.4453125 419 237 419 c 257
 237 476 l 261
EndSplineSet
EndChar

StartChar: four.numr
Encoding: 1114326 -1 723
GlifName: four.numr
Width: 437
VWidth: 264
Flags: HW
LayerCount: 2
Fore
SplineSet
370 336 m 257
 370 264 l 257
 230 264 l 257
 230 336 l 257
 25 336 l 257
 25 453 l 257
 200 650 l 261
 370 650 l 257
 370 443 l 257
 422 443 l 257
 422 336 l 257
 370 336 l 257
230 443 m 257
 230 524 l 257
 167 443 l 257
 230 443 l 257
EndSplineSet
EndChar

StartChar: five.numr
Encoding: 1114327 -1 724
GlifName: five.numr
Width: 447
VWidth: 264
Flags: HW
LayerCount: 2
Fore
SplineSet
259 388 m 256
 259 364.822265625 246.5 352 224 352 c 256
 202.704101562 352 189.013671875 363.116210938 188 381 c 257
 35 381 l 257
 42.232421875 300.61328125 121.06640625 246 231 246 c 256
 341.296875 246 412 303.940429688 412 394 c 256
 412 465.704101562 360.2734375 515 286 515 c 256
 246.704101562 515 213.958007812 504.7890625 193 486 c 257
 201 537 l 257
 389 537 l 257
 389 650 l 257
 75 650 l 257
 37 405 l 257
 186 405 l 257
 192.599609375 418.815429688 204.385742188 426 219 426 c 256
 244.06640625 426 259 411.92578125 259 388 c 256
EndSplineSet
EndChar

StartChar: six.numr
Encoding: 1114328 -1 725
GlifName: six.numr
Width: 457
VWidth: 264
Flags: HW
LayerCount: 2
Fore
SplineSet
35 457 m 256
 35 584.889648438 107.954101562 662 230 662 c 256
 328.909179688 662 397.272460938 615.905273438 414 538 c 257
 261 538 l 257
 255.90234375 551.587890625 248.220703125 559 232 559 c 256
 205.787109375 559 188 527 188 479 c 256
 188 474 188 469 188 464 c 257
 206.377929688 498.520507812 249.748046875 520 299 520 c 256
 369.891601562 520 422 467.0234375 422 395 c 256
 422 313.088867188 350.755859375 256 248 256 c 256
 117.146484375 256 35 333.806640625 35 457 c 256
200 390 m 256
 200 370.961914062 215.416992188 357 237 357 c 256
 256.104492188 357 269 369.237304688 269 388 c 256
 269 406.762695312 255.6953125 419 235 419 c 256
 214 419 200 407.243164062 200 390 c 256
EndSplineSet
EndChar

StartChar: seven.numr
Encoding: 1114329 -1 726
GlifName: seven.numr
Width: 454
VWidth: 264
Flags: HW
LayerCount: 2
Fore
SplineSet
288 264 m 257
 288 373.727539062 321.26953125 447.393554688 419 502 c 257
 419 650 l 257
 35 650 l 257
 35 512 l 257
 238 512 l 261
 162.483398438 459.458007812 101 394.830078125 101 264 c 257
 288 264 l 257
EndSplineSet
EndChar

StartChar: eight.numr
Encoding: 1114330 -1 727
GlifName: eight.numr
Width: 447
VWidth: 264
Flags: HW
LayerCount: 2
Fore
SplineSet
223 662 m 257
 223 557 l 257
 200.7109375 557 188 546.763671875 188 528.814453125 c 256
 188 511.104492188 200.3515625 501 222 501 c 257
 222 446 l 257
 108.075195312 446 45 482.063476562 45 547.201171875 c 256
 45 615.846679688 116.561523438 662 223 662 c 257
223 361 m 257
 223 256 l 257
 110.229492188 256 35 302.623046875 35 372.51171875 c 256
 35 439.037109375 101.790039062 476 222 476 c 257
 222 421 l 257
 200.012695312 421 188 410.688476562 188 391.814453125 c 256
 188 372.3125 200.849609375 361 223 361 c 257
236 501 m 257
 236 421 l 257
 211 421 l 257
 211 501 l 257
 236 501 l 257
223 662 m 257
 330.21875 662 402 615.762695312 402 546.69921875 c 256
 402 481.619140625 339.392578125 446 225 446 c 257
 225 501 l 257
 246.399414062 501 259 511.379882812 259 529.006835938 c 256
 259 546.8828125 245.989257812 557 223 557 c 257
 223 662 l 257
223 361 m 257
 245.795898438 361 259 372.163085938 259 391.436523438 c 256
 259 410.159179688 246.532226562 421 225 421 c 257
 225 476 l 257
 345.59765625 476 412 439.532226562 412 373.301757812 c 256
 412 303.081054688 336.140625 256 223 256 c 257
 223 361 l 257
EndSplineSet
EndChar

StartChar: nine.numr
Encoding: 1114331 -1 728
GlifName: nine.numr
Width: 457
VWidth: 264
Flags: HW
LayerCount: 2
Fore
SplineSet
422 461 m 256
 422 333.110351562 347.174804688 256 222 256 c 256
 120.403320312 256 50.181640625 302.094726562 33 380 c 257
 186 380 l 257
 188.625976562 364.412109375 199.219726562 359 216 359 c 256
 247.57421875 359 269 391 269 439 c 256
 269 444 269 449 269 454 c 257
 250.622070312 419.479492188 207.251953125 398 158 398 c 256
 87.1083984375 398 35 450.9765625 35 523 c 256
 35 604.911132812 106.244140625 662 209 662 c 256
 339.853515625 662 422 584.193359375 422 461 c 256
257 528 m 256
 257 547.038085938 241.583007812 561 220 561 c 256
 200.895507812 561 188 548.762695312 188 530 c 256
 188 511.237304688 201.3046875 499 222 499 c 256
 243 499 257 510.756835938 257 528 c 256
EndSplineSet
EndChar

StartChar: onequarter
Encoding: 188 188 730
GlifName: onequarter
Width: 1031
VWidth: 0
Flags: HW
LayerCount: 2
Fore
SplineSet
937 72 m 261
 937 0 l 261
 797 0 l 261
 797 72 l 261
 592 72 l 261
 592 189 l 261
 767 386 l 261
 937 386 l 261
 937 179 l 261
 989 179 l 261
 989 72 l 261
 937 72 l 261
797 179 m 261
 797 260 l 261
 734 179 l 261
 797 179 l 261
183 650 m 257
 333 650 l 257
 333 264 l 257
 183 264 l 257
 183 455 l 257
 78 455 l 257
 78 576 l 257
 124 576 l 258
 162.834960938 576 183 588.08984375 183 630 c 258
 183 650 l 257
569 650 m 257
 729 650 l 257
 465 0 l 257
 305 0 l 257
 569 650 l 257
EndSplineSet
EndChar

StartChar: onehalf
Encoding: 189 189 731
GlifName: onehalf
Width: 1031
VWidth: 0
Flags: HW
LayerCount: 2
Fore
SplineSet
784 118 m 261
 991 118 l 261
 991 0 l 261
 618 0 l 261
 618 34 l 262
 618 175 700 209 765 227 c 4
 807 239 842 243 842 265 c 260
 842 282 830 291 810 291 c 260
 787 291 772 278 771 258 c 261
 618 258 l 261
 626 341 703 398 810 398 c 260
 922 398 995 345 995 265 c 260
 995 196 934 171 877 154 c 4
 838 142 800 134 784 118 c 261
183 650 m 257
 333 650 l 257
 333 264 l 257
 183 264 l 257
 183 455 l 257
 78 455 l 257
 78 576 l 257
 124 576 l 258
 162.834960938 576 183 588.08984375 183 630 c 258
 183 650 l 257
569 650 m 257
 729 650 l 257
 465 0 l 257
 305 0 l 257
 569 650 l 257
EndSplineSet
EndChar

StartChar: threequarters
Encoding: 190 190 732
GlifName: threequarters
Width: 1031
VWidth: 0
Flags: HW
LayerCount: 2
Fore
SplineSet
275 496 m 257
 275 419 l 257
 192 419 l 257
 192 496 l 257
 275 496 l 257
237 439 m 257
 237 496 l 257
 251.040039062 496 259 504.68359375 259 520 c 256
 259 540.389648438 245.625 553 224 553 c 256
 202.126953125 553 188.588867188 540.213867188 188 519 c 257
 35 519 l 257
 42.37890625 604.862304688 119.094726562 662 227 662 c 256
 334.530273438 662 412 613.423828125 412 546 c 256
 412 473.711914062 355.227539062 439 237 439 c 257
237 476 m 257
 358.993164062 476 422 437.85546875 422 364 c 256
 422 299.951171875 349.155273438 256 243 256 c 256
 127.037109375 256 43.16015625 316.084960938 35 405 c 257
 188 405 l 257
 191.009765625 380.897460938 207.833007812 367 234 367 c 256
 256.149414062 367 269 376.913085938 269 394 c 256
 269 409.97265625 257.4453125 419 237 419 c 257
 237 476 l 257
937 72 m 261
 937 0 l 261
 797 0 l 261
 797 72 l 261
 592 72 l 261
 592 189 l 261
 767 386 l 261
 937 386 l 261
 937 179 l 261
 989 179 l 261
 989 72 l 261
 937 72 l 261
797 179 m 261
 797 260 l 261
 734 179 l 261
 797 179 l 261
569 650 m 257
 729 650 l 257
 465 0 l 257
 305 0 l 257
 569 650 l 257
EndSplineSet
EndChar

StartChar: section
Encoding: 167 167 733
GlifName: section
Width: 566
VWidth: 0
Flags: HW
LayerCount: 2
Fore
SplineSet
248 491 m 258
 353 481 l 258
 473.5838748 472.26887795 528 434.192771084 528 370 c 256
 528 292.794117647 436.232067511 245 289 245 c 257
 289 292 l 257
 318 292 336 304 336 323 c 256
 336 340 327.506772536 348.662307333 306 351 c 258
 214 361 l 258
 102.94255021 373.071461934 33 414.728323699 33 504 c 256
 33 602 126 667 268 667 c 256
 419 667 518 606 533 505 c 257
 339 505 l 257
 333 531 312 543 271 543 c 256
 238 543 216 531 216 511 c 256
 216 500.333333333 225.980780205 493.097068552 248 491 c 258
318 158 m 258
 213 168 l 258
 92.4161252002 176.73112205 38 214.807228916 38 279 c 256
 38 350.029411765 129.767932489 394 277 394 c 257
 277 357 l 257
 248 357 230 345 230 326 c 256
 230 309 238.256889304 300.363381597 260 298 c 258
 352 288 l 258
 462.391405885 276.000934143 533 234.271676301 533 145 c 256
 533 47 440 -18 298 -18 c 256
 147 -18 48 43 33 144 c 257
 227 144 l 257
 233 118 254 106 295 106 c 256
 328 106 350 118 350 138 c 256
 350 148.666666667 340.019219795 155.902931448 318 158 c 258
EndSplineSet
EndChar

StartChar: guillemotleft
Encoding: 171 171 734
GlifName: guillemotleft
Width: 611
VWidth: 0
Flags: HW
LayerCount: 2
Fore
SplineSet
586 580 m 257
 586 384 l 257
 452 308 l 257
 586 238 l 257
 586 40 l 257
 326 202 l 257
 326 418 l 257
 586 580 l 257
286 580 m 257
 286 384 l 257
 152 308 l 257
 286 238 l 257
 286 40 l 257
 26 202 l 257
 26 418 l 257
 286 580 l 257
EndSplineSet
EndChar

StartChar: guillemotright
Encoding: 187 187 735
GlifName: guillemotright
Width: 611
VWidth: 0
Flags: HW
LayerCount: 2
Fore
SplineSet
26 40 m 257
 26 236 l 257
 160 312 l 257
 26 382 l 257
 26 580 l 257
 286 418 l 257
 286 202 l 257
 26 40 l 257
326 40 m 257
 326 236 l 257
 460 312 l 257
 326 382 l 257
 326 580 l 257
 586 418 l 257
 586 202 l 257
 326 40 l 257
EndSplineSet
EndChar

StartChar: plusminus
Encoding: 177 177 736
GlifName: plusminus
Width: 588
VWidth: 0
Flags: HW
LayerCount: 2
Fore
SplineSet
563 100 m 257
 563 -68 l 257
 25 -68 l 257
 25 100 l 257
 563 100 l 257
378 450 m 257
 563 450 l 257
 563 282 l 257
 378 282 l 257
 378 147 l 257
 210 147 l 257
 210 282 l 257
 25 282 l 257
 25 450 l 257
 210 450 l 257
 210 585 l 257
 378 585 l 257
 378 450 l 257
EndSplineSet
EndChar

StartChar: dieresis
Encoding: 168 168 737
GlifName: dieresis
Width: 492
VWidth: 0
Flags: HW
LayerCount: 2
Fore
SplineSet
283 677 m 257
 467 677 l 257
 467 500 l 257
 283 500 l 257
 283 677 l 257
25 677 m 257
 209 677 l 257
 209 500 l 257
 25 500 l 257
 25 677 l 257
EndSplineSet
EndChar

StartChar: copyright
Encoding: 169 169 738
GlifName: copyright
Width: 885
VWidth: 132
Flags: HW
LayerCount: 2
Fore
SplineSet
231 324 m 256
 231 448.955223881 314.370786517 532 441 532 c 256
 554.211538462 532 636.192307692 469.818181818 644 361 c 257
 491 361 l 257
 490.253731343 399.070422535 470.850746269 412 441 412 c 256
 404.797297297 412 384 380.222222222 384 324 c 256
 384 266.727272727 404.797297297 234 441 234 c 256
 470.104477612 234 489.507462687 243.483870968 491 276 c 257
 644 276 l 257
 633.069230769 170.918918919 553.430769231 114 441 114 c 256
 315.157303371 114 231 198 231 324 c 256
437.125976562 62 m 0
 596.611371506 62 705 168.971649381 705 326.372070312 c 0
 705 481.581980978 599.370717975 586 442.360351562 586 c 0
 284.739746941 586 180 480.346021505 180 321.349609375 c 0
 180 164.859312822 281.977409265 62 437.125976562 62 c 0
840 325.092773438 m 0
 840 96.3750182523 676.604790925 -60 437.619140625 -60 c 0
 202.064303051 -60 45 89.9342504816 45 314.795898438 c 0
 45 546.490635157 209.093010868 708 444.494140625 708 c 0
 678.020807144 708 840 551.180569827 840 325.092773438 c 0
EndSplineSet
EndChar

StartChar: ordfeminine
Encoding: 170 170 739
GlifName: ordfeminine
Width: 501
Flags: HW
LayerCount: 2
Fore
SplineSet
458 373 m 2
 458 322.985507246 462 283.31884058 470 254 c 1
 318 254 l 1
 311 286.446153846 308 321.453846154 308 365 c 6
 308 522 l 2
 308 541.193548387 285.732394366 556 257 556 c 0
 217.746666666 556 196.84 543.440677966 193 518 c 1
 39 518 l 1
 46.4827586207 605.428571428 130.931034482 662 256 662 c 0
 371.129533678 662 458 600.765714286 458 521 c 2
 458 373 l 2
343 414 m 5
 343 319.391304348 274.4 244 189 244 c 0
 98.4666666662 244 35 296.191780822 35 371 c 0
 35 438.157894737 89.4939297125 477.948242812 178 487 c 2
 266 496 l 2
 294.373674121 498.901853035 308 504.290909091 308 520 c 1
 309 418 l 5
 223 409 l 6
 196.821586198 406.260398556 187 398.905882353 187 383 c 4
 187 365.791666667 205.731707317 355 235 355 c 4
 277.131428572 355 308 379.911111111 308 414 c 5
 343 414 l 5
EndSplineSet
Substitution2: "ss01StyleSet1inLatinlookup0 subtable" ordfeminine.ss01
EndChar

StartChar: logicalnot
Encoding: 172 172 740
GlifName: logicalnot
Width: 642
VWidth: 0
Flags: HW
LayerCount: 2
Fore
SplineSet
427 192 m 1
 25 192 l 1
 25 360 l 1
 617 360 l 1
 617 60 l 5
 427 60 l 5
 427 192 l 1
EndSplineSet
EndChar

StartChar: uni00AD
Encoding: 173 173 741
GlifName: uni00A_D_
Width: 422
VWidth: 0
Flags: HW
LayerCount: 2
Fore
SplineSet
25 360 m 257
 397 360 l 257
 397 192 l 257
 25 192 l 257
 25 360 l 257
EndSplineSet
EndChar

StartChar: registered
Encoding: 174 174 742
GlifName: registered
Width: 885
VWidth: 132
Flags: HW
LayerCount: 2
Fore
SplineSet
435 240 m 257
 461 323 l 257
 566.447761194 323 607.064676617 299.897435897 618 217 c 258
 628 133 l 257
 491 133 l 257
 482 200 l 258
 478.028169014 226.849315068 465.450704225 240 435 240 c 257
446 407 m 258
 392 407 l 257
 392 342 l 257
 446 342 l 258
 469.594202899 342 483 354.21875 483 376 c 256
 483 395.819672131 469.594202899 407 446 407 c 258
461 293 m 257
 451 240 l 257
 392 240 l 257
 392 133 l 257
 252 133 l 257
 252 512 l 257
 484 512 l 258
 566.079295154 512 621 469.936507937 621 406 c 256
 621 338.324175824 556.849056604 293 461 293 c 257
437.125976562 62 m 0
 596.611371506 62 705 168.971649381 705 326.372070312 c 0
 705 481.581980978 599.370717975 586 442.360351562 586 c 0
 284.739746941 586 180 480.346021505 180 321.349609375 c 0
 180 164.859312822 281.977409265 62 437.125976562 62 c 0
840 325.092773438 m 0
 840 96.3750182523 676.604790925 -60 437.619140625 -60 c 0
 202.064303051 -60 45 89.9342504816 45 314.795898438 c 0
 45 546.490635157 209.093010868 708 444.494140625 708 c 0
 678.020807144 708 840 551.180569827 840 325.092773438 c 0
EndSplineSet
EndChar

StartChar: macron
Encoding: 175 175 743
GlifName: macron
Width: 410
VWidth: 0
Flags: HW
LayerCount: 2
Fore
SplineSet
25 646 m 257
 385 646 l 257
 385 510 l 257
 25 510 l 257
 25 646 l 257
EndSplineSet
EndChar

StartChar: acute
Encoding: 180 180 744
GlifName: acute
Width: 360
VWidth: 0
Flags: HW
LayerCount: 2
Fore
SplineSet
335 700 m 257
 175 500 l 257
 25 500 l 257
 125 700 l 257
 335 700 l 257
EndSplineSet
EndChar

StartChar: mu
Encoding: 181 181 745
GlifName: mu
Width: 596
VWidth: 0
Flags: HW
LayerCount: 2
Fore
SplineSet
43 500 m 257
 233 500 l 257
 233 -163 l 257
 43 -163 l 257
 43 500 l 257
233 220 m 257
 233 171 259 150 300 150 c 256
 336 150 363 177 363 214 c 257
 402 208 l 257
 402 66 307 -20 219 -20 c 256
 122.795454545 -20 53 51 53 180 c 257
 233 220 l 257
553 0 m 257
 363 0 l 257
 363 500 l 257
 553 500 l 257
 553 0 l 257
EndSplineSet
EndChar

StartChar: paragraph
Encoding: 182 182 746
GlifName: paragraph
Width: 724
Flags: HW
LayerCount: 2
Fore
SplineSet
253 252 m 1
 122.089879123 252 35 331.898971673 35 452 c 0
 35 570.500455918 121.424121408 648.995758848 253 650 c 2
 669 650 l 1
 669 0 l 1
 499 0 l 1
 499 486 l 1
 429 486 l 1
 429 0 l 1
 253 0 l 1
 253 252 l 1
EndSplineSet
EndChar

StartChar: cedilla
Encoding: 184 184 747
GlifName: cedilla
Width: 306
VWidth: 0
Flags: HW
LayerCount: 2
Fore
SplineSet
97 10 m 257
 194 10 l 257
 155 -55 l 257
 169 -55 l 258
 235.889648438 -55 281 -103.33203125 281 -175 c 256
 281 -243.252929688 215.76953125 -287 114 -287 c 258
 25 -287 l 257
 25 -157 l 257
 106 -157 l 258
 126.780273438 -157 138 -148.934570312 138 -134 c 256
 138 -122.053710938 128.346679688 -115 112 -115 c 258
 78 -115 l 257
 53 -75 l 257
 97 10 l 257
EndSplineSet
EndChar

StartChar: ordmasculine
Encoding: 186 186 748
GlifName: ordmasculine
Width: 501
VWidth: 264
Flags: HW
LayerCount: 2
Fore
SplineSet
33 454 m 256
 33 579 119.97979798 662 251 662 c 256
 380.979695431 662 468 579 468 454 c 256
 468 328 380.979695431 244 251 244 c 256
 119.97979798 244 33 328 33 454 c 256
325 454 m 256
 325 510 297.592592593 542 251 542 c 256
 203.272727273 542 176 510 176 454 c 256
 176 397 203.272727273 364 251 364 c 256
 297.592592593 364 325 397 325 454 c 256
EndSplineSet
EndChar

StartChar: ordfeminine.ss01
Encoding: 1114332 -1 749
GlifName: ordfeminine.ss01
Width: 501
VWidth: 264
Flags: HW
LayerCount: 2
Fore
SplineSet
325 650 m 257
 468 650 l 257
 468 256 l 257
 325 256 l 257
 325 650 l 257
33 454 m 256
 33 579 107.212121212 662 219 662 c 256
 314.23857868 662 378 579 378 454 c 256
 378 328 314.23857868 244 219 244 c 256
 107.212121212 244 33 328 33 454 c 256
325 454 m 256
 325 510 297.592592593 542 251 542 c 256
 203.272727273 542 176 510 176 454 c 256
 176 397 203.272727273 364 251 364 c 256
 297.592592593 364 325 397 325 454 c 256
EndSplineSet
EndChar
